<?xml version="1.0" encoding="utf-8"?>
<!-- Generator: Adobe Illustrator 26.2.1, SVG Export Plug-In . SVG Version: 6.00 Build 0)  -->
<svg version="1.1" id="Layer_1" xmlns="http://www.w3.org/2000/svg" xmlns:xlink="http://www.w3.org/1999/xlink" x="0px" y="0px"
	 viewBox="0 0 24 24" style="enable-background:new 0 0 24 24;" xml:space="preserve">
<style type="text/css">
	.st0{fill:#5CB1EB;}
	.st1{fill:#001158;}
	.st2{fill:#FFFFFF;}
</style>
<g>
	<g>
		<g>
			<path class="st0" d="M21.6,13.8c-0.9-0.9-2.1-1.5-3.4-1.6l0,0c0,0,0,0,0,0c0,0,0,0,0,0c0,0,0,0-0.1,0c0,0,0,0,0,0
				c-0.4,0-1.8,0-3.6,0.9c0,0,0,0,0,0c-0.2,0.1-0.5,0.3-0.8,0.5c0,0-0.1,0.1-0.1,0.1c-2,1.5-4,1.7-4.7,1.8c1.6-0.1,3,1.1,3.2,2.8
				l0,0c0.1,1.2,0.7,2.4,1.6,3.4c2.2,2.2,5.7,2.2,7.8,0C23.8,19.5,23.8,16,21.6,13.8z"/>
		</g>
		<path class="st1" d="M15.5,8.9c0.2-2.1-0.5-4.3-2.1-6C10.5,0,5.8,0,2.9,2.9C0,5.8,0,10.5,2.9,13.4c1.4,1.4,3.2,2.1,5.1,2.2l0,0
			c0.4,0,0.8,0,1.2-0.1c0.8-0.1,2.6-0.4,4.5-1.8c2.2-1.6,4.2-1.5,4.5-1.5l0,0C16.6,12,15.4,10.5,15.5,8.9z"/>
	</g>
	<g>
		<g>
			<path class="st2" d="M14.4,15.6c0.1,0,0.2,0,0.3,0c0.1,0,0.2,0,0.3,0c0.1,0,0.2,0,0.3,0c0.1,0,0.2,0,0.3,0c0.3,0,0.6,0,0.9,0.1
				c0.2,0.1,0.4,0.2,0.6,0.4c0.2,0.2,0.3,0.4,0.3,0.6c0.1,0.2,0.1,0.5,0.1,0.8c0,0.3,0,0.5-0.1,0.8c-0.1,0.2-0.2,0.5-0.3,0.7
				c-0.2,0.2-0.4,0.3-0.6,0.5c-0.3,0.1-0.6,0.2-0.9,0.2c-0.1,0-0.1,0-0.2,0c-0.1,0-0.2,0-0.3,0c-0.1,0-0.2,0-0.3,0
				c-0.1,0-0.2,0-0.2,0V15.6z M15.6,16.2c-0.1,0-0.2,0-0.2,0c-0.1,0-0.1,0-0.2,0v2.6c0,0,0,0,0.1,0c0,0,0.1,0,0.1,0c0,0,0.1,0,0.1,0
				c0,0,0.1,0,0.1,0c0.2,0,0.4,0,0.5-0.1c0.1-0.1,0.3-0.2,0.3-0.3c0.1-0.1,0.1-0.3,0.2-0.4c0-0.2,0.1-0.3,0.1-0.5c0-0.2,0-0.3,0-0.5
				c0-0.2-0.1-0.3-0.2-0.4c-0.1-0.1-0.2-0.2-0.3-0.3C16,16.3,15.8,16.2,15.6,16.2z"/>
			<path class="st2" d="M20.2,17.9h-1.4v1.6H18v-3.9h0.8v1.6h1.4v-1.6H21v3.9h-0.8V17.9z"/>
		</g>
	</g>
	<g>
		<g>
			<path class="st2" d="M7.1,8.3h-2v2.3H4.1V5.2h1.1v2.2h2V5.2h1.1v5.4H7.1V8.3z"/>
			<path class="st2" d="M12.8,10.4c-0.2,0.1-0.4,0.2-0.6,0.3c-0.3,0.1-0.5,0.1-0.8,0.1c-0.3,0-0.6-0.1-0.9-0.2
				c-0.3-0.1-0.5-0.3-0.8-0.5C9.5,9.8,9.3,9.6,9.2,9.2C9,8.8,9,8.4,9,7.9c0-0.5,0.1-1,0.2-1.3c0.1-0.4,0.3-0.6,0.6-0.9
				c0.2-0.2,0.5-0.4,0.8-0.5c0.3-0.1,0.6-0.1,0.9-0.1c0.3,0,0.6,0,0.8,0.1c0.2,0,0.4,0.1,0.5,0.1l-0.2,0.9c-0.1-0.1-0.3-0.1-0.4-0.1
				c-0.2,0-0.4,0-0.6,0c-0.4,0-0.8,0.2-1,0.5c-0.3,0.3-0.4,0.8-0.4,1.4c0,0.3,0,0.5,0.1,0.8c0.1,0.2,0.2,0.4,0.3,0.6
				c0.1,0.2,0.3,0.3,0.5,0.4c0.2,0.1,0.4,0.1,0.7,0.1c0.2,0,0.4,0,0.6-0.1c0.2,0,0.3-0.1,0.4-0.2L12.8,10.4z"/>
		</g>
	</g>
</g>
</svg>
