<svg width="22" height="17" fill="none" xmlns="http://www.w3.org/2000/svg"><path d="M1 1h20v15H1V1Z" fill="#012169"/><path d="m3.34375 1 7.62495 5.65625L18.5625 1H21v1.9375l-7.5 5.59375L21 14.0938V16h-2.5L11 10.4062 3.53125 16H1v-1.875l7.46875-5.5625L1 3V1h2.34375Z" fill="#fff"/><path d="M14.25 9.78125 21 14.75V16l-8.4688-6.21875H14.25Zm-5.75.62495L8.6875 11.5l-6 4.5H1l7.5-5.5938ZM21 1v.09375l-7.7813 5.875.0625-1.375L19.4375 1H21ZM1 1l7.46875 5.5h-1.875L1 2.3125V1Z" fill="#C8102E"/><path d="M8.53125 1v15h4.99995V1H8.53125ZM1 6v5h20V6H1Z" fill="#fff"/><path d="M1 7.03125v2.99995h20V7.03125H1ZM9.53125 1v15h2.99995V1H9.53125Z" fill="#C8102E"/><path stroke="#003C7D" stroke-opacity=".2" d="M.5.5h21v16H.5z"/></svg>