<?xml version="1.0" encoding="utf-8"?>
<!-- Generator: Adobe Illustrator 25.3.1, SVG Export Plug-In . SVG Version: 6.00 Build 0)  -->
<svg version="1.1" id="Layer_1" xmlns="http://www.w3.org/2000/svg" xmlns:xlink="http://www.w3.org/1999/xlink" x="0px" y="0px"
	 viewBox="0 0 136.1 75.1" style="enable-background:new 0 0 136.1 75.1;" xml:space="preserve">
<style type="text/css">
	.st0{fill:#006FBA;}
	.st1{fill:url(#SVGID_1_);}
</style>
<path class="st0" d="M82,49.6c-3.6,1.9-7.6,2.7-11.7,2.7c-8.7,0-15.1-5.7-15.1-14.7c0-9,6.4-14.7,15.1-14.7c4.4,0,8.3,1,11.2,3.6
	l-4.3,4.7c-1.7-1.7-3.7-2.6-6.8-2.6c-5.3,0-8.7,3.8-8.7,9s3.4,9,8.7,9c2.7,0,4.7-0.8,5.8-1.4v-3h-4.2v-5.7H82V49.6z"/>
<path class="st0" d="M87.4,23.5h9.3c9,0,16.6,3.8,16.6,14.1c0,9.1-7.4,13.9-15.7,13.9H87.4V23.5z M93.6,45.8h3.2
	c5.7,0,10-2.2,10-8.5c0-5.5-4.4-8.1-9.6-8.1h-3.6V45.8z"/>
<radialGradient id="SVGID_1_" cx="23.1475" cy="24.1344" r="28.2048" fx="9.973" fy="22.3598" gradientTransform="matrix(0.9063 0.4226 -0.8452 1.8126 22.568 -29.3946)" gradientUnits="userSpaceOnUse">
	<stop  offset="0.3708" style="stop-color:#0B70B8"/>
	<stop  offset="0.9994" style="stop-color:#FFFFFF;stop-opacity:0"/>
</radialGradient>
<polygon class="st1" points="136.1,75.1 3.7,75.1 53.9,0 136.1,0 "/>
<g>
	<path class="st0" d="M39.5,28.5c3.1,0,5.1,0.9,6.8,2.6l4.3-4.7c-2.8-2.6-6.7-3.6-11.2-3.6c-0.3,0-0.6,0-0.9,0L33,31.2
		C34.6,29.5,36.8,28.5,39.5,28.5z"/>
	<path class="st0" d="M41.9,42.2h3.4v3c-1.1,0.6-3.1,1.4-5.8,1.4c-5.3,0-8.7-3.8-8.7-9c0-1.6,0.3-3.1,0.9-4.3l-6.5,9.7
		c2,5.8,7.4,9.4,14.2,9.4c4.1,0,8.1-0.8,11.7-2.7v-13h-9.4V42.2z"/>
</g>
<g>
	<path class="st0" d="M51.6,57.8h1.4v4.4h5.5v-4.4H60v10.7h-1.4v-4.9h-5.5v4.9h-1.4V57.8z"/>
	<path class="st0" d="M62.5,62.2c0.8-0.7,1.8-1.1,2.8-1.1c2.1,0,3,1.1,3,2.4v3.6c0,0.5,0,0.9,0.1,1.3h-1.2c0-0.4,0-0.7,0-1.1h0
		c-0.6,0.9-1.4,1.3-2.5,1.3c-1.3,0-2.5-0.8-2.5-2.1c0-1.8,1.8-2.5,3.9-2.5h1v-0.3c0-0.7-0.5-1.5-1.7-1.5c-1,0-1.5,0.4-2,0.8
		L62.5,62.2z M66.3,65.1c-1.3,0-2.8,0.2-2.8,1.4c0,0.8,0.6,1.2,1.5,1.2c1.5,0,2-1.1,2-2.1v-0.5H66.3z"/>
	<path class="st0" d="M70.3,62.2c0.8-0.7,1.8-1.1,2.8-1.1c2.1,0,3,1.1,3,2.4v3.6c0,0.5,0,0.9,0.1,1.3H75c0-0.4,0-0.7,0-1.1h0
		c-0.6,0.9-1.4,1.3-2.5,1.3c-1.3,0-2.5-0.8-2.5-2.1c0-1.8,1.8-2.5,3.9-2.5h1v-0.3c0-0.7-0.5-1.5-1.7-1.5c-1,0-1.5,0.4-2,0.8
		L70.3,62.2z M74.1,65.1c-1.3,0-2.8,0.2-2.8,1.4c0,0.8,0.6,1.2,1.5,1.2c1.5,0,2-1.1,2-2.1v-0.5H74.1z"/>
	<path class="st0" d="M85.2,68.4c0,2.2-1.6,3.7-3.9,3.7c-1.4,0-2.5-0.3-3.5-1.3l0.9-1.1c0.7,0.8,1.5,1.2,2.5,1.2
		c2,0,2.6-1.3,2.6-2.5v-1.1h0c-0.5,0.9-1.5,1.3-2.5,1.3c-2.1,0-3.6-1.6-3.6-3.7c0-2.1,1.4-3.8,3.6-3.8c1,0,2,0.4,2.5,1.2h0v-1h1.4
		V68.4z M79.2,64.9c0,1.4,0.9,2.4,2.4,2.4c1.4,0,2.4-0.9,2.4-2.4c0-1.4-0.9-2.5-2.4-2.5C80.1,62.4,79.2,63.5,79.2,64.9z"/>
	<path class="st0" d="M87.4,57.9h1.4v10.6h-1.4V57.9z"/>
	<path class="st0" d="M90.9,62.2c0.8-0.7,1.8-1.1,2.8-1.1c2.1,0,3,1.1,3,2.4v3.6c0,0.5,0,0.9,0.1,1.3h-1.2c0-0.4,0-0.7,0-1.1h0
		c-0.6,0.9-1.4,1.3-2.5,1.3c-1.3,0-2.5-0.8-2.5-2.1c0-1.8,1.8-2.5,3.9-2.5h1v-0.3c0-0.7-0.5-1.5-1.7-1.5c-1,0-1.5,0.4-2,0.8
		L90.9,62.2z M94.8,65.1c-1.3,0-2.8,0.2-2.8,1.4c0,0.8,0.6,1.2,1.5,1.2c1.5,0,2-1.1,2-2.1v-0.5H94.8z"/>
	<path class="st0" d="M98.7,61.3h1.4v1.1h0c0.3-0.8,1.3-1.3,2.4-1.3c1.4,0,2.6,0.8,2.6,2.7v4.6h-1.4v-4.2c0-1.3-0.8-1.8-1.6-1.8
		c-1.1,0-2,0.7-2,2.4v3.7h-1.4V61.3z"/>
	<path class="st0" d="M114.3,68.5h-1.4v-1h0c-0.5,0.8-1.5,1.2-2.5,1.2c-2.2,0-3.6-1.6-3.6-3.8c0-2.1,1.4-3.8,3.6-3.8
		c1,0,2,0.5,2.5,1.2h0v-4.5h1.4V68.5z M112.9,64.9c0-1.4-0.9-2.5-2.4-2.5c-1.4,0-2.4,1-2.4,2.5c0,1.4,0.9,2.5,2.4,2.5
		C112,67.4,112.9,66.4,112.9,64.9z"/>
	<path class="st0" d="M117.3,65.4c0,1.2,1.2,2.1,2.4,2.1c0.8,0,1.4-0.4,2-1.1l1,0.8c-0.8,1-1.8,1.5-3.2,1.5c-2.3,0-3.7-1.6-3.7-3.8
		c0-2.1,1.6-3.8,3.7-3.8c2.5,0,3.5,1.9,3.5,3.8v0.5H117.3z M121.6,64.3c0-1.2-0.7-2.1-2.1-2.1c-1.3,0-2.2,1.1-2.2,2.1H121.6z"/>
	<path class="st0" d="M124.7,61.3h1.4v1.1h0c0.3-0.8,1.2-1.3,2.4-1.3c1.4,0,2.6,0.8,2.6,2.7v4.6h-1.4v-4.2c0-1.3-0.8-1.8-1.6-1.8
		c-1.1,0-2,0.7-2,2.4v3.7h-1.4V61.3z"/>
</g>
</svg>
