<svg xmlns="http://www.w3.org/2000/svg" width="174" height="109" viewBox="0 0 174 109"><defs><radialGradient id="w9d0b" cx="84.83" cy="-1.14" r="41.29" gradientUnits="userSpaceOnUse"><stop offset="0" stop-color="#07679a"/><stop offset="1" stop-color="#07679a" stop-opacity="0"/></radialGradient><radialGradient id="w9d0c" cx="53.48" cy="21.56" r="41.03" gradientUnits="userSpaceOnUse"><stop offset="0" stop-color="#728629"/><stop offset="1" stop-color="#728629" stop-opacity="0"/></radialGradient><radialGradient id="w9d0d" cx="65.38" cy="58.24" r="41.19" gradientUnits="userSpaceOnUse"><stop offset="0" stop-color="#e84133"/><stop offset="1" stop-color="#e84133" stop-opacity="0"/></radialGradient><radialGradient id="w9d0e" cx="104.24" cy="58.15" r="41.19" gradientUnits="userSpaceOnUse"><stop offset="0" stop-color="#eb900f"/><stop offset="1" stop-color="#eb900f" stop-opacity="0"/></radialGradient><radialGradient id="w9d0f" cx="116.32" cy="21.54" r="41.03" gradientUnits="userSpaceOnUse"><stop offset="0" stop-color="#8f2a56"/><stop offset="1" stop-color="#8f2a56" stop-opacity="0"/></radialGradient><clipPath id="w9d0a"><path d="M97.872 45.122a.892.892 0 0 1-.839.583h-9.259a.888.888 0 0 1-.839-1.19l4.641-12.661h-6.628a.892.892 0 0 0-.839.583l-4.648 12.685a.892.892 0 0 1-.84.583h-9.258a.888.888 0 0 1-.84-1.19l4.642-12.661c-3.562-.53-7.825-4.577-7.215-10.274a.9.9 0 0 1 .893-.808H76.6c.375 0 .71-.233.839-.583L81.288 9.69l.801-2.187a.892.892 0 0 1 .84-.583h9.258c.62 0 1.051.611.84 1.19L88.385 20.77v.001h7.253c8.394 0 9.34 4.962 7.096 11.082zM84.836.27C69.12.27 56.38 12.922 56.38 28.53c0 15.607 12.74 28.259 28.456 28.259s28.455-12.652 28.455-28.26c0-15.607-12.74-28.259-28.455-28.259z"/></clipPath></defs><g><g><g><g><g><path fill="#646363" d="M.7 108.258V69.75h2.826v13.303c3.301-2.047 6.684-3.07 10.148-3.07 6.873 0 10.31 3.51 10.31 10.529v17.746h-2.827V89.354c0-4.56-2.54-6.84-7.617-6.84-3.392 0-6.73 1.194-10.013 3.581v22.163z"/></g><g><path fill="#646363" d="M42.177 94.253c2.638 0 5.455.18 8.452.538v8.294c-3.105 1.832-6.379 2.747-9.824 2.747-4.667 0-6.999-1.885-6.999-5.655 0-3.95 2.79-5.924 8.371-5.924zm-11.197 6.005c0 5.332 3.274 7.998 9.825 7.998 3.32 0 6.746-.933 10.282-2.8l.646 2.8h1.723V88.759c0-5.853-3.661-8.779-10.982-8.779-3.087 0-6.155.449-9.206 1.347v2.423a32.455 32.455 0 0 1 9.206-1.346c5.437 0 8.155 2.163 8.155 6.49v3.473c-2.997-.359-5.814-.538-8.452-.538-7.465 0-11.197 2.81-11.197 8.429z"/></g><g><path fill="#646363" d="M82.667 104.677c-2.728.7-5.562 1.05-8.505 1.05-6.945 0-10.417-4.12-10.417-12.36 0-7.307 3.472-10.96 10.417-10.96 2.942 0 5.777.483 8.505 1.453zm2.827 1.885V69.75h-2.826v11.58c-2.89-.898-5.734-1.347-8.533-1.347-8.937 0-13.405 4.524-13.405 13.572 0 9.803 4.387 14.703 13.162 14.703 4.665 0 8.532-.565 11.601-1.696z"/></g><g><path fill="#646363" d="M95.586 94.01c0-7.917 3.453-11.876 10.359-11.876 6.905 0 10.359 3.959 10.359 11.876 0 8.06-3.454 12.091-10.36 12.091-6.905 0-10.358-4.03-10.358-12.09zm10.364 14.487c8.792 0 13.19-4.793 13.19-14.38 0-9.604-4.399-14.407-13.19-14.407-8.794 0-13.19 4.803-13.19 14.407.036 9.587 4.432 14.381 13.19 14.38z"/></g><g><path fill="#646363" d="M144.912 79.982L132.89 92.154v1.966l12.21 14.138h3.684L135.58 93.07l13.044-13.088zm-15.965 28.276V69.75h-2.817v38.508z"/></g><g><path fill="#646363" d="M152.675 106.91v-2.693c3.14 1.077 6.227 1.616 9.26 1.616 5.939 0 8.91-1.885 8.91-5.656 0-3.051-2.199-4.578-6.595-4.578h-3.607c-5.922 0-8.883-2.513-8.883-7.54 0-5.386 3.92-8.079 11.763-8.079 3.015 0 6.092.449 9.232 1.347v2.693c-3.14-1.077-6.217-1.616-9.232-1.616-5.959 0-8.937 1.885-8.937 5.656 0 3.231 2.019 4.847 6.056 4.847h3.607c6.28 0 9.421 2.423 9.421 7.27 0 5.386-3.912 8.08-11.735 8.08-3.033 0-6.12-.449-9.26-1.347z"/></g></g><g><g/><g clip-path="url(#w9d0a)"><g><path fill="url(#w9d0b)" d="M84.83 39.87c22.804 0 41.29-18.358 41.29-41.005 0-22.646-18.486-41.005-41.29-41.005S43.54-23.781 43.54-1.135c0 22.647 18.486 41.006 41.29 41.006z"/></g><g><path fill="url(#w9d0c)" d="M53.42 62.53c22.804 0 41.29-18.358 41.29-41.005 0-22.646-18.486-41.005-41.29-41.005S12.13-1.121 12.13 21.525c0 22.647 18.486 41.006 41.29 41.006z"/></g><g><path fill="url(#w9d0d)" d="M65.42 99.21c22.804 0 41.29-18.358 41.29-41.005 0-22.646-18.486-41.005-41.29-41.005S24.13 35.559 24.13 58.205c0 22.647 18.486 41.006 41.29 41.006z"/></g><g><path fill="url(#w9d0e)" d="M104.25 99.21c22.804 0 41.29-18.358 41.29-41.005 0-22.646-18.486-41.005-41.29-41.005S62.96 35.559 62.96 58.205c0 22.647 18.486 41.006 41.29 41.006z"/></g><g><path fill="url(#w9d0f)" d="M116.25 62.53c22.804 0 41.29-18.358 41.29-41.005 0-22.646-18.486-41.005-41.29-41.005S74.96-1.121 74.96 21.525c0 22.647 18.486 41.006 41.29 41.006z"/></g></g></g></g></g></g></svg>