<?xml version="1.0" encoding="utf-8"?>
<!-- Generator: Adobe Illustrator 26.1.0, SVG Export Plug-In . SVG Version: 6.00 Build 0)  -->
<svg version="1.1" id="Laag_1" xmlns="http://www.w3.org/2000/svg" xmlns:xlink="http://www.w3.org/1999/xlink" x="0px" y="0px"
	 viewBox="0 0 419.42 113.39" style="enable-background:new 0 0 419.42 113.39;" xml:space="preserve">
<style type="text/css">
	.st0{fill:none;}
	.st1{fill:#281E69;}
	.st2{fill:#8ABD24;}
</style>
<rect class="st0" width="419.42" height="113.39"/>
<g>
	<g>
		<g>
			<g>
				<path class="st1" d="M215.3,73.21v-2.23l14.78-22.21h-14.09v-2.6h17.82v2.07l-14.98,22.37h15.47v2.6H215.3z"/>
				<path class="st1" d="M242.44,49.42c-0.42,0.43-0.94,0.65-1.56,0.65c-0.62,0-1.14-0.22-1.56-0.65c-0.42-0.43-0.63-0.95-0.63-1.54
					c0-0.6,0.21-1.11,0.63-1.54c0.42-0.43,0.94-0.65,1.56-0.65c0.62,0,1.14,0.22,1.56,0.65c0.42,0.43,0.63,0.95,0.63,1.54
					C243.06,48.47,242.85,48.99,242.44,49.42z M239.37,73.21V53.72h3v19.49H239.37z"/>
				<path class="st1" d="M256.79,73.7c-2.95,0-5.22-0.97-6.82-2.9c-1.6-1.93-2.4-4.42-2.4-7.45c0-2.9,0.82-5.3,2.46-7.23
					c1.64-1.92,3.74-2.88,6.31-2.88c2.38,0,4.26,0.79,5.62,2.38c1.37,1.58,2.05,3.71,2.05,6.39c0,0.27-0.03,0.73-0.08,1.38h-13.19
					c0.05,2.27,0.57,4.13,1.56,5.58c0.99,1.45,2.51,2.17,4.57,2.17c1.73,0,3.53-0.58,5.4-1.75l1.22,2.31
					C261.48,73.03,259.25,73.7,256.79,73.7z M250.9,61.03h10.07c-0.05-1.52-0.46-2.77-1.22-3.76c-0.76-0.99-1.92-1.48-3.49-1.48
					c-1.49,0-2.69,0.47-3.59,1.42C251.76,58.16,251.17,59.43,250.9,61.03z"/>
				<path class="st1" d="M269.05,73.21V43.98h2.96v29.23H269.05z M280.54,73.21l-8.32-10.88l8.04-8.61h3.53l-8.12,8.61l8.48,10.88
					H280.54z"/>
				<path class="st1" d="M295.27,73.7c-2.95,0-5.22-0.97-6.82-2.9c-1.6-1.93-2.4-4.42-2.4-7.45c0-2.9,0.82-5.3,2.46-7.23
					c1.64-1.92,3.74-2.88,6.31-2.88c2.38,0,4.26,0.79,5.62,2.38c1.37,1.58,2.05,3.71,2.05,6.39c0,0.27-0.03,0.73-0.08,1.38h-13.19
					c0.05,2.27,0.58,4.13,1.56,5.58c0.99,1.45,2.51,2.17,4.57,2.17c1.73,0,3.53-0.58,5.4-1.75l1.22,2.31
					C299.97,73.03,297.73,73.7,295.27,73.7z M289.39,61.03h10.07c-0.05-1.52-0.46-2.77-1.22-3.76c-0.76-0.99-1.92-1.48-3.49-1.48
					c-1.49,0-2.69,0.47-3.59,1.42C290.24,58.16,289.66,59.43,289.39,61.03z"/>
				<path class="st1" d="M307.65,73.21V53.72h2.96v2.8c1.73-2.19,3.84-3.29,6.33-3.29c1.95,0,3.39,0.56,4.32,1.68
					c0.93,1.12,1.4,2.59,1.4,4.4v13.88h-2.96V59.89c0-2.65-1.15-3.98-3.45-3.98c-2.03,0-3.91,1.19-5.64,3.57v13.72H307.65z"/>
				<path class="st1" d="M329.05,73.21V43.98h2.96v12.54c1.7-2.19,3.82-3.29,6.33-3.29c1.95,0,3.39,0.56,4.32,1.68
					c0.93,1.12,1.4,2.59,1.4,4.4v13.88h-2.96V59.89c0-2.65-1.15-3.98-3.45-3.98c-2.06,0-3.94,1.19-5.64,3.57v13.72H329.05z"/>
				<path class="st1" d="M356.09,73.7c-1.95,0-3.4-0.56-4.34-1.68c-0.95-1.12-1.42-2.59-1.42-4.4V53.72h2.96v13.32
					c0,2.65,1.16,3.98,3.49,3.98c2.03,0,3.9-1.19,5.6-3.57V53.72h2.96v15.39c0,1.57,0.12,2.94,0.37,4.1h-3
					c-0.14-0.87-0.23-1.83-0.28-2.88C360.77,72.57,358.66,73.7,356.09,73.7z"/>
				<path class="st1" d="M375.31,49.42c-0.42,0.43-0.94,0.65-1.56,0.65c-0.62,0-1.14-0.22-1.56-0.65c-0.42-0.43-0.63-0.95-0.63-1.54
					c0-0.6,0.21-1.11,0.63-1.54c0.42-0.43,0.94-0.65,1.56-0.65c0.62,0,1.14,0.22,1.56,0.65c0.42,0.43,0.63,0.95,0.63,1.54
					C375.94,48.47,375.73,48.99,375.31,49.42z M372.24,73.21V53.72h3v19.49H372.24z"/>
				<path class="st1" d="M386.66,73.74c-2.33,0-4.38-0.62-6.17-1.87l1.3-2.27c1.46,1.06,3.07,1.58,4.83,1.58
					c1.22,0,2.19-0.24,2.9-0.73c0.72-0.49,1.08-1.18,1.08-2.07c0-0.84-0.32-1.51-0.95-2.01c-0.64-0.5-1.75-1.09-3.35-1.77
					c-1.79-0.76-3.13-1.57-4.02-2.44c-0.89-0.87-1.34-2.06-1.34-3.57c0-1.54,0.55-2.82,1.66-3.84c1.11-1.01,2.61-1.52,4.51-1.52
					c2.27,0,4.2,0.62,5.77,1.87l-1.46,2.15c-1.27-0.97-2.72-1.46-4.34-1.46c-1.03,0-1.83,0.24-2.4,0.71
					c-0.57,0.47-0.85,1.13-0.85,1.97c0,0.84,0.3,1.5,0.89,1.97c0.59,0.47,1.54,0.98,2.84,1.52c0.97,0.41,1.75,0.77,2.33,1.08
					c0.58,0.31,1.2,0.7,1.85,1.18c0.65,0.47,1.12,1.02,1.42,1.64c0.3,0.62,0.45,1.33,0.45,2.11c0,1.76-0.62,3.16-1.87,4.2
					C390.49,73.21,388.79,73.74,386.66,73.74z"/>
			</g>
		</g>
		<g>
			<path class="st1" d="M121.69,73.21V45.87h5.79v10.75h12.23V45.87h5.79v27.34h-5.79V61.39h-12.23v11.82H121.69z"/>
			<path class="st1" d="M156.25,73.7c-1.75,0-3.19-0.5-4.33-1.5c-1.14-1-1.7-2.37-1.7-4.12c0-2.41,1.03-4.19,3.1-5.36
				c2.07-1.16,4.59-1.74,7.57-1.74h0.7v-1.15c0-0.99-0.25-1.7-0.74-2.13c-0.49-0.44-1.33-0.66-2.5-0.66c-1.81,0-3.5,0.63-5.09,1.89
				l-2.38-3.32c2.08-1.91,4.77-2.87,8.09-2.87c2.76,0,4.79,0.58,6.1,1.74c1.3,1.16,1.95,3.04,1.95,5.64v7.18
				c0,2.24,0.19,4.21,0.57,5.91h-5.38c-0.16-0.47-0.27-1.18-0.33-2.13C160.45,72.83,158.58,73.7,156.25,73.7z M157.9,69.72
				c1.42,0,2.65-0.59,3.69-1.76v-3.61h-0.7c-3.61,0-5.42,1.09-5.42,3.28c0,0.68,0.23,1.2,0.7,1.56
				C156.64,69.54,157.21,69.72,157.9,69.72z"/>
			<path class="st1" d="M179.44,83.02c-2.82,0-4.99-0.45-6.51-1.33c-1.52-0.89-2.28-2.22-2.28-4c0-2.05,1.12-3.68,3.37-4.88
				c-1.18-0.68-1.76-1.7-1.76-3.04c0-1.59,0.74-2.85,2.22-3.78c-2.35-1.29-3.53-3.28-3.53-5.99c0-2.19,0.79-3.95,2.38-5.27
				c1.59-1.33,3.75-1.99,6.48-1.99c1.37,0,2.56,0.16,3.57,0.49h7.26v3.57h-2.75c0.55,0.96,0.82,2.03,0.82,3.2
				c0,2.19-0.75,3.94-2.26,5.25c-1.51,1.31-3.63,1.97-6.36,1.97c-0.93,0-1.72-0.05-2.38-0.16c-0.49,0.27-0.74,0.66-0.74,1.15
				c0,0.52,0.29,0.87,0.86,1.05c0.57,0.18,1.63,0.31,3.16,0.39c2.9,0.14,4.9,0.41,5.99,0.82c2.27,0.88,3.41,2.65,3.41,5.34
				c0,2.13-1.01,3.87-3.04,5.21C185.34,82.35,182.7,83.02,179.44,83.02z M179.77,79.36c1.61,0,2.89-0.27,3.82-0.82
				c0.93-0.55,1.4-1.26,1.4-2.13c0-0.88-0.31-1.44-0.92-1.7c-0.62-0.26-1.66-0.43-3.14-0.51c-0.33-0.03-0.57-0.04-0.74-0.04
				c-1.53-0.14-2.45-0.23-2.75-0.29c-1.04,0.74-1.56,1.67-1.56,2.79C175.87,78.46,177.17,79.36,179.77,79.36z M177.21,62.7
				c0.64,0.66,1.52,0.99,2.65,0.99c1.12,0,2-0.33,2.65-0.99c0.64-0.66,0.96-1.56,0.96-2.71c0-1.18-0.32-2.09-0.96-2.73
				c-0.64-0.64-1.53-0.96-2.65-0.96c-1.12,0-2,0.32-2.65,0.96c-0.64,0.64-0.96,1.55-0.96,2.73
				C176.24,61.14,176.56,62.04,177.21,62.7z"/>
			<path class="st1" d="M198.65,73.7c-1.75,0-3.19-0.5-4.33-1.5c-1.14-1-1.7-2.37-1.7-4.12c0-2.41,1.03-4.19,3.1-5.36
				c2.07-1.16,4.59-1.74,7.57-1.74h0.7v-1.15c0-0.99-0.25-1.7-0.74-2.13c-0.49-0.44-1.33-0.66-2.5-0.66c-1.81,0-3.5,0.63-5.09,1.89
				l-2.38-3.32c2.08-1.91,4.77-2.87,8.09-2.87c2.76,0,4.79,0.58,6.1,1.74c1.3,1.16,1.95,3.04,1.95,5.64v7.18
				c0,2.24,0.19,4.21,0.57,5.91h-5.38c-0.16-0.47-0.27-1.18-0.33-2.13C202.85,72.83,200.98,73.7,198.65,73.7z M200.29,69.72
				c1.42,0,2.65-0.59,3.69-1.76v-3.61h-0.7c-3.61,0-5.42,1.09-5.42,3.28c0,0.68,0.23,1.2,0.7,1.56
				C199.03,69.54,199.61,69.72,200.29,69.72z"/>
		</g>
		<circle class="st2" cx="87.28" cy="62.27" r="12.91"/>
	</g>
	<path class="st1" d="M49.89,33.02c0,0-25.69,20.58-23.98,38.83c1.55,16.51,16.02,16.68,22.74,15.06
		c6.73-1.62,13.34-6.58,19.03-31.26C75.78,25.06,82.93,22.51,90.84,14c0.4-0.43,0.07-1.12-0.51-1.08
		C85.38,13.21,67.11,18.11,49.89,33.02"/>
</g>
</svg>