<svg width="301" height="300" viewBox="0 0 301 300" fill="none" xmlns="http://www.w3.org/2000/svg">
<path d="M278.413 174.17C266.365 162.088 250.484 154.58 233.5 152.937H233.41H233.29C233.087 152.937 232.737 152.89 232.213 152.86C227.18 152.59 207.99 152.577 184.623 165.527H184.597C181.263 167.37 177.87 169.47 174.407 171.86C173.913 172.193 173.407 172.553 172.917 172.91C145.823 192.303 119.107 196.017 110.917 196.717C121.286 196.355 131.404 199.957 139.212 206.79C147.019 213.623 151.931 223.174 152.947 233.5V233.5C154.588 250.484 162.096 266.366 174.18 278.413C202.967 307.197 249.637 307.197 278.423 278.413C307.21 249.63 307.197 202.957 278.413 174.17Z" fill="#5CB1EB"/>
<path d="M196.883 108.353C198.327 93.8315 196.525 79.1704 191.609 65.43C186.693 51.6896 178.785 39.2133 168.457 28.9034C129.92 -9.63331 67.44 -9.63331 28.9034 28.9034C-9.63331 67.44 -9.63331 129.903 28.9034 168.457C46.9369 186.546 71.3014 196.908 96.84 197.35V197.35C102.327 197.577 108.117 197.1 113.107 196.5C123.2 195.36 147.893 190.833 172.913 172.913C202.483 151.75 228.323 152.55 232.81 152.873C222.182 151.642 212.461 146.287 205.742 137.961C199.023 129.634 195.842 119.002 196.883 108.353V108.353Z" fill="#001158"/>
<path d="M196.973 194.283H203.66C211.327 194.283 215.88 198.423 215.88 206.72C215.88 215.017 211.34 219.353 203.88 219.353H196.963L196.973 194.283ZM203.367 215.75C208.413 215.75 211.31 212.883 211.31 206.72C211.31 200.557 208.413 197.887 203.367 197.887H201.42V215.75H203.367Z" fill="white"/>
<path d="M219.307 209.953C219.307 203.837 223.553 200.063 227.973 200.063C233.063 200.063 235.747 203.73 235.747 209.003C235.75 209.723 235.685 210.442 235.553 211.15H223.603C223.97 214.483 226.117 216.397 229.153 216.397C230.712 216.375 232.23 215.9 233.523 215.03L235.027 217.777C233.122 219.077 230.876 219.785 228.57 219.813C223.387 219.813 219.307 216.167 219.307 209.953ZM231.94 208.147C231.94 205.247 230.653 203.48 228.077 203.48C225.883 203.48 223.953 205.12 223.57 208.147H231.94Z" fill="white"/>
<path d="M239.983 200.523H243.603L243.937 203.07H244.057C245.743 201.43 247.663 200.07 250.237 200.07C254.27 200.07 256.033 202.8 256.033 207.553V219.36H251.617V208.12C251.617 205.023 250.73 203.86 248.69 203.86C247.023 203.86 245.943 204.67 244.397 206.193V219.35H239.98L239.983 200.523Z" fill="white"/>
<path d="M186.95 228.933H191.387V238.993H201.523V228.92H205.97V253.993H201.523V242.873H191.387V253.993H186.94L186.95 228.933Z" fill="white"/>
<path d="M210.97 248.943C210.97 244.913 214.303 242.81 222.04 241.983C221.98 239.96 221.167 238.273 218.62 238.273C216.75 238.273 214.987 239.117 213.33 240.127L211.703 237.183C213.773 235.88 216.443 234.713 219.433 234.713C224.14 234.713 226.457 237.613 226.457 242.857V253.993H222.837L222.503 251.907H222.38C220.693 253.347 218.76 254.453 216.537 254.453C213.237 254.467 210.97 252.227 210.97 248.943ZM222.04 248.96V244.727C216.933 245.373 215.23 246.707 215.23 248.607C215.23 250.273 216.367 251 217.947 251C219.527 251 220.643 250.247 222.053 248.96H222.04Z" fill="white"/>
<path d="M230.747 248.943C230.747 244.913 234.08 242.81 241.82 241.983C241.757 239.96 240.947 238.273 238.4 238.273C236.53 238.273 234.767 239.117 233.11 240.127L231.483 237.183C233.553 235.88 236.223 234.713 239.213 234.713C243.92 234.713 246.237 237.613 246.237 242.857V253.993H242.617L242.283 251.907H242.16C240.473 253.347 238.54 254.453 236.317 254.453C233.017 254.467 230.747 252.227 230.747 248.943ZM241.82 248.96V244.727C236.713 245.373 235.01 246.707 235.01 248.607C235.01 250.273 236.147 251 237.727 251C239.307 251 240.423 250.247 241.82 248.96V248.96Z" fill="white"/>
<path d="M250.253 257.423C250.253 255.837 251.233 254.45 252.967 253.407V253.253C252.432 252.925 251.992 252.462 251.693 251.91C251.394 251.358 251.246 250.737 251.263 250.11C251.263 248.653 252.263 247.367 253.35 246.6V246.447C252.582 245.865 251.959 245.114 251.528 244.252C251.097 243.39 250.871 242.44 250.867 241.477C250.867 237.143 254.36 234.713 258.303 234.713C259.253 234.71 260.196 234.865 261.093 235.173H267.823V238.457H264.387C265.1 239.354 265.48 240.471 265.46 241.617C265.46 245.8 262.287 248.04 258.3 248.04C257.428 248.029 256.565 247.861 255.753 247.543C255.465 247.745 255.23 248.015 255.069 248.329C254.909 248.643 254.828 248.991 254.833 249.343C254.833 250.4 255.6 251.047 257.883 251.047H261.237C265.737 251.047 268.127 252.44 268.127 255.693C268.127 259.403 264.233 262.33 258.083 262.33C253.593 262.327 250.253 260.72 250.253 257.423ZM263.87 256.423C263.87 254.967 262.703 254.537 260.537 254.537H257.95C257.095 254.556 256.24 254.469 255.407 254.277C254.407 255.043 253.95 255.887 253.95 256.76C253.95 258.477 255.79 259.473 258.75 259.473C261.8 259.463 263.87 258.037 263.87 256.413V256.423ZM261.57 241.487C261.57 239.127 260.143 237.777 258.303 237.777C256.463 237.777 255.037 239.11 255.037 241.487C255.037 243.863 256.493 245.273 258.303 245.273C260.113 245.273 261.57 243.87 261.57 241.477V241.487Z" fill="white"/>
<path d="M45.1735 65.3567H50.8201V74.9934H59.4467V65.3667H65.1134V90.3667H59.4467V79.9367H50.8201V90.3267H45.1735V65.3567Z" fill="white"/>
<path d="M69.4366 80.8367C69.4366 74.67 73.8367 70.8633 78.4067 70.8633C83.8234 70.8633 86.5067 74.8 86.5067 79.99C86.51 80.8256 86.4318 81.6596 86.2733 82.48H74.8934C75.4 85.24 77.29 86.5067 79.8267 86.5067C81.2866 86.4788 82.7102 86.0473 83.94 85.26L85.8033 88.66C83.8102 90.0138 81.4658 90.7575 79.0567 90.8C73.6333 90.8 69.4366 87.1334 69.4366 80.8367ZM81.6933 78.7534C81.6933 76.6634 80.7833 75.1567 78.5333 75.1567C76.7533 75.1567 75.2 76.35 74.83 78.7534H81.6933Z" fill="white"/>
<path d="M89.1 85.0667C89.1 81.0667 92.29 78.89 99.81 78.0967C99.6967 76.43 98.8667 75.3467 96.81 75.3467C95.2134 75.3467 93.6233 76.0133 91.7767 77.0633L89.7767 73.3633C92.19 71.89 94.91 70.8633 97.9 70.8633C102.763 70.8633 105.457 73.64 105.457 79.4667V90.3267H100.86L100.453 88.38H100.313C98.7134 89.7867 96.9167 90.7867 94.78 90.7867C91.3 90.8 89.1 88.27 89.1 85.0667ZM99.81 84.8167V81.4833C95.81 82.0233 94.4967 83.17 94.4967 84.6067C94.4967 85.8333 95.34 86.4333 96.68 86.4333C97.9533 86.4433 98.81 85.81 99.81 84.8167Z" fill="white"/>
<path d="M110.177 84.43V63.4833H115.813V84.66C115.813 85.87 116.37 86.2534 116.813 86.2534C117.046 86.2606 117.278 86.2348 117.503 86.1767L118.17 90.3333C117.267 90.6732 116.305 90.8318 115.34 90.8C111.497 90.8 110.177 88.28 110.177 84.43Z" fill="white"/>
<path d="M121.903 83.4267V75.76H119.303V71.5534L122.217 71.34L122.883 66.2867H127.55V71.3267H132.11V75.7467H127.55V83.36C127.55 85.5167 128.53 86.3834 130.013 86.3834C130.631 86.3627 131.241 86.2411 131.82 86.0233L132.71 90.1133C131.347 90.5683 129.92 90.8013 128.483 90.8034C123.77 90.8 121.903 87.8334 121.903 83.4267Z" fill="white"/>
<path d="M135.82 63.4833H141.457V70.0467L141.203 73.49C142.63 72.1933 144.483 70.8633 147.077 70.8633C151.21 70.8633 152.973 73.78 152.973 78.53V90.3267H147.34V79.2433C147.34 76.5067 146.603 75.65 144.977 75.65C143.56 75.65 142.697 76.3167 141.457 77.4967V90.3267H135.82V63.4833Z" fill="white"/>
<path d="M32.4534 115.487C32.4534 107.197 37.9334 102.39 44.2467 102.39C45.6526 102.402 47.0418 102.696 48.3326 103.253C49.6235 103.81 50.7899 104.619 51.7633 105.633L48.7834 109.257C47.53 108.087 46.1834 107.257 44.3734 107.257C40.9467 107.257 38.2434 110.277 38.2434 115.287C38.2434 120.423 40.6334 123.41 44.2834 123.41C46.3367 123.41 47.9501 122.41 49.1734 121.077L52.1501 124.623C51.1632 125.797 49.9264 126.736 48.5301 127.37C47.1338 128.005 45.6134 128.319 44.0801 128.29C37.7434 128.297 32.4534 123.903 32.4534 115.487Z" fill="white"/>
<path d="M54.6 122.56C54.6 118.56 57.79 116.383 65.31 115.59C65.1967 113.923 64.3667 112.84 62.31 112.84C60.7134 112.84 59.1233 113.507 57.2767 114.56L55.2767 110.86C57.69 109.383 60.41 108.357 63.4 108.357C68.2634 108.357 70.9567 111.133 70.9567 116.963V127.837H66.36L65.9533 125.887H65.8134C64.2134 127.293 62.4167 128.297 60.28 128.297C56.8 128.297 54.6 125.763 54.6 122.56ZM65.31 122.31V118.977C61.31 119.52 59.9967 120.663 59.9967 122.103C59.9967 123.327 60.8401 123.927 62.1767 123.927C63.4534 123.937 64.31 123.307 65.31 122.327V122.31Z" fill="white"/>
<path d="M75.6768 108.817H80.2734L80.68 111.257H80.8201C82.3801 109.687 84.0834 108.357 86.5834 108.357C89.2501 108.357 90.8734 109.51 91.8334 111.557C93.5001 109.813 95.2934 108.357 97.8034 108.357C101.913 108.357 103.753 111.273 103.753 116.023V127.833H98.1167V116.747C98.1167 114.01 97.37 113.153 95.7834 113.153C94.8267 113.153 93.7467 113.75 92.5467 115.003V127.833H86.9101V116.747C86.9101 114.01 86.1634 113.153 84.5767 113.153C83.6334 113.153 82.5368 113.75 81.3401 115.003V127.833H75.7034L75.6768 108.817Z" fill="white"/>
<path d="M108.527 108.817H113.127L113.53 110.687H113.67C115.163 109.353 117.103 108.353 119.087 108.353C123.693 108.353 126.51 112.16 126.51 118.02C126.51 124.547 122.627 128.29 118.51 128.29C116.873 128.29 115.337 127.573 113.973 126.29L114.163 129.29V134.863H108.527V108.817ZM120.737 118.09C120.737 114.677 119.68 112.967 117.43 112.967C116.273 112.967 115.277 113.487 114.163 114.67V122.48C114.99 123.244 116.071 123.673 117.197 123.683C119.163 123.683 120.737 122.027 120.737 118.09Z" fill="white"/>
<path d="M130.313 120.623V108.817H135.947V119.903C135.947 122.64 136.683 123.493 138.31 123.493C139.727 123.493 140.59 122.9 141.69 121.403V108.817H147.327V127.837H142.72L142.313 125.197H142.173C140.587 127.09 138.793 128.297 136.203 128.297C132.077 128.297 130.313 125.377 130.313 120.623Z" fill="white"/>
<path d="M150.583 125.64L153.12 122.13C154.843 123.433 156.433 124.13 158.027 124.13C159.693 124.13 160.43 123.49 160.43 122.493C160.43 121.24 158.543 120.673 156.587 119.907C154.253 119.003 151.553 117.457 151.553 114.313C151.553 110.773 154.43 108.36 158.82 108.36C161.733 108.36 163.903 109.537 165.523 110.77L163 114.153C161.647 113.153 160.313 112.53 159 112.53C157.543 112.53 156.827 113.1 156.827 114.047C156.827 115.26 158.607 115.713 160.58 116.44C162.987 117.333 165.7 118.687 165.7 122.163C165.7 125.64 162.987 128.3 157.89 128.3C155.231 128.224 152.668 127.291 150.583 125.64V125.64Z" fill="white"/>
</svg>
