<?xml version="1.0" encoding="utf-8"?>
<!-- Generator: Adobe Illustrator 25.2.0, SVG Export Plug-In . SVG Version: 6.00 Build 0)  -->
<svg version="1.1" id="Layer_1" xmlns="http://www.w3.org/2000/svg" xmlns:xlink="http://www.w3.org/1999/xlink" x="0px" y="0px"
	 viewBox="0 0 319.1 94.8" style="enable-background:new 0 0 319.1 94.8;" xml:space="preserve">
<style type="text/css">
	.st0{fill:#9FA400;}
</style>
<path class="st0" d="M76.7,48.8h-7.3v-31h7.3v12h10.9v-12h7.3v31h-7.3V35.7H76.7V48.8z M103.1,76.7h-1.9V61.3h1.9v6.6h7.7v-6.6h1.9
	v15.4h-1.9v-7.2h-7.7V76.7z M128.7,77c-5.5,0-6.4-3.7-6.4-8c0-4.5,1.6-8,6.9-8c5.5,0,6.4,3.3,6.4,8C135.6,73.6,134,77,128.7,77z
	 M128.7,62.6c-2.8,0-4.6,2.1-4.6,6.6c0,4.7,1.9,6.2,5.1,6.2c2.4,0,4.5-2,4.5-6.6C133.7,64.4,132.1,62.6,128.7,62.6z M155,63.6
	c-0.7-0.5-1.9-1-3.8-1c-2.8,0-4.6,2.1-4.6,6.6c0,4.7,1.9,6.2,5.1,6.2c1.5,0,3-1,3.5-1.6v-3.5h-4.1v-1.6h6v5.7
	c-0.9,1.1-2.5,2.6-6,2.6c-5.6,0-6.4-3.7-6.4-8c0-4.5,1.6-8,6.9-8c2.3,0,3.6,0.7,4.5,1.2L155,63.6z M167.4,61.3h9.4v1.6h-7.5v4.7h6.1
	v1.6h-6.1v5.8h7.7l0.3,1.6h-9.9V61.3z M186.1,73.9c1,0.6,2.5,1.6,4.8,1.6c2.4,0,3.4-1.2,3.4-2.8c0-1.5-1.2-2.1-3.6-3.1
	c-2.8-1.1-4.5-2.1-4.5-4.4c0-2.6,1.7-4.3,5-4.3c2.3,0,3.9,1,4.6,1.5l-0.8,1.4c-0.6-0.6-1.8-1.3-3.8-1.3c-2.4,0-3.2,1.3-3.2,2.7
	c0,1.2,1.5,2,3.8,2.9c2.4,0.9,4.3,2,4.3,4.5c0,2.8-1.7,4.4-5.2,4.4c-2.8,0-4.5-0.8-5.5-1.6L186.1,73.9z M215.1,63.6
	c-0.8-0.5-1.6-1-3.3-1c-3,0-4.8,2.1-4.8,6.6c0,4.7,1.9,6.2,4.7,6.2c1.5,0,2.9-0.7,3.8-1.6l1.1,1.3c-1.1,1-2.5,1.9-5.1,1.9
	c-5.6,0-6.3-3.7-6.3-8c0-4.5,1.5-8,7-8c1.9,0,3.1,0.6,3.9,1.2L215.1,63.6z M227.5,76.7h-1.9V61.3h1.9v6.6h7.7v-6.6h1.9v15.4h-1.9
	v-7.2h-7.7V76.7z M253.2,77c-5.5,0-6.4-3.7-6.4-8c0-4.5,1.6-8,6.9-8c5.5,0,6.4,3.3,6.4,8C260.1,73.6,258.4,77,253.2,77z M253.2,62.6
	c-2.8,0-4.6,2.1-4.6,6.6c0,4.7,1.9,6.2,5.1,6.2c2.4,0,4.5-2,4.5-6.6C258.2,64.4,256.5,62.6,253.2,62.6z M275.7,77
	c-5.5,0-6.4-3.7-6.4-8c0-4.5,1.6-8,6.9-8c5.5,0,6.4,3.3,6.4,8C282.6,73.6,280.9,77,275.7,77z M275.7,62.6c-2.8,0-4.6,2.1-4.6,6.6
	c0,4.7,1.9,6.2,5.1,6.2c2.4,0,4.5-2,4.5-6.6C280.7,64.4,279,62.6,275.7,62.6z M294.2,75.1h6.8l0.2,1.6h-8.9V61.3h1.9V75.1z
	 M146.3,42.5l-2.3,6.1h-7.9l12.2-31h6.5l11.7,31h-8.1l-2.2-6.1H146.3z M154.6,37l-2.2-5.9c-0.3-0.7-0.8-2.9-1-4.2
	c-0.2,1.7-0.9,3.8-1.3,4.9l-2,5.2H154.6z M194.7,24.9c-1.8-1.3-3.8-2.4-7.6-2.4c-4.2,0-6.9,3.8-6.9,11.1c0,7.4,2.8,10.3,7.8,10.3
	c1.9,0,3.4-1,4.5-2v-5.2h-7.8v-5.4H200v12.2c-2,2.5-5.5,5.8-12.9,5.8c-12.3,0-14.2-7.5-14.2-16.2c0-8.9,3.5-16.2,15-16.2
	c4.7,0,8,1.7,10.3,3.2L194.7,24.9z M209.5,40.5c2.5,1.9,5.9,3.4,10,3.4c3.2,0,4.6-1.7,4.6-3.7c0-2.1-2.1-2.9-5.7-4.2
	c-6.4-2.5-9.8-5-9.8-9.7c0-5.6,3.8-9.4,11.5-9.4c4.9,0,9.1,2,10.9,3.4l-2.8,5c-1.8-1.5-5.4-2.9-8.1-2.9c-3.2,0-4.2,1.5-4.2,3.2
	c0,1.6,1.7,2.4,6,4.2c5.6,2.3,9.4,4.5,9.4,10c0,5.9-4,9.6-12.3,9.6c-5.4,0-9.4-1.5-11.9-3.6L209.5,40.5z M240.9,17.7h21.8v5.5h-14.3
	v6.3h11.6v5.4h-11.6v8.3h14.5l0.8,5.5h-22.7V17.7z M102,48.7h8L121,17.4h-6.7L102,48.7z M120.8,36.9h-3.2l-2,5.7h6.8l2,6h8.4
	l-10.1-26.4l-3.5,10.1L120.8,36.9z M17.8,17.7h6.6c7,0,8.3,3.5,8.3,8.9c0,5.3-2.2,8.9-8.7,8.9h-6.2V17.7z M22,32.1h2.5
	c2.1,0,3.9-1.5,3.9-5.7c0-4-1.4-5.3-4.3-5.3H22V32.1z M39.9,17.7h12.5v3.2h-8.2v3.6h6.7v3.1h-6.7v4.7h8.3l0.5,3.2h-13V17.7z"/>
</svg>
