<?xml version="1.0" encoding="utf-8"?>
<!-- Generator: Adobe Illustrator 25.2.0, SVG Export Plug-In . SVG Version: 6.00 Build 0)  -->
<svg version="1.1" id="Laag_1" xmlns="http://www.w3.org/2000/svg" xmlns:xlink="http://www.w3.org/1999/xlink" x="0px" y="0px"
	 viewBox="0 0 181.4 45.4" style="enable-background:new 0 0 181.4 45.4;" xml:space="preserve">
<style type="text/css">
	.st0{fill:#002169;}
</style>
<g>
	<path class="st0" d="M34.9,41.6c-5,0-7.6-2.5-7.6-7.4c0-4.7,2.9-7.7,7.5-7.7c2.3,0,3.1,0.4,3.8,0.7l0.3,0.1l0,3.2l-1,0
		c-0.5-1.3-1.2-2.5-3.2-2.5c-3.4,0-5.3,2.1-5.3,6c0,3.8,2.1,5.9,5.9,5.9c1.8,0,2.7-0.6,3.3-0.8l0.5,1.2C39,40.4,37.4,41.6,34.9,41.6
		z"/>
	<path class="st0" d="M16.8,18.6h-11c-0.1-0.3-0.1-0.7-0.1-1L7,17.2c0.5-0.1,0.8-0.6,0.8-1.2l0.1-3.1V6.5c0-0.5-0.2-1.1-0.6-1.3
		L6,4.8C6,4.6,6,4.2,6,4h5.4c0.1,0.3,0.1,0.6,0.1,0.9l-1,0.2C10,5.2,9.8,5.3,9.8,5.9v7l0.1,4.2l4-0.1c1.3,0,2.1-1,2.5-2l0.9,0.1
		L16.8,18.6z"/>
	<path class="st0" d="M22.7,0v22.7h22.7V0H22.7z M40.4,5.2c-0.3,0.1-0.6,0.2-0.6,0.8v7c0,4.3-3.2,5.7-5.7,5.7c-2.8,0-5.7-1-5.7-5.2
		V6.4c0-0.5-0.2-0.9-0.6-1.1l-1.3-0.4c0-0.2,0-0.6,0.1-0.8h5.5c0.1,0.3,0.1,0.7,0,0.9L31,5.2c-0.4,0.1-0.5,0.3-0.5,0.7v7.6
		c0,2.9,2,3.9,3.8,3.9c2.2,0,3.8-1.1,3.8-4.4V6.5c0-0.7-0.2-1.1-1.1-1.4L36,4.9c0-0.2,0-0.6,0-0.8h5.4c0.1,0.3,0.1,0.6,0.1,0.9
		L40.4,5.2z"/>
	<path class="st0" d="M0,22.7v22.7h22.7V22.7H0z M19.5,41.1h-4.8c0-0.3-0.1-0.6-0.1-0.9l0.8-0.3c0.6-0.2,0.7-0.7,0.7-1.4
		c0-0.2,0-0.5-0.1-0.8l-0.2-6.7l-0.1-1.1h-0.1l-4,8.5l-1.3,0l-3.5-8.7H6.7l0,1l-0.7,8c-0.1,0.4,0,0.6,0.2,0.6L8,40.2
		c0,0.2,0,0.7-0.1,0.9H3.1C3,40.8,3,40.5,3,40.2l0.7-0.4c0.5-0.3,0.9-0.9,1-1.6l0.9-9c0.1-0.5-0.2-1-0.5-1.1l-1.2-0.4
		c0-0.2,0-0.6,0.1-0.8h3.7l3.5,9h0.2l4.1-9h3.5c0.1,0.3,0.1,0.5,0.1,0.8L18,28.1c-0.5,0.2-0.8,0.7-0.7,1.6l0.7,9.1
		c0.1,0.4,0.4,0.9,0.7,1l0.8,0.4C19.5,40.4,19.5,40.9,19.5,41.1z"/>
</g>
<g>
	<g>
		<path class="st0" d="M125.8,36.5c-3.4,0-5.1-1.7-5.1-4.9c0-3.1,2-5.1,5-5.1c1.5,0,2.1,0.2,2.5,0.5l0.2,0.1l0,2.1l-0.7,0
			c-0.3-0.9-0.8-1.7-2.1-1.7c-2.3,0-3.5,1.4-3.5,4c0,2.6,1.4,4,3.9,4c1.2,0,1.8-0.4,2.2-0.5l0.3,0.8
			C128.6,35.7,127.5,36.5,125.8,36.5z"/>
		<path class="st0" d="M73.6,32.7c0.1,2.5,1.2,2.8,2.8,2.8c0.5,0,1.3-0.1,1.9-0.2l0.2,0.7c-0.5,0.3-1.5,0.6-2.4,0.6
			c-2.4,0-3.7-0.7-3.7-3.8c0-2.3,1.4-4.1,3.4-4.1s2.9,1.4,2.9,3.6v0.4H73.6z M75.7,29.5c-1,0-1.9,0.8-2,2.4h3.6
			C77.2,30.3,76.8,29.5,75.7,29.5z"/>
		<path class="st0" d="M85.6,36.5c-0.7,0-0.7-0.7-0.7-1.1c-0.5,0.7-1.2,1.1-2.2,1.1c-1.4,0-2.9-0.8-2.9-3.6c0-2.6,1.6-4.1,3.6-4.1
			c0.7,0,1.1,0.1,1.5,0.2v-2.1h-1.4v-0.7c0.5-0.1,1.5-0.3,2.1-0.3c0.4,0,0.6,0.1,0.6,0.5v6.3l0.1,2.7h1.4l0.1,0.5
			C87.3,36.1,86.4,36.5,85.6,36.5z M84.9,29.8c-0.4-0.1-0.8-0.2-1.6-0.2c-1.8,0-2.2,1.5-2.2,3.3c0,1.8,0.8,2.4,2.1,2.4
			c0.7,0,1.2-0.2,1.7-0.6l0.1-2.1V29.8z"/>
		<path class="st0" d="M92.5,36.4h-3.9c0-0.2-0.1-0.4,0-0.6l0.9-0.3c0.2-0.1,0.4-0.5,0.4-0.7l0-2.1v-2.9h-1.4V29
			c0.5-0.1,1.5-0.3,2.1-0.3c0.4,0,0.6,0.1,0.6,0.5v3.4l0,2.5c0,0.2,0.1,0.3,0.2,0.3l1.2,0.2C92.6,35.8,92.6,36.2,92.5,36.4z"/>
		<path class="st0" d="M96.1,36.5c-1,0-1.8-0.2-2.4-0.5l0.1-2.2l0.7,0c0,1,0.7,1.8,1.8,1.8c0.9,0,1.6-0.3,1.6-1.1
			c0-0.6-0.5-0.9-1.8-1.4c-1-0.4-2.1-1-2.1-2.4c0-1.5,1.2-2.1,2.7-2.1c0.7,0,1.6,0.2,2.2,0.5L98.6,31l-0.5-0.1
			c-0.1-0.8-0.8-1.4-1.7-1.4c-0.8,0-1.3,0.4-1.3,1c0,0.8,0.8,1.1,1.7,1.5c1.1,0.5,2.3,1,2.3,2.4C99,36,97.5,36.5,96.1,36.5z"/>
		<path class="st0" d="M105.5,30.7c-0.3-0.4-1-1.1-1.8-1.1c-1.5,0-2.2,0.8-2.2,2.9c0,1.7,0.5,2.9,2.6,2.9c0.6,0,1.4-0.2,1.7-0.3
			l0.2,0.7c-0.2,0.2-1.1,0.6-2.3,0.6c-2.7,0-3.5-1.1-3.5-4c0-2,1.4-3.9,3.6-3.9c0.6,0,2.2,0,2.2,0.9
			C106.1,30.1,105.9,30.5,105.5,30.7z"/>
		<path class="st0" d="M116,36.4h-3.4c0-0.2-0.1-0.5,0-0.7l0.6-0.3c0.2-0.1,0.4-0.3,0.4-0.8l0-2v-1.2c0-1.3-0.2-1.7-1.6-1.7
			c-0.9,0-2,0.4-2.4,0.6v2.3l0.1,2.4c0,0.3,0,0.4,0.3,0.4l1.3,0.2c0,0.1,0,0.6-0.1,0.7h-3.9c0-0.2-0.1-0.4,0-0.6l0.6-0.3
			c0.2-0.1,0.5-0.5,0.5-0.9l0-2v-5.8H107v-0.7c0.5-0.1,1.5-0.3,2.1-0.3c0.4,0,0.5,0.1,0.5,0.5v3.4c0.6-0.4,1.5-1,2.9-1
			c2.1,0,2.3,1.1,2.3,2.5v1.4l0,2.6c0,0.2,0.1,0.3,0.3,0.3l1,0.2C116.1,35.8,116.1,36.2,116,36.4z"/>
		<path class="st0" d="M130.9,32.7c0.1,2.5,1.2,2.8,2.8,2.8c0.5,0,1.3-0.1,1.9-0.2l0.2,0.7c-0.5,0.3-1.5,0.6-2.4,0.6
			c-2.4,0-3.7-0.7-3.7-3.8c0-2.3,1.4-4.1,3.4-4.1s2.9,1.4,2.9,3.6v0.4H130.9z M132.9,29.5c-1,0-1.9,0.8-2,2.4h3.6
			C134.5,30.3,134.1,29.5,132.9,29.5z"/>
		<path class="st0" d="M145.9,36.4h-3.3c0-0.2-0.1-0.5,0-0.7l0.4-0.3c0.3-0.2,0.4-0.5,0.4-0.8l0-2.1v-1.2c0-1.3-0.2-1.7-1.6-1.7
			c-0.9,0-1.9,0.4-2.3,0.6v2.3l0,2.5c0,0.2,0,0.3,0.2,0.3l1.2,0.2c0,0.1,0,0.6-0.1,0.7h-3.7c0-0.2-0.1-0.4,0-0.6l0.6-0.3
			c0.3-0.1,0.5-0.6,0.5-0.8l0-2.1v-2.9h-1.4V29c0.5-0.1,1.5-0.3,2.1-0.3c0.4,0,0.5,0.1,0.5,0.5v0.4c0.6-0.4,1.4-1,2.8-1
			c2.1,0,2.3,1.1,2.3,2.5v1.4l0.1,2.7c0,0.2,0,0.2,0.2,0.2l1.1,0.2C145.9,35.8,145.9,36.2,145.9,36.4z"/>
		<path class="st0" d="M151.4,36.3c-0.4,0.2-1.2,0.3-1.6,0.3c-1.8,0-2.5-0.5-2.5-2.2l0-4.6h-1.1v-0.5l2.2-2h0.2v1.6h2.5v0.9h-2.5
			v2.9l0,1.7c0,1,0.4,1.3,1.4,1.3c0.4,0,0.8-0.1,1.2-0.2L151.4,36.3z"/>
		<path class="st0" d="M157.7,30.1c-0.2-0.1-0.4-0.2-0.9-0.2c-0.9,0-1.6,0.2-2,0.6v2.1l0.1,2.5c0,0.2,0,0.3,0.2,0.4l1.4,0.2
			c0,0.1,0,0.6-0.1,0.7h-4c0-0.2-0.1-0.4-0.1-0.6l0.7-0.3c0.2-0.1,0.5-0.5,0.5-1l0-1.8v-2.9h-1.4V29c0.5-0.1,1.5-0.3,2.1-0.3
			c0.4,0,0.5,0.1,0.5,0.5v0.6c0.3-0.6,1.2-1.2,2.2-1.2c0.4,0,0.8,0.1,0.9,0.1L157.7,30.1z"/>
		<path class="st0" d="M167.1,35.9c-0.3,0.2-1.2,0.6-1.9,0.6c-0.5,0-1-0.2-1-1.1c-0.6,0.5-1.3,1.1-2.5,1.1c-2,0-2.2-1-2.2-2.3v-4.5
			h-1.2v-0.7c0.5-0.1,1.3-0.3,2-0.3c0.4,0,0.5,0.1,0.5,0.5v3.3l0,1.3c0,0.9,0.1,1.6,1.2,1.6c0.8,0,1.5-0.5,2.2-1l0.1-1.9v-2.9h-1.4
			v-0.7c0.5-0.1,1.4-0.3,2.1-0.3c0.4,0,0.5,0.1,0.5,0.5v3.4l0,2.7h1.5L167.1,35.9z"/>
		<path class="st0" d="M181.4,36.4H178c-0.1-0.2-0.1-0.5-0.1-0.7l0.5-0.3c0.2-0.1,0.4-0.3,0.4-0.7l0-2.1v-1.2c0-1.3-0.1-1.7-1.5-1.7
			c-0.8,0-1.7,0.3-2.1,0.5c0,0.3,0,0.6,0,1v1.4l0,2.5c0,0.2,0.1,0.3,0.2,0.3l1.2,0.2c0,0.1,0,0.6-0.1,0.7h-3.5
			c0-0.2-0.1-0.5-0.1-0.7l0.5-0.2c0.2-0.1,0.3-0.4,0.3-0.6l0-2.3v-1.2c0-1.3-0.1-1.7-1.5-1.7c-0.9,0-1.8,0.4-2.1,0.6v2.3l0.1,2.4
			c0,0.2,0,0.4,0.2,0.4l1.1,0.2c0,0.1,0,0.6-0.1,0.7h-3.6c-0.1-0.2-0.1-0.4-0.1-0.6l0.6-0.2c0.3-0.1,0.5-0.4,0.5-0.9l0-2.1v-2.9
			h-1.4V29c0.5-0.1,1.5-0.3,2.1-0.3c0.4,0,0.5,0.1,0.5,0.5v0.4c0.6-0.4,1.3-1,2.6-1c1.2,0,1.8,0.4,2,1c0.6-0.4,1.4-1,2.8-1
			c2.1,0,2.2,1.1,2.2,2.5v1.4l0.1,2.5c0,0.3,0,0.3,0.3,0.3l1.1,0.2C181.4,35.8,181.4,36.2,181.4,36.4z"/>
		<circle class="st0" cx="90.5" cy="26.4" r="0.8"/>
		<path class="st0" d="M70.7,35.4c-0.2-0.1-0.5-0.4-0.5-0.7l-0.9-6.3c-0.1-0.6,0.2-1,0.5-1.1l0.7-0.2c0-0.2,0-0.3-0.1-0.5h-2.6
			l-2.7,6.8h-0.1l-2.5-6.8h-2.7c0,0.2-0.1,0.4-0.1,0.6l0.9,0.3c0.3,0.1,0.5,0.5,0.4,0.8l-1,6.2c-0.1,0.4-0.3,0.9-0.7,1.1l-0.5,0.2
			c0,0.2,0,0.4,0.1,0.6h3.6c0.1-0.2,0.1-0.5,0.1-0.7l-1.3-0.4c-0.2,0-0.2-0.2-0.2-0.4l0.9-5.6l0-0.7H62l2.6,7l0.9-0.3l2.6-6.6h0.1
			l0,0.7l0.6,4.6c0,0.2,0,0.4,0,0.5c0,0.5-0.1,0.9-0.5,1l-0.6,0.2c0,0.2,0,0.4,0.1,0.6h3.6c0-0.2,0.1-0.5,0.1-0.6L70.7,35.4z"/>
	</g>
	<path class="st0" d="M66.3,18.5h-7c0-0.2-0.1-0.5-0.1-0.7l0.9-0.2c0.3-0.1,0.5-0.4,0.5-0.8l0-2v-4.3c0-0.3-0.1-0.8-0.4-0.9
		l-0.9-0.3c0-0.1,0-0.4,0.1-0.6h3.6c0,0.2,0.1,0.4,0.1,0.6l-0.7,0.2C62.1,9.7,62,9.7,62,10.1v4.7l0.1,2.8l2.3-0.1
		c0.9,0,1.4-0.6,1.7-1.4l0.6,0.1L66.3,18.5z"/>
	<path class="st0" d="M68.6,14.9c0.1,2.5,1.2,2.7,2.7,2.7c0.5,0,1.3-0.1,1.9-0.2l0.2,0.7c-0.5,0.3-1.5,0.6-2.4,0.6
		c-2.3,0-3.6-0.6-3.6-3.8c0-2.3,1.4-4.1,3.4-4.1c2,0,2.8,1.4,2.8,3.6v0.4H68.6z M70.6,11.7c-1,0-1.9,0.8-2,2.4h3.6
		C72.2,12.5,71.8,11.7,70.6,11.7z"/>
	<path class="st0" d="M74.8,17.9l0.9-0.3c0.2-0.1,0.4-0.5,0.4-0.7l0-2.1v-2.9h-1.4v-0.7c0.5-0.1,1.4-0.3,2.1-0.3
		c0.4,0,0.6,0.1,0.6,0.5v3.4l0,2.5c0,0.2,0.1,0.3,0.2,0.3l1.2,0.2c0,0.1,0,0.6-0.1,0.7h-3.9C74.8,18.3,74.8,18.1,74.8,17.9z"/>
	<path class="st0" d="M85.6,18.6c-0.7,0-0.7-0.6-0.7-1.1c-0.5,0.6-1.2,1.1-2.2,1.1c-1.4,0-2.9-0.8-2.9-3.6c0-2.5,1.6-4.1,3.5-4.1
		c0.7,0,1.1,0.1,1.5,0.2V9h-1.4V8.3C84,8.2,85,8,85.6,8c0.4,0,0.6,0.1,0.6,0.5v6.3l0.1,2.7h1.4l0.1,0.5
		C87.3,18.3,86.4,18.6,85.6,18.6z M84.9,12c-0.4-0.1-0.8-0.2-1.6-0.2c-1.8,0-2.2,1.4-2.2,3.3c0,1.8,0.8,2.3,2.1,2.3
		c0.6,0,1.2-0.2,1.7-0.6l0.1-2.1V12z"/>
	<path class="st0" d="M91,18.7c-1,0-1.8-0.2-2.4-0.5l0.1-2.2l0.6,0c0,1,0.7,1.8,1.8,1.8c0.9,0,1.6-0.3,1.6-1.1
		c0-0.6-0.5-0.9-1.8-1.4c-1-0.4-2.1-1-2.1-2.4c0-1.5,1.2-2.1,2.6-2.1c0.7,0,1.5,0.2,2.2,0.5l-0.2,1.8l-0.5-0.1
		c-0.1-0.8-0.8-1.4-1.7-1.4c-0.8,0-1.3,0.4-1.3,1c0,0.8,0.8,1.1,1.7,1.5c1.1,0.5,2.2,1,2.2,2.3C93.8,18.2,92.4,18.7,91,18.7z"/>
	<path class="st0" d="M107.7,9.6c-0.2,0.1-0.4,0.1-0.4,0.6v4.7c0,2.9-2.1,3.9-3.8,3.9c-1.9,0-3.9-0.7-3.9-3.5v-4.9
		c0-0.3-0.2-0.6-0.4-0.7l-0.9-0.3c0-0.1,0-0.4,0.1-0.6h3.7c0,0.2,0,0.5,0,0.6l-0.8,0.2c-0.3,0.1-0.4,0.2-0.4,0.4v5.1
		c0,2,1.3,2.6,2.6,2.6c1.5,0,2.5-0.8,2.5-3v-4.3c0-0.4-0.1-0.8-0.8-0.9l-0.6-0.2c0-0.1,0-0.4,0-0.6h3.6c0,0.2,0,0.4,0,0.6L107.7,9.6
		z"/>
	<path class="st0" d="M118,18.5h-3.3c0-0.2-0.1-0.5,0-0.7l0.4-0.3c0.3-0.2,0.4-0.5,0.4-0.8l0-2.1v-1.2c0-1.3-0.2-1.7-1.6-1.7
		c-0.9,0-1.9,0.4-2.2,0.6v2.2l0,2.5c0,0.2,0,0.3,0.2,0.3l1.2,0.2c0,0.1,0,0.6-0.1,0.7h-3.7c0-0.2-0.1-0.4,0-0.6l0.6-0.3
		c0.3-0.1,0.5-0.6,0.5-0.8l0-2.1v-2.9h-1.4v-0.7c0.5-0.1,1.4-0.3,2.1-0.3c0.4,0,0.5,0.1,0.5,0.5v0.4c0.6-0.4,1.4-1,2.8-1
		c2.1,0,2.3,1,2.3,2.5v1.4l0.1,2.6c0,0.2,0,0.2,0.2,0.2l1.1,0.2C118.1,18,118.1,18.4,118,18.5z"/>
	<path class="st0" d="M119,17.9l0.9-0.3c0.2-0.1,0.4-0.5,0.4-0.7l0-2.1v-2.9H119v-0.7c0.5-0.1,1.4-0.3,2.1-0.3
		c0.4,0,0.6,0.1,0.6,0.5v3.4l0,2.5c0,0.2,0.1,0.3,0.2,0.3l1.2,0.2c0,0.1,0,0.6-0.1,0.7h-3.9C119,18.3,119,18.1,119,17.9z"/>
	<path class="st0" d="M124.2,12.5c-0.1-0.3-0.4-0.6-0.8-0.9c0-0.2,0-0.4,0-0.6h3c0,0.2,0,0.6-0.1,0.7h-1l1.8,5.4l1.7-4.4
		c0.1-0.1,0.1-0.3,0.1-0.4c0-0.3-0.1-0.5-0.3-0.6l-0.4-0.2c0-0.2,0-0.4,0.1-0.6h2.4c0,0.2,0,0.4,0,0.6c-0.2,0.2-0.5,0.4-0.8,1.1
		l-2.3,5.8l-1,0.3L124.2,12.5z"/>
	<path class="st0" d="M132.6,14.9c0.1,2.5,1.2,2.7,2.7,2.7c0.5,0,1.3-0.1,1.9-0.2l0.2,0.7c-0.5,0.3-1.5,0.6-2.4,0.6
		c-2.3,0-3.6-0.6-3.6-3.8c0-2.3,1.4-4.1,3.4-4.1c2,0,2.8,1.4,2.8,3.6v0.4H132.6z M134.6,11.7c-1,0-1.9,0.8-2,2.4h3.6
		C136.1,12.5,135.8,11.7,134.6,11.7z"/>
	<path class="st0" d="M144,12.3c-0.2-0.1-0.4-0.2-0.9-0.2c-0.9,0-1.6,0.2-2,0.6v2.1l0.1,2.5c0,0.2,0,0.3,0.2,0.4l1.4,0.2
		c0,0.1,0,0.6-0.1,0.7h-3.9c0-0.2-0.1-0.4-0.1-0.6l0.6-0.3c0.2-0.1,0.5-0.5,0.5-1l0-1.8v-2.9h-1.4v-0.7c0.5-0.1,1.4-0.3,2.1-0.3
		c0.4,0,0.5,0.1,0.5,0.5V12c0.3-0.6,1.2-1.1,2.2-1.1c0.4,0,0.8,0.1,0.9,0.1L144,12.3z"/>
	<path class="st0" d="M147.4,18.7c-1,0-1.8-0.2-2.4-0.5l0.1-2.2l0.6,0c0,1,0.7,1.8,1.8,1.8c0.9,0,1.6-0.3,1.6-1.1
		c0-0.6-0.5-0.9-1.8-1.4c-1-0.4-2.1-1-2.1-2.4c0-1.5,1.2-2.1,2.6-2.1c0.7,0,1.5,0.2,2.2,0.5l-0.2,1.8l-0.5-0.1
		c-0.1-0.8-0.8-1.4-1.7-1.4c-0.8,0-1.3,0.4-1.3,1c0,0.8,0.8,1.1,1.7,1.5c1.1,0.5,2.2,1,2.2,2.3C150.2,18.2,148.8,18.7,147.4,18.7z"
		/>
	<path class="st0" d="M151.5,17.9l0.9-0.3c0.2-0.1,0.4-0.5,0.4-0.7l0-2.1v-2.9h-1.4v-0.7c0.5-0.1,1.4-0.3,2.1-0.3
		c0.4,0,0.6,0.1,0.6,0.5v3.4l0,2.5c0,0.2,0.1,0.3,0.2,0.3l1.2,0.2c0,0.1,0,0.6-0.1,0.7h-3.9C151.6,18.3,151.5,18.1,151.5,17.9z"/>
	<path class="st0" d="M161.6,18.4c-0.4,0.2-1.2,0.3-1.6,0.3c-1.8,0-2.5-0.5-2.5-2.2l0-4.6h-1.1v-0.5l2.2-2h0.2V11h2.5v0.9h-2.5v2.9
		l0,1.7c0,1,0.4,1.3,1.4,1.3c0.4,0,0.8-0.1,1.2-0.2L161.6,18.4z"/>
	<path class="st0" d="M167.8,18.6c-1,0-1-0.6-1-1.2c-0.3,0.3-1.3,1.2-2.6,1.2c-1,0-1.8-0.6-1.8-1.8c0-1.5,1.4-2.2,2.6-2.4
		c0.9-0.1,1.8-0.2,1.8-0.2v-1.1c0-1.1-0.6-1.4-1.9-1.4c-0.5,0-1.3,0.1-1.8,0.3l-0.2-0.8c0.7-0.3,1.6-0.5,2.4-0.5c1.1,0,2.7,0,2.7,2
		v1.9l0.1,2.7h1.5l0.1,0.6C169.4,18.3,168.3,18.6,167.8,18.6z M166.8,15.1c0,0-1,0.1-1.7,0.3c-0.9,0.2-1.4,0.7-1.4,1.4
		c0,0.4,0.2,0.8,1,0.8c0.8,0,2.1-0.7,2.1-0.7V15.1z"/>
	<path class="st0" d="M170.4,17.9l0.9-0.3c0.2-0.1,0.4-0.5,0.4-0.7l0-2.1v-2.9h-1.4v-0.7c0.5-0.1,1.4-0.3,2.1-0.3
		c0.4,0,0.6,0.1,0.6,0.5v3.4l0,2.5c0,0.2,0.1,0.3,0.2,0.3l1.2,0.2c0,0.1,0,0.6-0.1,0.7h-3.9C170.4,18.3,170.4,18.1,170.4,17.9z"/>
	<path class="st0" d="M180.7,12.3c-0.2-0.1-0.4-0.2-0.9-0.2c-0.9,0-1.6,0.2-2,0.6v2.1l0.1,2.5c0,0.2,0,0.3,0.2,0.4l1.4,0.2
		c0,0.1,0,0.6-0.1,0.7h-3.9c0-0.2-0.1-0.4-0.1-0.6l0.6-0.3c0.2-0.1,0.5-0.5,0.5-1l0-1.8v-2.9h-1.4v-0.7c0.5-0.1,1.4-0.3,2.1-0.3
		c0.4,0,0.5,0.1,0.5,0.5V12c0.3-0.6,1.2-1.1,2.2-1.1c0.4,0,0.8,0.1,0.9,0.1L180.7,12.3z"/>
	<circle class="st0" cx="76.7" cy="8.7" r="1"/>
	<circle class="st0" cx="121" cy="8.7" r="1"/>
	<circle class="st0" cx="153.5" cy="8.7" r="1"/>
	<circle class="st0" cx="172.4" cy="8.7" r="1"/>
</g>
</svg>
