<?xml version="1.0" encoding="utf-8"?>
<!-- Generator: Adobe Illustrator 25.2.0, SVG Export Plug-In . SVG Version: 6.00 Build 0)  -->
<svg version="1.1" id="Laag_1" xmlns="http://www.w3.org/2000/svg" xmlns:xlink="http://www.w3.org/1999/xlink" x="0px" y="0px"
	 viewBox="0 0 841.9 595.3" style="enable-background:new 0 0 841.9 595.3;" xml:space="preserve">
<style type="text/css">
	.st0{fill:#004F9A;}
	.st1{fill:#00A0DE;}
</style>
<g>
	<g>
		<g>
			<g>
				<path class="st0" d="M143.3,287c2-0.6,3.7-1.5,5-2.8c2.2-2.2,3.4-5.3,3.4-8.9c0-3.6-1.2-6.8-3.5-9c-2.2-2.2-5.3-3.4-8.9-3.4h-11
					c-2.2,0-4.1,1.8-4.1,4v35.3c0,1.8,1.5,3.3,3.3,3.3c1.8,0,3.3-1.5,3.3-3.3v-14.8h5l9.8,16.5c0.6,1,1.6,1.6,2.8,1.6
					c1.7,0,3.3-1.5,3.3-3.2c0-0.5-0.2-1.2-0.5-1.7L143.3,287z M145.1,275.3c0,4.7-3.1,5.7-5.7,5.7H131v-11.8h8.4
					C142.9,269.3,145.1,271.7,145.1,275.3"/>
				<path class="st0" d="M170.5,273.8c-3.5,0-6.6,1.2-8.8,3.4c-2.2,2.2-3.3,5.2-3.3,8.7v7.5c0,3.5,1.1,6.5,3.3,8.7
					c2.2,2.2,5.2,3.4,8.8,3.4c3.2,0,6.3-0.7,9.1-2c1.1-0.5,1.7-1.5,1.7-2.8c0-1.6-1.4-3-3.1-3c-0.5,0-1,0.2-1.3,0.3
					c-2.4,1-4.4,1.5-6.3,1.5c-2,0-3.4-0.7-4.4-1.9c-0.8-1-1.1-2.6-1.1-4.8h13.6c2.2,0,4-1.8,4-4.1v-2.8c0-3.5-1.2-6.5-3.4-8.7
					C177.1,275,174.1,273.8,170.5,273.8 M170.5,279.9c3.7,0,5.6,2.2,5.6,6.8H165C165,282.1,166.9,279.9,170.5,279.9"/>
				<path class="st0" d="M195,262.3c-2,0-3.6,1.6-3.6,3.6c0,2,1.6,3.7,3.6,3.7s3.6-1.6,3.6-3.7C198.6,263.9,197,262.3,195,262.3"/>
				<path class="st0" d="M195,273.8c-1.8,0-3.3,1.5-3.3,3.3v25.1c0,1.8,1.5,3.3,3.3,3.3c1.8,0,3.2-1.4,3.2-3.3v-25.1
					C198.2,275.3,196.8,273.8,195,273.8"/>
				<path class="st0" d="M220.4,273.8c-3.2,0-6.3,0.5-9.3,1.5c-1.7,0.6-2.7,2.1-2.7,3.8v23c0,1.8,1.4,3.3,3.3,3.3
					c1.8,0,3.2-1.5,3.2-3.3v-21.6c1.9-0.5,3.8-0.7,5.6-0.7c3.6,0,5.6,2,5.6,5.5v16.8c0,1.8,1.4,3.3,3.2,3.3c1.8,0,3.3-1.4,3.3-3.3
					v-16.3c0-3.5-1.2-6.5-3.4-8.7C227,275,224,273.8,220.4,273.8"/>
				<path class="st0" d="M245.7,273.8c-1.8,0-3.3,1.5-3.3,3.3v25.1c0,1.8,1.5,3.3,3.3,3.3c1.8,0,3.2-1.4,3.2-3.3v-25.1
					C248.9,275.3,247.5,273.8,245.7,273.8"/>
				<path class="st0" d="M245.7,262.3c-2,0-3.6,1.6-3.6,3.6c0,2,1.6,3.7,3.6,3.7c2,0,3.6-1.6,3.6-3.7
					C249.3,263.9,247.7,262.3,245.7,262.3"/>
				<path class="st0" d="M270,273.8c-3.5,0-6.5,1.2-8.7,3.4c-2.2,2.2-3.3,5.2-3.3,8.7v7.5c0,3.5,1.1,6.5,3.3,8.7
					c2.2,2.2,5.2,3.4,8.7,3.4c3.2,0,6.3-0.7,9.1-2c1.1-0.5,1.6-1.5,1.6-2.8c0-1.6-1.4-3-3.1-3c-0.5,0-1,0.2-1.3,0.3
					c-2.3,1-4.4,1.5-6.3,1.5c-1.9,0-3.4-0.7-4.4-1.9c-0.8-1-1.1-2.6-1.1-4.8h13.6c2.2,0,4.1-1.8,4.1-4.1v-2.8c0-3.5-1.2-6.5-3.4-8.7
					C276.6,275,273.6,273.8,270,273.8 M270,279.9c3.7,0,5.6,2.2,5.6,6.8h-11.2C264.5,282.1,266.3,279.9,270,279.9"/>
				<path class="st0" d="M304.3,274.3c-1.7-0.3-3.1-0.5-4.5-0.5c-5.2,0-9,3.9-9,9v19.4c0,1.8,1.4,3.3,3.3,3.3c1.8,0,3.2-1.5,3.2-3.3
					v-19.8c0-1.4,1.2-2.5,2.5-2.5c0.9,0,1.9,0.2,2.9,0.5c0.5,0.1,0.7,0.1,1.1,0.1c1.8,0,3.1-1.3,3.1-3.1
					C306.9,275.9,305.9,274.6,304.3,274.3"/>
				<path class="st0" d="M348,262.3c-1.8,0-3.2,1.4-3.2,3.3v9.7c-1.8-0.9-3.9-1.4-5.6-1.4c-3.6,0-6.6,1.1-8.8,3.3
					c-2.1,2.1-3.3,5.1-3.3,8.7v7.5c0,3.5,1.1,6.6,3.3,8.7c2.2,2.2,5.2,3.4,8.8,3.4c3.1,0,6.3-0.5,9.4-1.5c1.7-0.6,2.7-2.1,2.7-3.8
					v-34.5C351.2,263.8,349.8,262.3,348,262.3 M333.5,285.4c0-3.5,2.1-5.5,5.6-5.5c2.1,0,4.1,0.7,5.6,2v16.8
					c-1.7,0.5-3.6,0.7-5.6,0.7c-3.5,0-5.6-2-5.6-5.5V285.4z"/>
				<path class="st0" d="M372,273.8c-3.5,0-6.5,1.2-8.8,3.4c-2.2,2.2-3.3,5.2-3.3,8.7v7.5c0,3.5,1.1,6.6,3.3,8.7
					c2.2,2.2,5.2,3.4,8.8,3.4c3.2,0,6.3-0.7,9.1-2c1.1-0.5,1.6-1.5,1.6-2.8c0-1.6-1.4-3-3.1-3c-0.5,0-0.9,0.2-1.3,0.3
					c-2.3,1-4.4,1.5-6.3,1.5c-1.9,0-3.4-0.7-4.4-1.9c-0.8-1-1.1-2.6-1.1-4.8H380c2.2,0,4.1-1.8,4.1-4.1v-2.8c0-3.5-1.2-6.5-3.4-8.7
					C378.6,275,375.5,273.8,372,273.8 M372,279.9c3.7,0,5.6,2.2,5.6,6.8h-11.2C366.4,282.1,368.3,279.9,372,279.9"/>
				<path class="st0" d="M430.2,281.2H422c-1.8,0-3.2,1.5-3.2,3.2c0,1.8,1.4,3.2,3.2,3.2h5.6v10.6c-2.1,0.7-4.3,1-6.4,1
					c-5.6,0-8.8-3.3-8.8-9.1v-12.6c0-5.7,3.3-9.1,8.8-9.1c2.3,0,5,1,6.5,1.9c0.5,0.3,1.1,0.5,1.7,0.5c1.8,0,3.3-1.3,3.3-3.1
					c0-1.2-0.6-2.3-1.6-2.9c-2.7-1.6-6.6-2.7-10-2.7c-9.3,0-15.5,6.3-15.5,15.6v12c0,9.3,6.2,15.6,15.5,15.6c3.7,0,7.8-0.8,10.7-2.1
					c1.4-0.6,2.4-2.1,2.4-3.7v-14.5C434.3,283,432.4,281.2,430.2,281.2"/>
				<path class="st0" d="M456.8,274.3c-1.7-0.3-3.1-0.5-4.5-0.5c-5.2,0-9,3.9-9,9v19.4c0,1.8,1.4,3.3,3.3,3.3c1.8,0,3.2-1.5,3.2-3.3
					v-19.8c0-1.4,1.2-2.5,2.5-2.5c0.9,0,1.9,0.2,2.9,0.5c0.5,0.1,0.7,0.1,1.1,0.1c1.8,0,3.1-1.3,3.1-3.1
					C459.3,275.9,458.3,274.6,456.8,274.3"/>
				<path class="st0" d="M477.2,273.8c-4.6,0-7.3,0.6-10.4,2.4c-1,0.6-1.6,1.7-1.6,2.9c0,1.6,1.4,2.9,3.1,2.9c0.5,0,1.2-0.2,1.8-0.6
					c2-1.2,3.5-1.6,6.3-1.6c2.8,0,4.7,1.7,4.7,4.3v1.9h-5.9c-3.6,0-6.5,0.9-8.6,2.7c-2.1,1.7-3.2,4.1-3.2,7c0,3,1.1,5.4,3.2,7.2
					c2.1,1.8,5,2.7,8.6,2.7c3.3,0,6.8-0.6,9.7-1.5c1.7-0.6,2.7-2.1,2.7-3.8v-16C487.7,279.2,484.4,273.8,477.2,273.8 M475.3,292h5.9
					v6.7c-1.9,0.5-4,0.7-5.9,0.7c-4.3,0-5.2-2.1-5.2-3.8C470,294,470.9,292,475.3,292"/>
				<path class="st0" d="M509.3,273.8c-4.6,0-7.3,0.6-10.4,2.4c-1,0.6-1.6,1.6-1.6,2.9c0,1.6,1.4,2.9,3.1,2.9c0.5,0,1.2-0.2,1.8-0.6
					c2-1.2,3.5-1.6,6.3-1.6c2.8,0,4.7,1.7,4.7,4.3v1.9h-5.9c-3.7,0-6.5,0.9-8.6,2.7c-2.1,1.7-3.2,4.1-3.2,7c0,3,1.1,5.4,3.2,7.2
					c2.1,1.8,5,2.7,8.6,2.7c3.3,0,6.7-0.6,9.7-1.5c1.7-0.6,2.7-2.1,2.7-3.8v-16C519.8,279.2,516.5,273.8,509.3,273.8 M507.4,292h5.9
					v6.7c-1.9,0.5-4,0.7-5.9,0.7c-4.4,0-5.3-2.1-5.3-3.8C502.1,294,503,292,507.4,292"/>
				<path class="st0" d="M541.4,274.4h-5.6v-3.6c0-1.3,1.2-2.5,2.5-2.5c1.3,0,1.9,0.1,2.3,0.2c0.3,0.1,0.5,0.1,0.8,0.1
					c1.8,0,3.2-1.3,3.2-3c0-1.6-1.1-2.9-2.7-3.2c-1.3-0.2-2.5-0.3-3.6-0.3c-5,0-9,4.1-9,9v30.9c0,1.8,1.4,3.3,3.3,3.3
					c1.8,0,3.2-1.5,3.2-3.3v-21.6h5.6c1.8,0,3.2-1.3,3.2-3.1C544.6,275.8,543.2,274.4,541.4,274.4"/>
				<path class="st0" d="M714,289.6l-2,1.6c0.7,1,0.9,1.9,0.8,2.7c-0.5,2.6-6.6,5.7-21.9,5.7c-8.5,0-18.4-1-28.5-2.9
					c-21.7-4-40.5-11.5-44.8-17.9c-0.7-1-0.9-1.9-0.8-2.7c0.5-2.6,6.6-5.7,21.9-5.7c8.5,0,18.4,1,28.5,2.9c3.5,0.7,7.1,1.4,10.5,2.3
					l0.6-2.5c-6.5-1.8-13.6-3.4-20.9-4.7c-12.4-2.2-24.6-3.3-35.1-3.3c-10.6,0-28.6,1.2-30,9.3c-0.3,1.7,0.2,3.4,1.4,5.2
					c5.9,8.4,29.6,17.7,57.7,22.6c12.4,2.2,24.5,3.3,35.1,3.3l0,0c10.6,0,28.6-1.2,30-9.3C717,294.1,716.1,291.9,714,289.6"/>
			</g>
			<g>
				<path class="st1" d="M719.1,244.4c-1.5-2.5-4.5-3.7-9.2-3.7c-12.5,0-35.6,9.2-58.8,23.5c-4.9,3-9.7,6.2-14.4,9.5l-1.4,1l2.5,2
					l0.8-0.5c1.4-1,2.8-1.9,4.3-2.9c18.5-12,37.2-20.1,46.6-20.1c1.7,0,3.9,0.3,4.8,1.6c1.4,2.2-0.6,8.1-10.5,18.1
					c-6.9,6.9-16.5,14.5-27,21.3c-18.5,12-37.2,20.1-46.6,20.1c-1.7,0-3.9-0.3-4.8-1.6c-0.9-1.4-0.4-3.8,1.5-7l0.3-0.6l-1.4-3.1
					l-1.3,2c-3.4,5.4-4.3,9.6-2.5,12.5c1.5,2.5,4.5,3.7,9.2,3.7c12.5,0,35.6-9.2,58.8-23.5c14.5-8.9,27.5-18.9,36.6-28
					C717.5,257.8,722,249.2,719.1,244.4"/>
			</g>
		</g>
	</g>
</g>
<g>
	<path class="st1" d="M139.6,323l0.3-1.1c0-0.2-0.2-0.3-0.2-0.4c0,0,0.2-0.2,0.2-0.2c0-0.1,0-0.3,0-0.4v-0.1c0,0,0,0,0,0
		c0-0.2,0.4-0.3,0.6-0.3c0.3,0,0.6,0,0.8,0.1c0.2,0.2,0.3,0.7,0.3,1.1c0,0.2-0.1,1.2-0.1,1.4l0.1-0.3l-0.2,0.6l-0.1,0.7l-0.2,0.5
		v0.4v0.3v0.5l-0.7,1.7l0,0.6c0,0,0,0.4,0,0.5c0,0.1-0.1,0.1-0.1,0.4v0.1c-0.3,0.4-0.4,1.9-0.7,2.5c0,0.1-0.2,0.3-0.2,0.3l-0.3,1.8
		c0,0.1,0-0.3,0-0.3c0,0.5-0.3,0.6-0.3,1.2v0.1c0,0.3-0.4,1.1-0.7,1.5v0.2c0,0.7-0.4,0.9-0.4,1.5c0,0,0,0.1,0,0.2
		c-0.5,0.7-0.4,1.8-0.7,2.4c-0.1,0.1-0.3,0.1-0.3,0.4c0,0.1-0.2,0.6-0.2,0.6c0,0.1,0,0.2,0,0.3c0,0.1-0.1,0.2-0.2,0.4v0.1
		c0,0.3-0.3,1.2-0.8,1.8c0,0.1,0,0.1,0,0.2c0,0.4-1,3.2-1.1,3.4c0,0.1-0.1,0-0.1,0.1v0.1c0,0-0.3,0.7-0.4,1.2c-0.6,0-0.7,0.7-1,0.7
		c-0.1,0-0.2-0.1-0.4-0.1c-0.4,0-0.6,0.4-0.9,0.4c-0.7,0-0.4-0.4-0.9-0.4c0,0-0.2-0.1-0.6-0.4c-0.1-0.2-0.4-0.3-0.4-0.4
		c0,0,0-0.1,0-0.2c-1.3-0.4-1.9-1.6-2.5-1.9c0,0,0-0.1,0-0.2c0-0.2-0.8-1.6-1.2-1.7c0-0.1,0-0.1,0-0.1c0-0.4-0.5-0.8-0.7-1.2
		c-0.1-0.3-0.1-0.6-0.2-1c-0.1-0.3-0.3-0.1-0.3-0.6c0-0.1,0-0.3,0-0.4c0-0.5-0.3-1-0.3-1s0-0.1,0-0.4c0-0.1-0.1-0.3-0.1-0.5v-0.1
		c0.1,0,0.3-1.1,0.4-1.1v-0.1c0-0.3-0.1-0.3-0.1-0.4c0-0.2,0.7-1.6,1.1-1.9c0,0,0-0.1,0-0.1c0-0.3,0.2-0.4,0.4-0.4
		c0.3,0,0.4,0.2,0.4,0.4c0,0.6-0.5,0.9-0.5,1.3c0,0.1,0,0.2,0.1,0.3c-0.4,0-0.4,0.4-0.4,0.7c0,0.2,0.3,0.6,0.3,0.7
		c0,0-0.1,0-0.1,0.1c0,0.3,0.2,0.3,0.3,0.7c0,0,0.1,0,0.1,0.1c0,0.1-0.1,0-0.1,0.1c0,0.2,0.2,0.4,0.2,0.7c0,0-0.1,0-0.1,0.1
		c0,0,0.1,0.1,0.2,0.4c0,0.3-0.2,0.3-0.2,0.7c0.1,0.1,0.1,0.2,0.1,0.4c0,0.3,0.6,0.1,0.7,0.3v0.1c0,0.4,0.2,0.5,0.2,0.7
		c0,0.1,0,0.1,0,0.3c0,0,0.5,0.4,0.5,0.6c0,0.1,0,0.1,0,0.3c0,0,0.8,0.8,0.8,0.8c0.1,0.4,0.2,1.2,0.6,1.2h0.2c0,0,0,0,0,0.1v0.1
		c0,0,0,0,0.1,0c0.1,0,0.2-0.2,0.4-0.2c0,0,0.4,0.8,0.7,0.8h0.1c0,0.1,0.6,0.4,0.8,0.4c0.1,0,0.2-0.1,0.3-0.1c0.1,0,0.2,0,0.2,0
		c0.6,0,1-1.9,1-1.4V346c0-0.1,0.3-0.3,0.3-0.6c0,0,0-0.1,0-0.1c0,0,0.4-0.9,0.5-0.9v-0.2c0-0.5,0.4-0.8,0.4-1.2c0,0,0-0.1,0-0.1
		c0-0.3,0.4-0.3,0.4-0.7v-0.3c0,0,0.1-0.1,0.1-0.4v-0.1c0.3-0.5,0.3-1.2,0.7-1.7c0-0.1,0.2-0.3,0.2-0.4v-0.1
		c0.1-0.1,0.5-1.7,0.5-1.6c0-0.1,0-0.2,0-0.3c0-0.3,0.4-1.1,0.6-1.9c0.2-0.2,0.3-1.2,0.7-2c0,0,0.2-0.1,0.2-0.3
		c0.1-0.1,0.2-2.2,0.6-2.3c-0.1-0.1-0.1-0.1-0.1-0.2c0-0.3,0.3-1.4,0.4-1.6c0.1-0.2,0-0.4,0.1-0.9c0-0.3,0.1-0.5,0.1-0.8
		c0.1-0.2,0.4-1.8,0.4-2.2c0-0.1,0.3-0.4,0.3-0.7"/>
	<path class="st1" d="M141.6,341.3c0-0.2,0-0.7,0-0.9l0.2-1.3c0-0.4,0.2-0.6,0.3-1v-0.4c0,0,0.3-0.6,0.8-1.6c0,0,0-0.1,0-0.1
		s0,0,0.1,0h0.1c0,0,0-0.1,0-0.1c0-0.1,0.1-0.1,0.1-0.1c0,0,0-0.1,0-0.1c0-0.1,0.3-0.2,0.4-0.6c0.9-1.8,1.1-1.5,2.3-2.6
		c0.2-0.1,0.4-0.4,0.5-0.4c0.1,0,0.3-0.3,0.5-0.3c0-0.1,0.2-0.2,0.4-0.2h0.3c0.1,0,0.4,0,0.4-0.1c0,0,0.3,0.2,0.5,0.2
		c0.1,0,0.2-0.1,0.4-0.1c0.2,0,0.7,0.6,0.7,0.5h0.1c0.2,0,0.4,0.2,0.4,0.2c0.1,0,0.1-0.1,0.1-0.1c0,0,1.3,0.9,1.2,1.6
		c0,0.3-0.1,0.4-0.2,0.4c0,0-0.1,0.5-0.1,0.4v0.1c0,0.2-0.1,0.2-0.1,0.4c0,0,0,0.1,0,0.1c-0.6,0-0.7,0.3-0.7,0.3c-0.1,0-0.1,0-0.1,0
		c-0.6,0.4-0.9,1-1.2,1c0,0-0.1,0-0.1,0c0,0.2-0.1,0.3-0.3,0.3h-0.1c-0.3,0.3-0.4,0.7-0.7,1c-0.2,0.2-0.7,0.1-0.7,0.5
		c0,0,0,0.1,0,0.1c-0.6,0-1.7,1.2-1.7,1.2v0.2H145c0,0-0.3,0.1-0.4,0.2v0.1c0,0.1-0.4,0.1-0.4,0.4v0.1c-0.3,0.1-0.8-0.2-0.9,0
		c0,0.2,0.1,0.4,0.1,0.6c0,0-0.1,0.2-0.1,0.3c0,0.2,0.3,0.1,0.3,0.4c0,0.1,0,0.3-0.1,0.4l0.3,0.4c0,0.1,0,0.2,0,0.3
		c0,0.1,0.2,0.1,0.2,0.3v0.1c0.2,0.4,1,0.6,1.7,0.6c1.5,0,1.5-0.9,2.5-1c0.2-0.1,0.3-0.3,0.4-0.5h0.1c0.6,0,0.5-0.6,1.1-0.6
		c0,0,0,0,0-0.1c0-0.2,0.2-0.1,0.2-0.3c0-0.1,0.4-0.4,0.4-0.4c0.1-0.4,0.7-0.7,0.6-0.7c0,0,0-0.1,0-0.1c0-0.1,0.4-1,0.9-1
		c0.4,0,0.3,0.6,0.1,1.3c0,0.1-0.1,0.3,0,0.3c-0.4,0.4-1,1.9-1.6,2.1c-0.9,0.7-1.2,0.9-1.2,1.2c0,0-0.6,0.3-0.6,0.4
		c-0.8,0.2-1.5,0.9-1.5,0.9c-0.3,0-0.8,0.3-1.2,0.3c-0.1,0-0.2,0-0.3-0.2c-0.1,0.1-0.2,0.2-0.2,0.3c-0.1-0.1-0.6-0.2-0.6-0.2
		c-0.1,0-0.1,0.1-0.2,0.1c0,0,0-0.1-0.1-0.1h-0.1c-0.9-0.5-0.9,0.1-1.6-0.8c-0.1-0.1-0.3-0.1-0.3-0.3c0-0.1,0.1-0.1,0.1-0.2
		c0-0.1-0.4-0.2-0.4-0.6c-0.2-0.1-0.1-0.6-0.4-0.7c-0.1-0.1,0.1-0.7-0.1-0.7C141.6,342,141.6,341.3,141.6,341.3z M147.1,333.1
		c0,0-0.1,0-0.2,0c-0.4,0.4-0.8,1-1.3,1.6v0.2c-0.1,1-1,0.4-1,1.1c0,0.2,0,0.3,0,0.5c0,0.2-0.2,0.2-0.2,0.3c0,0,0,0.1,0,0.1
		c-0.2,0.1-0.8,1-0.8,1.1c0,0,0,0.4,0.1,0.4c0.7,0,1.5-1.5,2.4-1.7c0.1-0.2,0.2-0.4,0.3-0.7c0.1,0,0.1,0,0.1,0
		c0.7,0,0.6-0.8,1.3-0.8c0,0,0,0,0-0.1c0.1-1,1.1-0.5,1.2-1.5c0-0.3,0-1-0.4-1c-0.6,0-1.2,0.1-1.4,0.3
		C147.2,333,147.3,333.1,147.1,333.1z"/>
	<path class="st1" d="M167.2,344.5c0.2,0,0.5-0.1,0.6-0.1c0,0,0,0.1,0.1,0.1c0.1,0,0.3-0.1,0.7-0.1c0,0,0.1,0,0.1,0
		c0.1,0,0.3-0.2,0.4-0.2c0,0.1,0.1,0.1,0.1,0.1c0.5,0,1-0.2,1.5-0.3c0.6,0,1.2-0.2,1.7-0.1h0.1c0,0,0-0.1,0.1-0.1
		c0.1,0,0.3,0,0.5,0.1c0.3,0,0.6-0.2,0.9-0.2l0.3,0.1c0-0.1,0.1-0.2,0.2-0.1c0.1,0,0,0.1,0.1,0.1c0,0,0.6-0.1,0.8-0.1
		c0.3,0,0.7,0.1,0.7,0.1c0.3,0,0.4-0.1,0.8-0.2c1.3,0,2.8,0.4,2.8,1.1c0,1.1-0.9,1.2-1,1.5c-0.2-0.1-0.1-0.6-0.5-0.6
		c-0.1,0-0.1,0.1-0.2,0.1c-0.1,0-0.1-0.2-0.2-0.3c0,0-0.1,0-0.1,0c-0.2,0-0.4-0.1-0.5-0.2c-0.1,0-0.3,0.1-0.5,0
		c-0.3,0-0.6-0.1-0.8-0.2c-0.3,0.1-0.3,0.3-0.6,0.3c-0.1,0-0.2,0-0.3,0c-0.2,0-0.4,0.1-0.7,0.1c-0.2,0-0.4-0.1-0.4-0.1
		c-0.1,0-0.1,0.1-0.1,0.1c-0.2,0-0.3-0.1-0.4-0.1c-0.3,0-0.8,0.3-0.6,0.2H173c0,0-0.1,0.1-0.3,0.1l-0.6-0.1c0,0,0,0.2,0,0.2
		c0,0-0.2-0.2-0.4-0.1c-0.2,0-0.8,0-1.1,0.1c-0.3,0.1-0.6,0.3-0.8,0.3h-0.3c-0.1,0-0.2,0.1-0.2,0.1c0,0,0-0.1-0.2-0.1
		c-0.4,0-0.3,0.2-0.6,0.2l-0.3,0c-0.4,0-0.7,0.1-1.5,0.1c-0.2,0-0.6,0-0.7-0.2h0c-0.1-0.1-0.1,0.1-0.2,0.1c0,0,0,0-0.1-0.1
		c-0.3,0,0,0.4-0.7,0.4c-0.4,0-0.6-0.1-1.2-0.7c0,0-0.3-0.4-0.3-0.7c0-1,1-0.7,1.5-0.9c0.2,0,0.4-0.3,0.7-0.3h0.2
		c0.2,0,0.1-0.3,0.3-0.4c0.6,0,1.3-0.6,1.2-0.6c0.3,0,0.4-0.4,0.7-0.4h0.2c0.1-0.1,0-0.2,0.3-0.3c0.6,0,0.9-0.5,1.2-0.7
		c0.4-0.3,0.7-0.5,0.9-0.5c0.5-0.6,1.4-0.7,1.8-1.3c0.9-0.1,0.6-0.4,0.8-0.7c0.6-0.1,1.1-0.7,1.1-0.7c0,0,0-0.2,0.1-0.2l0.1,0.1h0
		v-0.1c0,0,0.1-0.3,0.2-0.3c0.4-0.3,1.2-1.3,1.3-1.6c0-0.1,0.1-0.1,0.1-0.2v-0.1c0.1-0.1,0.1-0.1,0.1-0.3l0,0c0-0.1,0.2-0.2,0.2-0.4
		c0-0.6-0.9-0.7-0.9-0.8l-0.1,0h-0.2c-0.1,0-0.1,0-0.1-0.1c-0.3,0.1-0.4,0.2-0.6,0.3c-0.1,0-0.1-0.1-0.3,0c-0.3,0-0.2,0.1-0.6,0.1
		c-0.1,0-0.1,0-0.2,0c-0.1,0-0.2,0.1-0.4,0.1c-0.1,0-0.3,0-0.5,0c-0.1,0-0.1,0.1-0.1,0.1c-0.1,0,0-0.1,0-0.1c0,0-0.1,0.1-0.2,0.1
		c-0.2,0-0.5-0.1-0.8-0.2c-0.1,0-0.1,0.1-0.1,0.1c0,0.1,0,0.2,0,0.3c0,0.1,0,0.1-0.1,0.2l-0.2-0.1c-0.4,0-0.8,0.3-1,0.3
		c0,0,0,0-0.1-0.1c-0.2,0.1-0.6,0.4-0.7,0.4c-0.1,0-0.2-0.1-0.3-0.1c0,0-0.1,0-0.1,0c-0.1,0.1-0.5,0-0.6,0.2
		c-0.4-0.4-2.2,0.2-2.2-1.3c0-0.1,0.1-0.2,0.1-0.3v-0.1c0.1,0,0.3,0,0.2-0.2v-0.1h0.1c0.4,0,0.9-0.1,1.3-0.1h0.1
		c0.1,0,0.1-0.1,0.4-0.1c0.4-0.1,0.9-0.1,1.3-0.1c0.2-0.1,0.4-0.3,0.8-0.3c0,0,0,0,0.1,0c0,0,0.1,0,0.1,0c0-0.1,1-0.3,1-0.3
		c0.7-0.1,0.9-0.1,2.3-0.2c0.1,0,0.1-0.1,0.3-0.2c0.1,0,0.3,0.1,0.3,0.1c0,0,0.1-0.1,0.3-0.1c0.4,0.1,1.2,0,1.6,0.2
		c0.3,0,0.7,0.6,1.4,0.6c0.1,0.3,0.3,0.5,0.3,1.2c0,0-0.1,0-0.1,0.1c0,0.1,0.1,0.1,0.1,0.3l0,0.1h0c0,0-0.1,0-0.1,0
		c0,0,0.1,0,0.1,0.1c0,0.6-0.5,1.2-0.5,1.2c0,0.2-0.3,0.7-0.7,0.8c-0.1,1-0.7,1.3-0.7,1.3c-0.5,0.4-1.4,1.1-1.5,1.5h-0.1
		c-0.6,0-0.8,0.9-1.3,0.9c-0.3,0-1,0.7-1.1,0.7c-0.1,0-0.2,0.3-0.4,0.3h-0.1c-0.1,0-0.1,0.1-0.1,0.1c-0.2,0.1-0.6,0.4-0.7,0.4h-0.1
		c-0.1,0-0.1,0.2-0.1,0.2h-0.1c0,0-0.1,0-0.1,0s0,0,0,0.1v0h-0.1c-0.1,0-0.5,0.4-0.6,0.4h-0.1c-0.1,0-0.1,0.3-0.2,0.3
		c-1.5,0.3-0.9,0.9-1.2,0.8c-0.1,0-0.1-0.1-0.2-0.1c-0.1,0-0.4,0.2-0.4,0.4C167.1,344.5,167.2,344.5,167.2,344.5z"/>
	<path class="st1" d="M186,343.5c0.8-0.3,0.3-0.3,1.2-0.9c0.6-0.4,1.2-0.7,1.8-1.3h0.1c0.1,0,0.1-0.1,0.1-0.2
		c0.4-0.2,0.4,0.1,0.8-0.6h0.1c0.2,0,0-0.4,0.3-0.4c0.1,0,0.1,0,0.1,0.1c0.7-0.4,1.3-1.2,1.6-1.2c0.2-0.1,0.4-0.4,0.6-0.6
		c0.1-0.1,0.8-0.5,0.7-0.5h0.1c0-0.1,0-0.1,0-0.1c0-0.1,1-1.1,1.4-1.3v-0.1c0-0.3,0.3,0.1,0.3-0.1l0.4,0.1c-0.1,0.1-0.1,0.7-0.3,0.7
		c-0.1,0.1-0.1,0-0.2,0c0,0-0.1,0.1-0.1,0.1c-0.1,0.1,0.2,0.4-0.1,0.6c-0.2,0.1-0.4,0.1-0.4,0.2c0,0-0.6,0.7-0.8,1
		c-0.4,0.5-1.1,0.9-1.1,0.9c-0.3,0-0.5,0.5-0.6,0.8c-0.1,0.1-0.6,0.3-0.5,0.3h-0.1c-0.3,0.4-0.5,0.4-0.9,0.8v0.1
		c0,0.1-0.4,0.1-0.4,0.2v0.1c-0.1,0.2-0.7,0.2-0.7,0.5c-0.1,0.2-0.6,0.4-0.6,0.4c-0.8,0.4-1.6,1.2-1.5,1.1c-0.1,0.1-0.1,0.1-0.1,0.1
		v0c-0.2,0-0.3,0.1-0.5,0.1c-0.1,0-0.1,0.2-0.2,0.1c-0.5,0.4-0.3,0.1-0.7,0.4v0.1c-0.3,0-1.4,1.1-2,1c-0.3,0-0.4,0.2-0.4,0.2
		c0,0-0.1,0-0.2,0c-0.1-0.1-0.1,0.1-0.5,0.1c-0.4,0-0.6-0.5-1.1-0.7c0-0.3-0.2-0.6-0.2-0.7v-0.1c0-0.1-0.1-0.1-0.1-0.2
		c0-0.1,0.1-0.1,0.1-0.3c0-0.1-0.1-0.4-0.1-0.4c0-0.1,0.1-0.1,0.1-0.3c0,0,0,0,0-0.1c0-0.1,0.2-0.6,0-0.8c0.1-0.2,0-0.8,0.2-0.9
		c0.1,0,0.1-0.1,0.1-0.1c0-0.1,0-0.1,0-0.3c0-0.2,0.1-0.2,0.1-0.5v-0.2c0.1-0.3,0.3-0.6,0.4-1.1c0-0.1,0-0.2,0-0.3
		c0.1-0.2,0.2-0.3,0.4-0.4c0.2-0.9,0.1-1.8,0.8-2.3c0-0.2-0.1-0.3-0.1-0.4c0-0.2,0.5-0.9,0.5-1.3c0-0.1,0.1-0.1,0-0.3
		c0-0.1,0-0.2,0.1-0.4c0,0,0.3-0.6,0.2-0.6c0-0.1-0.3-0.4-0.2-0.5c0.1-0.1,0.1-0.8,0.1-0.8c0-0.2-0.1-0.3,0-0.5c0,0,0,0,0.1,0
		c0.1,0,0.3-0.3,0.4-0.3h0.1c0.1,0,0-0.1,0.1-0.1h0.3c0.5,0,0.8,0.2,0.6,0.9c0.2,0.3,0.5,0.9,0.8,1.1c0,0.2,0,0.6,0,0.9
		c-0.1,0.2-0.2,0.4-0.3,0.4c0,0.1,0,0.3,0,0.5c0,0.2-0.1,0.6-0.4,0.8l0,0c0,0,0.1,0.1,0,0.2c0,0.1,0,0,0,0.1c-0.1,0.2-0.4,0.8-0.6,1
		c-0.2,1-0.4,1.8-1,2.3c0,0.2,0.6,0.9,0,0.9c-0.1,0-0.2,0.4-0.3,0.4c-0.1,0.1,0,0.2-0.1,0.2h0c0,0.3,0,0.6-0.1,0.9
		c-0.1,0.4-0.1,0.9-0.3,1.5c0,0.3-0.1,0.1-0.2,0.5c0,0.3,0.1,0.4,0.3,0.7c0.1-0.1,0.4,0.1,0.4-0.1l0.3,0.1c0.7-0.4,0.7-0.7,1.1-0.7
		C185.2,343.8,186.1,343.5,186,343.5z M191.3,322.9c-0.1,0.2-0.3,0.1-0.3,0.4c0,0.1,0.3,0.1,0.3,0.3c0,0.1-0.1,0.1-0.2,0.3v0.2
		c0,0.3-0.3,0.4-0.5,0.7c-0.4,0-1,0.1-1.1-0.3h-0.3c-0.1,0,0-0.1-0.1-0.1c-0.1-0.1-0.2,0-0.3-0.1c-0.1,0-0.1-0.2-0.1-0.2
		c-0.4-0.3-0.3-0.5-0.3-1c0,0,0.4-0.6,0.6-0.6c0.1,0,0.1,0,0.1,0.1c0.1,0,0-0.3,0.1-0.3h0.1c0,0,0.3-0.1,0.3-0.2
		c0,0.1,0.1,0.1,0.4,0.1c0.1,0,0.5-0.2,0.7-0.2c0,0,0,0,0,0.1v0.1C190.8,322.3,191.2,322.7,191.3,322.9L191.3,322.9z"/>
	<path class="st1" d="M201.4,344c0.1,0.1-0.8,0.4-0.9,0.4c-0.3,0-0.4,0.2-0.6,0.3c0,0-0.5,0.1-0.6,0.1h0v0.1h-0.1
		c-0.1,0-0.1,0-0.4,0h-0.1c-0.2,0-0.3,0.3-0.6,0.3c0,0-0.1,0-0.1,0c-0.1,0-0.4,0.1-0.6,0.1c-0.1,0-0.2,0-0.3-0.1
		c-0.1,0.2-0.4,0.2-0.5,0.3c-0.3-0.1-0.9-0.1-1.2-0.2v0c0-0.1-0.1-0.1-0.2-0.1s-0.2,0-0.2,0.1v0c-0.3-0.1-0.3-0.3-0.6-0.4
		c-0.4-0.1-0.5-0.6-0.8-0.6c-0.3,0-0.2-0.8-0.4-0.9c-0.1-0.1-0.3,0-0.2-0.3c0.2-0.5-0.1-0.7-0.1-1.8v-0.5c0-0.6,0.2-1,0.4-1.7
		c0,0-0.1-0.1-0.1-0.2c0-0.1,0.3-0.4,0.3-0.7c0-0.2,0-0.7,0.1-0.7h0.2c0-0.1,0-0.1,0-0.1c0,0,0.1-0.1,0.1-0.4v-0.1
		c0.4,0,0.7-1,0.7-1.2c0.6-0.1,0.7-0.9,1-0.9c0,0,0.1,0,0.2,0c0-1,1.3-1.8,2.1-2.5c0.1-0.1,0.6-0.7,1.9-1.2c0,0,0.1,0.1,0.2,0.1
		c0.1,0,0.1-0.1,0.2-0.1c0,0,0.1,0.1,0.3,0.1c0,0,0.2-0.1,0.6-0.1c0.6,0,1.8,1.5,1.8,2c0.1,0.1,0.4,0.2,0.6,0.4c0,0.1,0,0.1,0,0.1v1
		c0,0.1-0.1,0.3-0.2,0.3h-0.1v0.1c0,0.3-0.1,0.4-0.1,0.7H203c-0.7,0-0.2,0.3-0.5,0.8h-0.1c0,0-1.1,1-1.1,1.1v0.1
		c-0.7,0-0.9,0.6-1.2,1c0,0.1-0.4,0.5-0.6,0.5h-0.1c-0.2,0-1.2,1-1.2,1c-0.2,0.2-1,0.9-1.2,0.9h-0.2c-0.1,0,0,0.1-0.1,0.1h-0.1v0.1
		c-0.1,0-0.4,0-0.5,0.1c-0.2,0.1-1,0.8-1,0.8c0,0.3,0.1,0.6,0.1,0.7c0,0.1,0.2,0,0.1,0c0.1,0.3,0.8,0.7,0.7,0.7c0.1,0,0.4,0.1,0.7,0
		c0.3,0,0.5,0,0.6,0c0.7-0.1,1.4-0.4,1.6-0.4c0.1,0,0.1,0,0.1,0.2c0.1,0,0.2-0.3,0.3-0.3h0.2c0,0,0.2-0.1,0.2-0.1l0,0
		c0,0,0.1,0,0.1,0c0,0,0.4-0.1,0.4-0.1l0.4-0.2c0.1,0,0.3-0.1,0.3-0.1c0.4,0,1-0.7,1-0.8c0.8-0.4,1.8-1.3,1.8-1.3
		c0.4-0.7,0.8-0.4,0.9-1c0,0,0-0.1,0-0.1c0.3-0.1,0.4-0.3,0.8-0.6h0c0,0,0.1,0,0.1,0c0.1,0,0.1-0.2,0.2-0.2c0.3-0.3,0.8-0.6,1-1
		c0.1,0,0.2,0,0.3,0h0.1c0.1-0.1,0.2-0.4,0.3-0.4c0.1,0,0,0,0.1-0.1c0,0,0,0,0,0v0.1c0-0.1,0-0.1,0-0.2l0,0h0.1c0,0,0.1-0.3,0.2-0.4
		c0,0,0.2-0.1,0.3-0.3c0,0,0.1,0,0.1-0.1c0-0.1,0.8-0.9,0.9-0.9c0-0.2,0.2-0.4,0.4-0.5c0,0,0.1,0,0.1,0c0,0,0,0,0-0.1
		c0,0,0-0.1,0-0.1c0,0,1.2-1.4,1.2-1.5c0,0,0.2-0.3,0.2-0.3c0.5-0.2,0.3-0.5,0.6-0.8l0.3-0.5c0.1-0.2,0.4-0.6,0.4-0.7
		c0-0.1,0.1,0.1,0.1-0.1l0,0c0.1,0,0.5-0.6,0.6-0.4c0,0,0.1,0,0.1,0v-0.1c0,0,0.1,0,0.3,0.1c0.3,0,0.6,0.1,0.5,0.7
		c-0.5,0.6,0.2,0.4-0.4,0.6c0,0.2,0,0.3-0.1,0.4c-0.1,0.1-0.4,0.3-0.6,0.6c-0.1,0.1-0.4,0.4-0.3,0.5c0.1,0-0.1,0.1-0.3,0.4
		c-0.1,0-0.1,0.1-0.2,0.1c0,0-0.1,0-0.1,0v0.1c-0.1,0-0.6,0.7-0.6,0.7c-0.1,0-0.2,0-0.2,0.1c0,0.3,0,0.1,0,0.3c0,0.3-0.7,0-0.7,0.6
		c-0.4,0.1-0.3,0.7-0.8,0.9c0,0-0.1,0.1,0,0.1c-0.1,0.2-0.3,0.2-0.3,0.3c0,0-0.1,0.1-0.1,0.1v0.1c-0.1,0.2-0.3,0.5-0.7,0.9h-0.1
		c0,0.1-0.3,0.2-0.4,0.5v0c-0.2,0-0.6,0.3-0.6,0.5l0,0.1c0,0.1-0.1,0-0.1,0c-0.1,0-0.1,0.3-0.2,0.4c-0.1,0.1-0.4,0.1-0.5,0.3
		c0,0.1,0,0.1,0,0.1c0,0,0,0-0.1,0c0,0.2-0.2,0.1-0.2,0.2v0.1c-0.3,0-0.3,0.3-0.5,0.4c-0.3,0.3-1,1.2-1.1,1
		c-0.1,0.1-0.5,0.2-0.6,0.5c0,0-0.1,0-0.1,0c-0.2-0.1,0,0.2-0.2,0.1l0-0.1v0.1c0,0-0.1,0.1-0.1,0.1c-0.7,0.6-1.3,1.2-1.9,1.4
		C201.9,343.5,201.3,343.9,201.4,344z M200.3,333c-0.1,0.1,0,0.3-0.1,0.4c-0.1,0-0.2,0-0.3,0.1c-0.2,0.1-0.3,0.1-0.4,0.1
		c-0.2,0-0.1,0.1-0.3,0.1c-0.3,0-0.7,0.9-1.1,1.1c-0.4,0-0.4,0.3-0.8,0.3c-0.1,0.1-0.4,0.3-0.4,0.5c0,0.2,0,0.3,0,0.4
		c0,0.3-0.3,0.1-0.3,0.3v0.2c0,0.4-0.1,0.5-0.4,0.5c-0.3,0-0.4,1-0.4,1.2c0,0.1-0.6,0.6-0.5,0.8c-0.1,0.4-0.2,0.7-0.2,1.3
		c0.1,0,0.4,0,0.5,0c0.6,0,1.6-1.2,1.9-1.3c0.8-0.6,1.6-1.4,1.7-1.5c0.2-0.2,0.6-0.6,0.9-0.6h0.2c0.2-0.9,1.3-1.1,1.3-1.5
		c0-0.4,0.4-0.4,0.4-0.6c0-0.1-0.1-0.2-0.1-0.3c0-0.2,0.1-0.3,0.1-0.4c0-0.3-0.5-0.5-0.9-0.6c0,0.1-0.1-0.4-0.1-0.3c0,0-0.1,0-0.1,0
		C200.5,333.3,200.5,332.9,200.3,333z"/>
	<path class="st1" d="M214.9,329.5c0,0.7-0.3,1.6-0.6,1.9c0,0,0,0.1,0,0.1h-0.1c-0.1,0-0.4,0.7-0.5,0.8c-0.1,0.1-0.3,0.2-0.4,0.4
		v0.3c0,0.5-0.5,0.6-0.5,1c0,0.1,0,0.1,0,0.2c-1,0.4-1,3.6-1.8,3.9c0,0.1,0,0.3,0,0.4c0,0.6-0.3,1.3-0.6,1.7
		c0.1,0.1,0.1,0.2,0.1,0.3c0,0.1,0,0.2,0,0.3c0,0.2,0.1,0.4,0.1,0.7c0,0.1-0.2,0.3-0.2,0.6c0,0,0.1,0,0.1,0.1c0,0.1-0.1,0.1-0.1,0.1
		c0,0.4,0.1,0.7,0.5,0.9c0.5-0.2,0.6-0.7,1.2-0.9c0-0.2,0.3-0.3,0.3-0.5v-0.1h0c0.1,0,0.2-0.1,0.2-0.1v-0.1c0.1-0.1,0.4-0.1,0.4-0.2
		c0,0,0-0.1,0-0.1c0-0.2,0.2-0.3,0.2-0.4c0,0,0,0-0.1-0.1c0.1-0.2,0.7-0.6,0.7-0.7c0-0.5,0.4-0.4,0.4-1c3-3,1.8-1.5,2.2-2.4h0.1
		c0.3,0,0.1-0.4,0.4-0.4h0.1c0-0.3,0.2-0.2,0.2-0.4v-0.1c0.3,0,0.3-0.2,0.6-0.2h0.1c0.2-1,1.5-1.3,1.9-2.1c0.4,0,0.8-0.6,0.9-0.6
		c0.2,0,0.4-0.5,0.5-0.5c0.5,0,0.8-0.6,0.8-0.6c0.1-0.1,0.4-0.1,0.3-0.2c0.2,0,0.1-0.3,0.3-0.3h0.1c0.2,0,0.2-0.3,0.6-0.3
		c0.4,0,0.6,0.5,1.2,0.5c0.1,0,0.1,0,0.2,0c0.1,0.4,0.6,0.7,0.7,0.9c0.1,0.1,0.2,0.3,0.3,0.4c0,0.1-0.3,0.1-0.3,0.1
		c0.2,0.1,0.1,0.4,0.3,0.4c0,0-0.3,0.3-0.3,0.5c0,0,0,0.1,0,0.1c-0.1,0-0.2,0.2-0.4,0.2c0,0-0.1,0-0.1,0c-0.6,0.8-1.2,1.5-1.9,2.1
		c-0.4,0-0.3-0.4-0.5-0.4c-0.1,0-0.2,0.1-0.2,0.2c0,0.1,0,0.2,0,0.3c0,0.3-0.3,0.4-0.3,0.8c-0.2,0,0-0.4-0.2-0.4
		c-0.6,0.1-0.3,1-0.7,1.2v0.1c0,0.6-1.1,0.7-1.1,1.1c0,0.3-0.4,0.6-0.4,0.9h-0.1c-0.5,0-0.6,0.5-0.6,0.9c0,0.5,0.6,1.3,1,1.7
		c0,0,0.4,0.4,0.4,0.5v0.1c0,0.1,0,0.1,0.1,0.1c0,0,0,0.1,0,0.2c0,0,0.1,0,0.1,0c0.2,0.5,0.1,0.3,0.6,0.6c0,0,0,0.1,0.1,0.1h0.1
		c0.1,0,0,0.1,0.1,0.1h0.2c0.1,0,0.9,0.3,0.8,0.3c0.2,0,0.3-0.2,0.5-0.2c0.1,0.2,0.5,0.1,0.6,0.3c0.9-0.4,1.8-0.6,1.8-0.6
		c0.4-0.1,0.6-0.4,0.9-0.6c0.2-0.1,0.4-0.1,0.6-0.2c0.1-0.1,0.1-0.2,0.3-0.3c0.2-0.1,0.3,0.1,0.9-0.6v-0.1c0,0,0,0,0,0h0
		c0.3-0.3,0.5-0.6,0.6-0.6h0.1c0.4,0,0.9-1.3,1.6-1.4c0,0,0,0,0-0.1c0-0.3,0.1-0.6,0.4-0.6c0.3,0,0.4,0.2,0.5,0.4
		c0.1,0.6,0,0.1,0,0.6c0-0.1-0.1,0.4-0.1,0.4c-0.6,0-1,1.4-1.5,1.4h-0.1c-0.1,0-0.1,0.1-0.1,0.3c0,0,0,0.1,0,0.2
		c-0.1,0.1-0.2,0.1-0.3,0.2c-0.1,0.1,0.1,0.1-0.3,0.4c-0.4,0.3-0.8,0.7-1.2,1.1c-0.1,0.1-0.3,0-0.4,0.1c0,0.1,0,0.2-0.1,0.3
		c-0.2,0.1-0.6,0-0.7,0.4c-0.5,0.1-0.7,0.2-1.2,0.4c-0.4,0.3-1.8,0.6-1.8,0.6h0c-0.1,0-0.4-0.2-0.7-0.2c-0.4,0-0.6,0.1-0.8,0.1
		c-0.3-0.1-0.5-0.3-0.9-0.3c0,0-0.1,0-0.1,0v0c0-0.3-0.6-0.2-0.9-0.3c-0.1-0.1-1.1-0.9-1.6-1.2c-0.8-1.2-1.2-1-1.2-1.3
		c-0.1-0.5-0.8-1-0.8-1.3c0-0.1-0.1-0.2-0.2-0.3V341c0,0-0.1-0.1-0.2-0.2v-0.1c0,0-0.3-0.6-0.4-1c-0.4,0.3-0.8,0.8-0.8,1
		c-0.3,0.1-0.6,0.2-0.6,0.4c0,0.1,0.1,0.2,0.1,0.4c-0.1,0-0.1,0.2-0.2,0.2h-0.1c0,0,0,0,0,0v0.1c0,0.1-0.3,0.1-0.3,0.2
		c0,0.1-0.1,0.1-0.1,0.2c0,0.1,0.1,0.2,0.1,0.3c-0.5,0.3-0.4,1-1.2,1.4c0,0,0,0.1,0,0.1c0,0-0.6,0.6-0.6,0.6H212
		c0,0-0.1,0.1-0.1,0.1c-0.3,0.1-0.7,0.2-1.2,0.4h-0.1c-0.2,0-0.1,0.1-0.3,0.1c-0.4,0-1.3-0.3-1.3-0.6c0-0.1,0-0.4,0-0.5
		c0-0.4-0.2-0.2-0.2-0.4c0-0.1,0-0.5,0-0.8c0-0.3-0.1-0.3-0.1-0.4c0,0,0-0.4,0.2-0.4c-0.1-0.1-0.1-0.3-0.1-0.4
		c0-0.2,0.1-0.4,0.1-0.5c0,0,0-0.1,0-0.1c0,0,0.1-0.2,0.2-0.3c0,0,0-0.1,0-0.1l0,0c0.2-0.1,0.1-1,0.3-1.2c0.1-0.2,0.1-0.4,0.4-0.9
		c0,0,0-0.1,0-0.2c0-0.4,0.2-0.6,0.4-0.8c0-0.7,0.3-1,0.5-1.6c0,0,0.1-0.4,0.1-0.5c0-0.1,0.1-0.4,0.2-0.5c0,0,0-0.1,0-0.1
		c0,0,0.1-0.5,0.4-0.8v-0.1c0-0.4,0.5-0.5,0.5-1.1c0.1-0.1,0.1-0.5,0.5-0.9v-0.3c0-0.4,0.3-0.7,0.5-1c0.1-0.8,0.5-1,0.8-1.8
		c0,0,0.1-0.5,0.1-0.6c0.5-0.5,0.8-0.6,0.8-1.3c0.2-0.1,0.3-0.8,0.4-0.8c0.3,0,0.3-1.2,0.7-1.4c0.2-1.2,1.1-1.8,1.4-3
		c0.7-0.2,0.9-1,1.3-1.7c0.3,0,0.5-0.1,0.7-0.1c0.4,0,1.1,0.4,1.1,0.6c0,0.2-0.1,0.3-0.1,0.6c0,0.3,0.4,0.2,0.4,0.5
		c-0.2,0.1-0.2,0.9-0.2,0.9c0,0,0,0.1,0,0.3c-0.5,0.4-0.9,1.7-0.8,1.6c0,0,0,0,0,0c0,0,0,0.1,0,0.1c-0.3,0-0.9,0.7-0.9,0.6
		c0,0.1,0.1,0.1,0.1,0.2c0,0.4-1,0.7-1,1.2c0,0.1-0.4,0.1-0.4,0.4c0,0.2-0.6,0.8-0.7,0.9v0.1c0,0.6-0.5,0.5-0.6,0.9
		c-0.1,0.6-0.9,0.1-0.9,0.9C215.2,329.7,214.9,329.4,214.9,329.5z M221.2,334.2c-0.4,0.3-0.8,0.8-0.9,0.9c-0.1,0.1-0.4,0.4-0.4,0.4
		h-0.1c-0.1,0,0,0.4-0.3,0.4c-0.2,0-0.3,0.2-0.4,0.3c-0.3,0.2-0.3,0-0.7,0.5c-0.6,0.6-1.2,1-1.2,1.8h0.1c0.1,0,0.2,0.1,0.4,0.1
		c0.3,0,0.6-0.7,0.9-0.7c0.1,0,0.2-0.3,0.3-0.3h0.1c0.1,0,0-0.2,0.1-0.2h0c0.1-0.5,0.6-0.7,0.7-1.2h0.1c0.4,0,1-1.1,1-1.1
		c0.1-0.2,0.6-0.5,0.6-0.9c0-0.1-0.2-0.1-0.3-0.1C221.4,334.2,221.3,334.1,221.2,334.2z"/>
	<path class="st1" d="M228.8,341.3v-0.5c0-0.6,0.2-1,0.4-1.7c0,0-0.1-0.1-0.1-0.2c0-0.1,0.3-0.4,0.3-0.7c0-0.2,0-0.7,0.1-0.7h0.2
		c0-0.1,0-0.1,0-0.1c0,0,0.1-0.1,0.1-0.4v-0.1c0.4,0,0.7-1,0.7-1.2c0.6-0.1,0.7-0.9,1-0.9c0,0,0.1,0,0.2,0c0-1,1.3-1.8,2.1-2.5
		c0.1-0.1,0.6-0.7,1.9-1.2c0,0,0.1,0.1,0.2,0.1c0.1,0,0.1-0.1,0.2-0.1c0,0,0.1,0.1,0.3,0.1c0,0,0.2-0.1,0.6-0.1c0.6,0,1.8,1.5,1.8,2
		c0.1,0.1,0.4,0.2,0.6,0.4c0,0.1,0,0.1,0,0.1v1c0,0.1-0.1,0.3-0.2,0.3h-0.1v0.1c0,0.3-0.1,0.4-0.1,0.7h-0.1c-0.7,0-0.2,0.3-0.5,0.8
		h-0.1c0,0-1.1,1-1.1,1.1v0.1c-0.7,0-0.9,0.6-1.2,1c0,0.1-0.4,0.5-0.6,0.5h-0.1c-0.2,0-1.2,1-1.2,1c-0.2,0.2-1,0.9-1.2,0.9h-0.2
		c-0.1,0,0,0.1-0.1,0.1h-0.1v0.1c-0.1,0-0.4,0-0.5,0.1c-0.2,0.1-0.7,0.7-0.7,0.7c0,0.3-0.1,0.6-0.1,0.8c0,0.1,0.2,0,0.1,0
		c0.1,0.3,0.7,0.7,0.7,0.7c0.1,0,0.4,0.1,0.7,0c0.3,0,0.5,0,0.6,0c0.7-0.1,1.4-0.4,1.6-0.4c0.1,0,0.1,0,0.1,0.2
		c0.1,0,0.2-0.3,0.3-0.3h0.2c0,0,0-0.1,0-0.1l0,0c0,0,0.1,0,0.1,0s0,0,0-0.1c0.7-0.1,1.1-0.4,1.5-0.4h0.1c0,0,0.7-0.4,1-0.5
		c0.3-0.2,0.2-0.6,0.9-0.6c0.4-0.3,0.9-0.3,1.2-0.9c0,0,0.1,0,0.1,0c0.1,0,0.2-0.1,0.3-0.1h0.1c0,0,0,0,0,0v-0.1
		c0.1,0,0.6-0.4,0.7-0.4h0.1c0.2,0,1.1-1,1-1h0.2c0,0,0,0,0-0.1s0,0,0.1,0h0.1h0c0.1,0,1.3-1.2,1.3-1.2h0.1c0,0,0,0,0,0v-0.2h0.1
		c0,0,0.6-0.4,0.7-0.9c0.6,0,1-0.9,1-0.8c0.1,0,0.2,0.1,0.3,0.1c0.1,0,0.3-0.1,0.4-0.1c0,0.1,0.1,0.1,0.1,0.1c0.3,0.1-0.9,1-0.4,1
		c0,0-0.1,0.4-0.1,0.3c0,0-0.4,0.4-0.4,0.4c-1,0.3-0.2,0.4-0.6,0.4c-0.1,0.1-0.3,0.7-0.6,0.7h-0.1c0,0-0.7,0.4-0.7,0.5
		c0,0.1,0,0.1,0,0.1c0,0.2-0.3,0.3-0.4,0.4c-0.3,0.2-0.6,0.5-0.6,0.5c-0.3,0-0.5,0.4-0.6,0.7c-0.4,0-0.4,0.3-0.8,0.5
		c-0.1,0-0.1,0-0.1,0c-0.4,0-0.3,0.6-0.6,0.6c-0.2,0-0.4,0.3-0.6,0.4c-0.5,0-1.4,0.7-1.4,0.7c-0.5,0.1-0.3,0-0.7,0.4h-0.1
		c-0.2,0-0.4,0.4-0.6,0.4h-0.1v0.1h-0.2c-0.1,0,0,0.1-0.1,0.1l-0.1,0l0,0c0,0.1,0,0.1,0,0.1h-0.2v0.1h-0.1c0,0-0.6,0.1-0.6,0.2
		c0,0,0,0.1,0,0.1c-0.1,0-0.1,0-0.2,0c-0.3,0-0.4,0.2-0.6,0.3h-0.2v0.1h-0.1c-0.1,0-0.1,0-0.4,0h-0.1c-0.2,0-0.3,0.3-0.6,0.3
		c0,0-0.1,0-0.1,0c-0.1,0-0.4,0.1-0.6,0.1c-0.1,0-0.2,0-0.3-0.1c-0.1,0.2-0.4,0.2-0.5,0.3c-0.3-0.1-0.9-0.1-1.2-0.2v0
		c0-0.1-0.1-0.1-0.2-0.1s-0.2,0-0.2,0.1v0c-0.3-0.1-0.3-0.3-0.6-0.4c-0.4-0.1-0.5-0.6-0.8-0.6c-0.3,0-0.2-0.8-0.4-0.9
		c-0.1-0.1-0.3,0-0.2-0.3C229.1,342.6,228.8,342.3,228.8,341.3z M236.3,333c-0.1,0.1,0,0.3-0.1,0.4c-0.1,0-0.2,0-0.3,0.1
		c-0.2,0.1-0.2,0.4-0.4,0.4c-0.2,0-0.2-0.2-0.4-0.2c-0.3,0-0.7,0.9-1.1,1.1c-0.4,0-0.4,0.3-0.8,0.3c-0.1,0.1-0.3,0.5-0.3,0.6
		c0,0.2,0,0.3,0,0.4c0,0.3-0.3,0.1-0.3,0.3v0.2c0,0.1-0.3,0.3-0.4,0.4c-0.1,0-0.1-0.1-0.2-0.1c-0.3,0-0.4,1-0.4,1.2
		c0,0.1-0.3,0.6-0.3,0.8c-0.1,0.4-0.2,0.7-0.2,1.3c0.1,0,0.2,0,0.3,0c0.6,0,1.6-1.2,1.9-1.3c0.8-0.6,1.6-1.4,1.7-1.5
		c0.2-0.2,0.6-0.6,0.9-0.6h0.2c0.2-0.9,1.3-1.1,1.3-1.5c0-0.4,0.4-0.4,0.4-0.6c0-0.1-0.1-0.2-0.1-0.3c0-0.2,0.1-0.3,0.1-0.4
		c0-0.3-0.5-0.5-0.9-0.6c0,0.1-0.1-0.4-0.1-0.3c0,0-0.1,0-0.1,0C236.5,333.3,236.5,332.9,236.3,333z M243.2,338.7L243.2,338.7
		L243.2,338.7z"/>
	<path class="st1" d="M258.8,342.5c0.7-0.3,0.3-0.3,1.1-0.9c0.5-0.3,1.1-0.7,1.6-1.2c0.4-0.7,0.9-0.5,0.9-1c0,0,0-0.1,0-0.1
		c0.3-0.1,0.4-0.3,0.7-0.7h0.1c0.2,0,0.2-0.2,0.2-0.2c0.4-0.3,0.8-0.6,0.9-1c0.1,0,0.2-0.1,0.3-0.1c0,0,0,0,0.1,0
		c0.1,0,0.2-0.4,0.3-0.3c0,0,0,0,0-0.1c0,0,0,0,0,0c0,0,0,0,0,0.1v-0.2l0,0h0.1c0,0,0.2-0.3,0.3-0.4c0,0,0.2-0.1,0.2-0.3
		c0,0,0.1-0.1,0.1-0.1c0-0.1,0.8-0.8,0.9-0.9c0-0.2,0.2-0.4,0.3-0.6c0,0,0.1,0,0.1,0c0,0,0,0,0-0.1c0,0,0-0.1,0-0.1
		c0,0,1.2-1.4,1.2-1.5c0,0,0.3-0.3,0.3-0.3c0.5-0.2,0.3-0.4,0.5-0.8l0.3-0.5c0.1-0.1,0.4-0.6,0.4-0.7c0-0.2,0.1,0.1,0.1-0.1l0,0
		c0.1,0,0.4-0.4,0.6-0.3c0,0,0.1,0,0.1,0v-0.1c0.1,0,0.2,0,0.3,0c0.3,0,0.6,0.1,0.5,0.7c-0.5,0.6,0.2,0.4-0.3,0.6
		c-0.1,0.2,0,0.3-0.1,0.4c0,0.1-0.4,0.4-0.6,0.6c-0.1,0.1-0.4,0.4-0.3,0.5c0.1,0-0.1,0.1-0.3,0.4c-0.1,0-0.1,0.2-0.1,0.1
		c0,0-0.1,0-0.1,0v0.1c-0.1,0-0.5,0.7-0.6,0.7c-0.1,0-0.2,0-0.2,0.1c-0.1,0.3,0,0.1,0,0.3c0,0.3-0.7,0-0.6,0.6
		c-0.4,0.2-0.3,0.8-0.8,0.9c0,0,0,0.1,0,0.1c0,0.2-0.3,0.2-0.2,0.3c0,0-0.1,0.1-0.1,0.1v0.1c-0.2,0.2-0.4,0.5-0.7,0.8l-0.1,0.1
		c0,0.1-0.4,0.2-0.4,0.4v0c-0.2,0-0.6,0.4-0.6,0.5l0,0.1c0,0.1-0.1,0-0.1,0c-0.1-0.1-0.1,0.3-0.2,0.4c-0.1,0.1-0.4,0.1-0.5,0.3
		c0,0.1,0,0.1,0,0.1c0,0,0,0,0,0c0,0.1-0.1,0.1-0.1,0.2v0.1c-0.3,0-0.4,0.4-0.6,0.5c-0.3,0.3-1,1.1-1,1c-0.1,0.3-1,0.9-1,1
		c-0.7,0.4-1.3,1.2-1.3,1.2c0,0-0.1,0.1-0.1,0.1h0c-0.2,0-0.3,0.1-0.5,0.1c-0.1,0-0.1,0.2-0.1,0.1c-0.4,0.4-0.3,0.2-0.6,0.4v0.1
		c-0.3,0-0.2,0.3-1.2,0.5c0,0.1,0,0.1-0.1,0.1c-0.1,0-0.1,0-0.2,0c-0.1,0-0.3,0.1-0.4,0.1c-0.2,0-1.2-0.5-1.2-0.5c0-0.1,0-0.1,0-0.1
		l0,0c0,0-0.5-0.2-0.5-0.4v-0.1c0-0.1,0,0,0-0.1v-0.1c0,0-0.4-0.9-0.4-1.1c0-0.1,0.1-0.2,0.1-0.3c0,0,0-0.1-0.1-0.2V342
		c0,0-0.2-0.5-0.2-0.9c0-0.3,0.1-0.4,0.1-0.7c0-0.1-0.1-0.3-0.1-0.5c0-0.3,0.3-0.5,0.3-0.8c0-0.1-0.1-0.2-0.1-0.4c0,0,0-0.3,0-0.4
		c0-0.1,0-0.3,0-0.3c0.1-0.2,0.3-0.3,0.4-0.5c0-0.3,0-0.7,0-0.9c0.3-0.2,0.2-1.3,0.3-2c0,0-0.1-0.1-0.1-0.1c-0.5,0-0.9,0.9-1.5,0.9
		c0,0.2-0.2,0.2-0.2,0.4c0,0.1,0,0.1,0,0.3c0,0.3-0.7,0.8-1,1v0.2c0,0.3-0.4,0.3-0.4,0.6c0,0,0,0,0,0.1c-0.7,0.1-0.7,1.1-1.1,1.2
		c0,1.1-1.2,1.6-1.3,2c0,0.1-0.5,0.8-0.7,0.8h-0.1c0.1,0.1,0.1,0.2,0.1,0.3c0,0.3-0.3,0.4-0.3,0.8c0,0,0,0.1,0,0.2h0
		c-0.2,0-0.4,0.4-0.4,0.3c0,0.1,0,0.2,0,0.3c0,0.1,0,0.1,0,0.1c0,0,0,0,0,0c0,0,0,0,0,0.1v0.1h-0.1c0,0,0,0,0,0v0.1h-0.1
		c0,0-0.4,0.6-0.5,0.6h-0.1c-0.1,0,0,0,0,0.1c0,0,0,0-0.1,0c-0.1,0,0,0.1-0.1,0.1c-0.2,0.1-0.4,0-0.6,0.1c-0.3,0.1-0.5,0.3-0.7,0.5
		c-0.5-0.3-0.5,0-0.9-0.6c-0.1-0.1-0.4-0.1-0.4-0.2c0-0.1,0-0.1,0-0.2c0-0.1-0.1-0.2-0.1-0.3c0-0.3,0.1-0.3,0.1-0.4
		c0-0.1-0.1-0.2-0.1-0.3c0,0,0.1,0,0.1-0.1c0-0.1-0.1,0-0.1-0.1V343c0-0.1-0.1-0.2-0.1-0.4c0.2-0.3,0.2-1,0.2-1.1V341
		c0-0.3,0.2-0.7,0.4-1.2h0v-0.1c0-0.1,0.1-0.1,0.1-0.2c0.1-0.4,0-0.9,0.2-1.3c0.1-0.1,0.1,0,0.1-0.1c0-0.1,0-0.4,0.2-0.4
		c-0.1-0.3,0-0.8-0.1-1.2c0,0,0.1,0,0.1-0.1c0-0.2,0.1-0.2,0.1-0.2c0.3-0.1,0.6-1.7,0.6-1.7c0-0.2,0.3-1.1,0.4-1.3
		c0.1-1,1.1-1.6,0.9-1.5c0.1-0.1,0.3-0.1,0.4-0.1c0.4,0,0.8,0.1,1.1,0.1c0,0.3,0.1,0.3,0.3,0.4v0.6c0,0.5-0.5,0.7-0.5,1v0.4
		c0,0-0.2,0.7-0.4,1.3v0.1c0,0.1-0.1,0.1-0.1,0.2c0,0.1,0,0.2,0,0.3c-0.3,0.1-0.4,0.6-0.5,1c-0.3,0.1-0.3,0.9-0.3,1.4
		c0,0,0,0.1,0,0.1c-0.1,0.1-0.4,0.1-0.4,0.3c0,0.1,0.1,0.2,0.1,0.3c0,0.3-0.3,0.5-0.3,0.8c-0.1,0.5,0.1,1.2-0.3,1.5v0.1
		c0,0.1,0,0.1-0.1,0.1c-0.1,0-0.1-0.1-0.2-0.1c-0.3,0-0.3,0.3-0.3,0.4c0,0.2,0.1,0.4,0.3,0.6c0.2,0,1.3-1.5,1.7-2.5h0
		c0.3,0,0.2-0.2,0.4-0.2v-0.1c0-0.3,0.4-0.5,0.5-0.7v-0.1h0.1v-0.1c0-0.2,0.6-0.6,0.5-0.7h0.1c1.2-1.5,2.1-2.4,2.1-2.4
		c0.1-0.1,0.2-0.2,0.3-0.3c0.1-0.4,0.3-1,0.7-1c0,0,0,0,0.1,0c0.2,0,0.1-0.3,0.2-0.3c0.8-0.2,1-1.3,1.8-1.6c0.1,0,0.7-0.6,0.7-0.6
		c0.1,0,0.2,0.1,0.4,0.1c0.1,0,0.2-0.1,0.3-0.1c0.2,0,0.4,0.3,0.7,0.3c0,0,0.1,0,0.2,0c0.3,0.5,0.3,1,0.4,2.2c0,0.3,0.1,0.3,0.1,0.4
		c0,0.2-0.1,0.4-0.2,0.4c0.1,0.1,0.1,0.2,0.1,0.3v0.2h0c-0.1,0-0.2,0.3-0.6,0.4c0,0.2,0.1,0.3,0.1,0.4c0,0,0,0.1,0,0.1
		c-0.2,0.2-0.6,1.3-0.6,1.2c0,0.1,0.1,0.3,0.1,0.4c0,0.1-0.1,0.1-0.1,0.2c0,0.1,0,0.3,0,0.6c0,0.3-0.1,0.7-0.3,0.7
		c0,0.1,0.1,0.1,0.1,0.2c0,0-0.1,0-0.1,0.1c0,0.4,0.3,1,0.3,1.2c0,0.1,0,0.3-0.1,0.3c0,0.1,0.1,0.4,0.2,0.6c0,0.1,0,0.1,0,0.1
		c0,0.1,0.2,0.8,0.3,0.9c0.1,0.2,0.4,0.2,0.5,0.1C257.7,343.1,258.9,342.5,258.8,342.5z"/>
	<path class="st1" d="M286.3,338.8v0.1c-0.1,0.7-0.7,0.4-0.7,0.9c0,0-0.2,0.1-0.2,0.1c-0.1,0.1-0.2,0.3-0.5,0.3
		c-0.1,0.8-1.7,1.7-1.8,2.1c-0.3,0-0.3,0.4-0.6,0.4h0c-0.3,0.6-0.9,1.3-1.7,1.6c-0.1,1-0.4,0.3-0.6,0.9c-0.2,0-0.3,0.2-0.5,0.1
		c-0.2,0-0.3,0.1-0.4,0.2h-0.1c-0.5,0-0.6,0.4-0.9,0.4c0,0-0.1,0-0.1,0c-0.1,0-0.1,0-0.1,0.1c-0.6-0.3-0.9-0.9-0.9-1.7
		c0-0.2,0-0.4,0.1-0.5c-0.1-0.3-0.3-0.5-0.3-0.8c0-0.1,0.1-0.1,0.1-0.2c0,0-0.1,0-0.1-0.1c0-0.1,0.1-0.2,0.1-0.4c0-0.1,0-0.1,0-0.2
		c0-0.3,0.3-0.6,0.3-1c0-0.1,0-0.3,0-0.4c0.1-0.3,0.2-1.1,0.2-1.2c0,0,0-0.1,0-0.1c0-0.2-0.1-0.2-0.1-0.3c0.1,0,0.2-0.9,0.4-1.1
		v-0.2c0-0.1,0-0.3,0-0.6c0-0.2,0.2-0.4,0.2-0.6c0,0-0.1-0.1-0.1-0.4v-0.4c0-0.2,0-0.3-0.1-0.5c-0.6,0-0.8,0.4-0.8,0.4
		c0,0-0.7,0.7-0.7,0.7c-0.2,0-0.2,0.1-0.3,0.1c0,0-0.1,0-0.1,0c-0.1,0.3-0.6,1-0.8,1c0,0-0.1,0-0.1,0c0,0.3,0,0.3,0,0.4
		c0,0.1,0,0.1,0,0.2h-0.1c-0.3,0-0.2,0.3-0.4,0.3c0,0-0.1,0-0.1,0c0,0,0,0.1,0,0.1v0.1c0,0.3-0.3,0.1-0.4,0.2c-0.4,0.4-0.5,1-0.9,1
		c0,0-0.1,0-0.1,0c0,0.9-0.3,0.7-0.7,1.1c0,0.1,0,0.1,0,0.1c0,0.1-0.1,0.2-0.1,0.3v0.1c-0.4,0.2-0.6,0.7-1,0.8v0.7
		c0,0.3-0.3,0.1-0.3,0.3s0.1,0.2,0.1,0.3c0,0.2-0.4,0.5-0.6,0.7v0.2c0,0.3-0.4,0.9-0.6,0.9c-0.4,0-0.6-0.1-0.8-0.1
		c-0.7,0-0.4,0.7-1.1,0.7c-0.4,0-0.8-0.7-0.8-0.7c0-0.1,0-0.1-0.1-0.2v-0.4c0-0.3,0.2-0.3,0.2-0.6v-0.4c0-0.2,0.1-0.2,0.1-0.3
		c0-0.1-0.1-0.1-0.1-0.1c0-0.4,0.1-0.7,0.1-1V342c0,0,0.3-0.8,0.4-0.8c0-0.1,0-0.2,0-0.4c0-0.4,0.3-0.5,0.3-0.9c0.1-0.3,0-0.7,0.1-1
		c0,0,0.1-0.1,0.1-0.2c0.2-0.5,0.1-1.7,0.6-2.1c0-0.1,0-0.1,0-0.2c0-1,0.4-1.5,0.5-1.6c0-0.1,0-0.1,0-0.2c0-0.3,0.1-1,0.4-2.1v-0.1
		c0-0.1,0.2-0.1,0.2-0.2c0.1-0.2,0.1-0.4,0.2-0.6c0,0,0-0.1,0-0.3c0-0.1,0.1-0.1,0.1-0.4v-0.2c0.2-0.1,0.1-0.6,0.4-0.6
		c-0.1-0.1-0.1-0.2-0.1-0.4c0.1,0,0.3,0,0.3-0.1c0-0.1-0.1,0-0.1,0c0-0.1,0.2-0.4,0.2-0.6c0,0-0.1,0-0.1,0s0.1,0,0.1,0
		c0-0.1,0.1-0.5,0.1-0.6c0-0.1,0-0.1,0-0.2c0-0.2,0.2-0.1,0.2-0.3v-0.2c0-0.1,0.1,0,0.1-0.1c0-0.1,0-0.1,0-0.2
		c0-0.1,0.1-0.1,0.2-0.1c0.1-0.3,0.3-0.8,0.3-1.1v-0.2c0-0.2,0.1-0.1,0.1-0.3c0,0-0.1,0-0.1-0.1c0,0,0.1-0.1,0.1-0.1s0-0.1,0-0.1
		c0-0.1,0.1-0.1,0.1-0.2c0-0.1,0-0.1,0-0.2c0-0.3,0.3-0.4,0.3-1.3c0-0.1,0-0.2,0-0.3c0,0,0.7-0.4,0.9-0.5c0.5,0.3,1.1,0.3,1.3,0.9
		c0.2,0.1,0.4,0.1,0.6,0.3c0,0.2-0.2,0.3-0.2,0.6c0,0,0,0.2,0,0.3c0,0.2-0.4,0.4-0.4,0.6v0.1c0,1-0.3,1.2-0.3,1.3
		c-0.1,0.2-0.3,0.1-0.3,0.4c0,0.3-0.3,0.3-0.3,0.7c0,0,0,0.1,0,0.1c-0.2,0-0.1,0.4-0.4,0.4v0.1c0,0.5-0.1,0.8-0.7,0.8
		c0,0-0.1,0-0.2,0c-0.1,0.1,0,0.4-0.2,0.4l0,0c0,0.1,0,0.3,0.1,0.3c-0.4,0.4-0.2,0.9-0.7,1.4c0,0.2,0,0.4,0,0.6
		c0,0.1-0.2,1.2-0.4,1.2v0.1c0,0.4-0.3,1-0.4,1.1c-0.1,1,0,1.5-0.6,3v0.2c0,0.2-0.1,0.1-0.1,0.4v0.3c0,0.3-0.2,0.8-0.4,0.9
		c0,0.9-0.1,1-0.1,1.7c0,0.3-0.3,0.3-0.4,0.6c0.1,0.3,0,1,0.4,1c0.2,0,0.1-0.3,0.3-0.4c0-0.3,1-0.9,1-1.3c0-0.1,0.4-0.3,0.4-0.4
		v-0.1c0-0.1,0.3-0.1,0.3-0.2v-0.1c0-0.1,0.3-0.4,0.5-0.4v-0.1c0-0.4,0.7-0.8,0.9-0.8c0.1-0.1,0.4-0.7,0.4-0.8
		c0.1-0.5,1.7-1.9,2-2.1c0.3-0.2,0.4-0.4,0.7-0.8c0.2-0.2,1.6-1.2,1.6-1.6v-0.1c0.1,0,0.1,0,0.2,0c0.2,0,0.3-0.3,0.5-0.3
		c0.1,0,0.2,0.1,0.3,0.1c0.1,0,0.1-0.1,0.3-0.1c0.1,0,0.1,0.1,0.1,0.1c0.5,0.1,0.7,0.4,0.7,0.5v0.3c0,0.1,0,0.3-0.1,0.3
		c0,0.2,0.6,0.4,0.5,0.4c0.1,0,0.2-0.2,0.2-0.2c0,0,0,0,0,0.1v0.1c0,0.2,0,0.4,0.2,0.5c-0.1,0.2-0.2,0.3-0.3,0.4
		c0.1,0,0.1,0.1,0.1,0.3v0.3c0,0.2,0,0.3,0.1,0.3c0,0.1-0.2,0.1-0.2,0.3c0.1,0.1,0.1,0.2,0.1,0.4v0.4c0,0.3-0.2,0.4-0.4,0.5
		c0.1,0.1,0.1,0.2,0.1,0.3c0,0.2-0.1,0.4-0.1,0.5c0,0.1,0.1,0.2,0.2,0.3c0,0.2-0.3,0.2-0.5,0.2c0,0.1,0,0.2,0,0.2
		c0,0.4-0.2,0.6-0.2,0.9c0,0.1,0,0.2,0.1,0.3c-0.2,0.1-0.3,0.4-0.3,0.6c0,0.4,0.2,0.8,0.3,1.1c-0.1,0-0.2,0.1-0.4,0.2
		c0,0.1,0.1,0.2,0.1,0.3c0,0.2-0.1,0.1-0.1,0.3c0,0.2,0.1,0.3,0.2,0.4c0.2-0.1,1.6-1.1,1.6-1.1c0-0.1,0-0.1,0-0.1v-0.1
		c0,0,0.1,0,0.1,0c0,0,0.4-0.2,0.4-0.2v-0.1c0-0.6,1.6-0.9,1.9-1.7c0.1-0.1,0.4-0.2,0.4-0.3v-0.1c0-0.1,0.2-0.1,0.4-0.1c0,0,0,0,0,0
		v-0.1c0-0.4,1.1-1.4,1.2-1.4h0.1c0.3-0.5,0.3-0.4,0.3-0.4v-0.1c0-0.1,0.3-0.2,0.4-0.3c0.1-0.1,0.3,0,0.6-0.6
		c0.3-0.1,0.7-0.4,0.7-0.8h0c0.4,0,1-0.8,1-0.6c0.1,0,0.2-0.2,0.3-0.2c0.5,0,0.7,0.1,0.7,0.7c0,0.1,0,0.2-0.1,0.3
		c-0.2,0.1,0,0.5-0.3,0.6c-0.1,0-0.1,0-0.2,0c-0.2,0.1-0.3,0.3-0.4,0.3c-0.2,0.1,0,0.4-0.2,0.5c-0.1,0.1-0.3-0.1-0.3-0.1
		C286.7,337.7,286.9,338.8,286.3,338.8z"/>
	<path class="st1" d="M295.3,340.1c0-0.1,0-0.3-0.1-0.3c0.1-0.3,0.3-0.4,0.3-0.7c0,0-0.1,0.1-0.1-0.1c-0.4,0.3-0.6,1.3-1.2,1.3
		c0,0.2-0.1,0.3-0.1,0.4v0.1c0,0.1-0.2,0-0.3,0c-0.1,0,0,0.2-0.1,0.3c0,0-0.3,0.3-0.3,0.3c0,0,0,0.1,0,0.1c0,0,0,0,0,0h-0.1
		c-0.3,0-0.7,0.4-0.7,0.6c0,0,0,0.1,0,0.2c-0.3,0.4-0.7,0.3-0.8,0.9c0,0-0.3,0.3-0.2,0.3c-0.3,0.2-0.9,0.8-0.9,0.7
		c-0.1,0.1-0.2,0.3-0.3,0.4c0,0.2-1.4,0.7-1.4,0.6c0,0.1,0.1,0.2,0.1,0.3c0,0,0,0-0.1,0c-0.1,0-0.1,0-0.1,0c0,0-0.1,0.1-0.1,0.1
		c0,0.1-0.6,0.3-0.7,0.2c-0.3-0.1-0.3-0.1-0.5-0.2c-0.4,0.1-0.9,0.3-1.3,0.3c-0.5-0.3-1.1-0.6-1.1-1.2c-0.4,0,0.4-1.5,0-1.6
		c0-0.7,0.2-0.7,0.3-1.2c0-0.4,0.2-0.4,0.2-0.9c0.2-0.1,0.7-0.9,0.3-1.2c0-0.2,0.2-0.6,0.3-1.3c0,0,0,0,0,0c0-0.1,0.2-0.1,0.3-0.2
		c0,0,0-0.1,0-0.2c0-0.1,0.4-0.3,0.4-0.6c0-0.1,0.1-0.3,0.1-0.6c0.1,0,0.1,0,0.1-0.2c0,0,0-0.1,0-0.1c0-0.3,0.2-0.2,0.2-0.3
		c0-0.1,0.3-0.9,0.3-1c0-0.1,0.2-0.1,0.2-0.3c0-0.1-0.1-0.3-0.1-0.4c0.1-0.1,0.3-0.3,0.3-0.6c0-0.2,0.1-0.2,0.1-0.4
		c0-0.1,0-0.1,0-0.1c0,0,0.3-0.7,0.3-0.7c0.1,0-0.1-0.2,0-0.2c0.2-0.1,0.1-0.3,0.2-0.6c0.6-0.1,0,0,0.5-0.2c0.3,0.1,0.4,0.2,0.7,0.2
		c0,0,0.1,0,0.1,0c0.3,0.6,1,0.8,1,1.9c0,0.3-0.3,0.3-0.5,1c0,0.1-0.8,1-0.9,1c-0.4,0.3-0.8,1.6-0.7,1.6c-0.3,0.2-0.3,0.6-0.6,1
		c0,0,0,0.4,0,0.5c0,0.2-0.2,0.4-0.2,0.6v0.2c0,0-0.1,0.2-0.3,0.4c0.1,0.1,0.1,0.2,0.1,0.3c0,0.1,0,0.3-0.2,0.4c0.1,0,0,1,0,1.2
		c0,0.2-0.1,0.4-0.1,0.6c-0.1,0.3-0.2,0.7,0.4,0.7c0.2,0,0.5,0,0.6-0.2v-0.1c0.3,0.1,0.4-0.1,0.7-0.3c0.1-0.1,0.3-0.1,0.4-0.2
		c0.3-0.1,0.2,0,0.9-0.4c0.7-0.8,1-0.8,1.2-1c0.3-0.3,0.8-0.5,0.8-1v-0.1c0.4,0,1.1-0.9,1.2-1.2c0-0.2,0.5-0.4,0.6-0.6
		c0,0,0-0.1,0-0.1c0-0.2,0.6-0.6,0.6-0.7c0,0,0-0.1,0-0.1c0.8-0.3,0.4-0.7,0.8-1.1v-0.2c0-0.8,0.5-1,1.2-0.9c0.1,0,0.4,0.1,0.6,0.1
		c0,0,0,0.1,0,0.1c0,0.1,0.3,0.1,0.3,0.4v0c0,0.3,0.4,0.2,0.4,0.4c0,0.2-0.1,0.1-0.2,0.3c0.1,0.1,0.2,0.2,0.1,0.4
		c0,0.7-0.5,0.3-0.6,0.6c0,0.2,0.3,0.4,0.3,0.4c0,0.1-0.1,0.1-0.1,0.1c0,0.1,0.1,0.1,0.1,0.1c0,0.2-0.1,0.3-0.3,0.4
		c0,0.2,0.1,0.3,0.1,0.4c0,0.1-0.2,0.1-0.2,0.1c0,0,0.1,0.1,0.1,0.3c0,0,0,0.1-0.1,0.1c0,0.1-0.2,0.1-0.2,0.2s0.1,0.5,0.1,0.7v0.3
		c0,0.1,0,0.3,0.1,0.3c-0.1,0.3-0.3,0.7-0.3,1c0,0.1,0,0.2,0.1,0.3c-0.1,0.1-0.1,0.3-0.1,0.4c0,0.4,0.3,0.7,0.4,1
		c0.4-0.1,1,0,1.3-0.2c0.1-0.1,0.9-0.4,0.8-0.4c0.8-0.3,0.3-0.1,1.2-0.7c0.6-0.4,1.2-0.7,1.8-1.3c0,0,0.1,0,0.1,0
		c0.1,0,0.1-0.1,0.1-0.2c0.4-0.2,0.4,0.1,0.8-0.6h0.1c0.2,0,0-0.4,0.2-0.4c0.1,0,0.1,0,0.1,0.1c0.7-0.4,1.3-1.2,1.6-1.2
		c0.2-0.1,0.4-0.4,0.6-0.6c0.1-0.1,0.8-0.5,0.7-0.5h0.1c0-0.1,0-0.1,0-0.1c0-0.1,1-1.1,1.4-1.3v-0.1c0-0.2,0.3,0.1,0.3-0.1
		c0,0,0.3,0.1,0.3,0.1c-0.1,0.1-0.1,0.7-0.3,0.7c-0.1,0.1-0.1,0-0.2,0c0,0-0.1,0.1-0.1,0.1c-0.1,0.1,0.1,0.3-0.2,0.4
		c-0.1,0.1-0.4,0.1-0.4,0.2c0,0-0.5,0.8-0.8,1.1c-0.3,0.4-1.1,0.9-1,0.9c-0.3,0-0.5,0.5-0.6,0.8c-0.1,0-0.6,0.3-0.5,0.3
		c0,0,0,0-0.1,0c-0.3,0.4-0.5,0.4-0.9,0.8v0.1c0,0.2-0.4,0.1-0.4,0.2v0.1c-0.1,0.2-0.6,0.3-0.6,0.6c-0.1,0.2-0.6,0.4-0.6,0.4
		c-0.8,0.4-1.6,1.2-1.5,1.1c-0.1,0.1-0.1,0.1-0.1,0.1c0,0-0.3,0.1-0.5,0.1c-0.1,0-0.1,0-0.2,0c-0.5,0.4-1,0.6-1.3,0.9h-0.1
		c0,0-0.4,0.3-1.2,0.3c-0.3,0-0.1-0.2-0.4-0.2c-0.1,0-0.1,0-0.3,0c0,0-0.6-0.4-0.6-0.4v-0.1c0-0.2-0.4-0.3-0.4-0.3h-0.1v-0.2
		c0,0-0.2,0-0.2-0.1v-0.1c0-0.1-0.1-0.1-0.1-0.1c-0.1-0.1-0.2-0.7-0.2-0.6l0,0c0,0,0,0,0-0.1c0,0-0.2-0.6-0.3-1
		c0-0.2,0.1-0.3,0.1-0.4c0-0.2-0.1-0.4-0.1-0.6c0-0.2,0.2-0.4,0.2-0.6v-0.4C295.1,340.4,295.3,340.4,295.3,340.1z"/>
	<path class="st1" d="M327.3,332c-0.3,0.1-0.5,1-0.7,1.2c-0.3,0-0.4-0.3-0.5-0.5c-0.1,0-0.1,0-0.2,0c-0.3,0-0.4-0.4-0.5-0.4
		c-0.8,0-1.2-0.5-1.8-0.5c-0.4,0-0.6,0-0.9,0.3h-0.1c-0.1,0-0.5,0.6-1,0.6v0.1c0,0.3-0.1,0.4-0.2,0.6v0.1c0,0.2-0.3,0-0.3,0.3
		c0,0.1,0,0.1,0,0.1h0c0,0.1,0,0.2,0,0.3c0,0.5-0.3,0.7-0.3,1.1c0.1,0.4,0.3,0.9,0.3,1.7c0,0-0.1,0-0.1,0c0,0.2,0.2,0.7,0.2,0.7
		c0,0.1-0.1,0-0.1,0.1c0,0.3,0.5,1.3,0.5,1.2c0,0.1,0.2,1,0.6,1.8c0.1,0.1,0.3,0.1,0.3,0.4c0,0,0,0.1,0,0.1c0,0.1,0.1,0.1,0.1,0.1
		c0.1,0.3,0.2,0.7,0.5,0.9c0,0.1-0.1,0.2-0.1,0.3c0,0.4,0.5,0.7,0.5,1.1v0.3c0,0.1,0.1,0.2,0.1,0.4c0,0.4-0.6,1.3-1.2,1.3
		c-0.3,0-0.4-0.2-0.7-0.2c0,0-0.1,0.1-0.2,0.1c-0.1,0,0,0-0.1-0.1c0,0,0,0-0.1,0c-0.3,0-0.5-0.2-0.5-0.2h-0.3
		c-0.2,0-0.2-0.2-0.4-0.2h-0.4c-0.5,0-0.4-0.6-1.8-0.6h-0.2c-0.1-0.2-0.5-0.1-0.6-0.4c-0.1,0-0.3,0-0.4,0c-0.4,0-0.6-0.1-0.6-0.4
		c0.1,0,0.1-0.2,0.2-0.2c0.1,0,0.1,0.1,0.3,0.1c0,0,0-0.1,0.1-0.1c0,0.2,1,0.3,1.5,0.4h0.2c0.2,0.2,1.2,0,1.5,0.4h0.1
		c0.2,0-0.1-0.3,0.8-0.3c0.1,0,0.3,0,0.4,0h0.1c-0.7-1.9-0.6-2.6-1.4-3.4v-0.2c0,0,0,0-0.1,0c-0.1,0-0.1-1.3-0.3-1.7
		c0-0.1-0.2-0.2-0.2-0.2c-0.1-0.2,0-0.4-0.1-0.6c-0.2-0.6-0.4-1-0.4-1.6c0-0.3,0-0.5,0-0.8c-0.3,0.4-0.5,0.4-0.6,0.5
		c-0.6,0.4-1,1.2-1.4,1.3c-0.1,0-0.1,0-0.2-0.1c-0.1,0.6-1.2,1.4-1.3,1.4c-0.9,0.7-0.3,1.3-1.2,1.7c-1.2,1.6-1.6,1-1.5,2
		c-0.2,0.2-0.8,0.5-0.8,0.5c-0.7,0.5-1,1-1.1,1.5c-0.3,0-1,1.5-1,1.5c-0.3,0-0.9,1-1.1,1c-0.3,0.1-0.2-0.4-0.5-0.4
		c-0.7,0.2-0.3-0.1-1.7-0.1c0-0.1-0.1-0.1-0.1-0.1c0,0,0.1-0.1,0.1-0.2s-0.9-0.5-0.9-0.8c0-0.9,0.3-1.2,0.3-1.3
		c0.2-0.6,0.1-1.2,0.3-1.9c0,0,0.2-0.8,0.2-1c0.2-0.1,0.1-1.5,0.8-1.8c0-0.1,0-0.2,0-0.3c0-0.4,0.2-0.6,0.3-0.8c0-0.1,0-0.2,0-0.3
		c0-0.6,0.4-1.3,0.4-1.2c0-0.1,0-0.2,0-0.4c0-0.4,0.5-0.2,0.5-1.3c0-0.7,0.2-0.8,0.2-0.8c0.1,0-0.2-0.5,0-0.5c0.1,0,0-0.9,0.2-0.9
		c-0.2,0,0.8-1.1,1.2-0.5c0.9,0.8,0.3,0.7,0.8,1.3c0.1,0,0.1,0,0.1,0c0.4,0,0.5,0.6,0.7,0.6c-0.1,0.3,0,0.5-0.1,0.8
		c-0.1,0.4-0.4,0.6-0.4,1c0,0,0,0.1,0,0.2c-0.2,0.2-0.9,0.8-0.9,0.8c0,0.1,0,0.3,0,0.5c0,0.1,0,0.2-0.1,0.2c0,0,0,0-0.1,0
		c0,0.1,0,0.2-0.1,0.2c-0.1,0-0.4,0.7-0.6,0.7c0,0-0.1,0-0.1,0.1c0,0.3,0.1,0.3,0.1,0.6c0,0.1-0.4,1.2-0.6,1.3
		c0.1,0.3,0.1,0.6,0.2,0.9c-0.5,0-0.7,0.4-0.7,0.7c0,0.3,0.1,0.5,0.2,0.7c0,0.3-0.5,1-0.4,1.3c0,0.1,0.1,0.2,0.2,0.2
		c0.7-0.1,1.4-1.4,1.9-1.8c0.9-0.7,1.3-1.2,2.2-2.1c0.2,0,0.5-0.5,0.7-0.5c0.4-0.1,0.5-0.6,0.6-1c0,0,0.1,0,0.1,0
		c0.3,0,0.9-0.7,0.9-0.8c0-0.1,1.1-0.6,1-1c0.8-0.2,0.9-0.7,1.5-0.8c0.6-0.1,0.9-1.1,1.3-1.2c0.1,0,0.1,0,0.2,0.1l0.1-0.1
		c0,0-0.1-0.1-0.1-0.1c0,0,0,0,0.1-0.1v-0.2c0-0.3,0.2-1.6,0.5-2.6c0,0,0.1-0.1,0.1-0.2c0-0.1-0.1,0-0.1-0.1c0,0,0.3-0.3,0.3-0.8
		c0.4-0.2,0.8-0.4,1.2-0.7c0,0,0.1,0,0.2,0c0.3,0,0.5-0.1,0.8-0.1c0.3,0,0.4,0,0.6,0c0.1,0,0.2,0,0.3,0h0.1c0.1,0,0.2-0.1,0.4-0.1
		c0.4,0,0.8,0.2,1,0.4c0.1,0,0.2-0.1,0.3-0.1c0.3,0,0.5,0.1,0.8,0.1c0.1,0,0.2,0,0.3,0c0.4,0.5,1,0.7,1,0.8v0.1
		C326.5,331.1,327.1,331.6,327.3,332L327.3,332z M314.4,322.9c-0.1,0.2-0.3,0.1-0.3,0.4c0,0.1,0.3,0.1,0.3,0.3
		c0,0.1-0.1,0.1-0.2,0.3v0.2c0,0.3-0.3,0.4-0.5,0.7c-0.4,0-1,0.1-1.1-0.3h-0.3c-0.1,0,0-0.1-0.1-0.1c-0.1-0.1-0.2,0-0.3-0.1
		c-0.1,0-0.1-0.2-0.1-0.2c-0.4-0.3-0.3-0.5-0.3-1c0,0,0.4-0.6,0.6-0.6c0.1,0,0.1,0,0.1,0.1c0.1,0,0-0.3,0.1-0.3h0.1
		c0,0,0.3-0.1,0.3-0.2c0,0.1,0.1,0.1,0.4,0.1c0.1,0,0.5-0.2,0.7-0.2c0,0,0,0,0,0.1v0.1C314,322.3,314.3,322.7,314.4,322.9
		L314.4,322.9z"/>
	<path class="st1" d="M354.1,334.9c-0.3-0.1-0.6-0.2-0.8-0.2c-0.8,0-0.6,0.7-1.1,0.7c0,0.1,0,0.3-0.2,0.4c0,0.1-0.3,0-0.4,0.3h-0.1
		c-0.5,0-0.2,0.3-0.3,0.6c-0.2,0.1-0.4,0.2-0.3,0.5c-0.3,0.1-0.6,0.3-0.6,0.6v0.1c0,0-0.1,0-0.1,0c-0.5,0-0.3,0.6-0.3,0.6
		c-0.1,0-0.3,0-0.3,0.3c0,0,0,0.1,0.1,0.1c0,0.1-0.1,0.1-0.2,0.1h-0.1c0.1,0.4-0.2,0.3-0.3,0.7h-0.1c-0.1,0-0.4,0.2-0.4,0.2
		c0.1,0.4-0.4,1-0.4,1.2c-0.1,0-0.3,0.2-0.3,0.3l0,0.1c-0.1,0.1-0.2,0.2-0.3,0.2v0.1c0,0.2-0.1,0.2-0.1,0.4c0,0,0.1,0.1,0.1,0.1
		c-0.1,0.1-0.3,0.1-0.3,0.4c0.1,0.3,0,0.2,0.1,0.4c0,0.2-0.7,1-1.1,1.3c0,0.1,0,0.1,0,0.1c0.1,0.3-0.3,1.2-0.6,1.2h-0.2
		c-0.2,0-0.4-0.1-0.6-0.1c-0.2,0-0.1,0.1-0.2,0.3c-0.1,0-0.2,0-0.3,0c-0.2,0-0.3,0-0.5,0c-0.3-0.3-0.6-0.4-1-0.5
		c-0.2-0.4-0.7-0.7-1-1l-0.1-0.2c-0.1-0.3-0.3-0.6-0.4-0.9c0-0.3,0-0.6-0.2-1c0,0-0.1-0.3-0.2-0.3c0-0.1,0.1-0.2,0.1-0.3
		c0-0.4-0.2-0.8-0.3-1.3c0,0-0.1-0.7,0-0.7c-0.1-0.1-0.1-0.2-0.1-0.3c-0.1-0.2,0-0.5-0.1-0.8l-0.1-0.3c0,0,0.1,0,0.1,0
		c0-0.1-0.1-0.1-0.1-0.1h0c0-0.3,0.2-0.2,0-0.6l0-0.3c-0.1-0.3,0.1-0.4,0.1-0.6c0,0-0.2-0.2-0.2-0.3c-0.1-0.1,0.1-0.4,0.1-0.6
		c-0.1-0.1-0.2-0.1-0.2-0.2c0,0,0,0,0-0.1c0-0.2-0.1-0.4-0.2-0.6c-0.4-1.3,0.4-1.7,0.3-1.7c0-0.1-0.1-0.1-0.1-0.1
		c-0.1-0.3,0.1-0.6,0.1-0.8l-0.1-0.1c0-0.1,0.2-0.1,0.1-0.2c-0.1,0-0.2-0.1-0.3-0.2c0-0.2,0.4-0.4,0.4-0.5h0c0,0,0,0.1,0,0.1
		c0.2,0,0.3,0,0.5,0c0.5,0,0.7,0.3,0.9,0.3c0.2,0.1,0.5,0.1,0.7,0.2c0.1,0.1,0.3,0.3,0.5,0.3v0.1c0.1,0.1,0.1,0.1,0.1,0.2
		c0,0.1,0,0.1-0.1,0.1c0.1,0.2,0.4,0.2,0.4,0.3c0,0-0.1,0-0.1,0.1c0,0,0.1,0,0.2,0.1c0.1,0.3-0.2,0.3,0,0.7
		c-0.2,0.2-0.4,0.1-0.5,0.3l0,0.2c0.2,0.4-0.1,0.6,0,1c-0.1,0.1-0.4,0.1-0.3,0.4c0,0.1,0,0.1,0,0.1c-0.5,0-0.2,0.6-0.9,0.7
		c0.1,0.4,0.6,0.9,0.2,0.9l0.1,0.1c0,0.1,0.1,0.2,0.1,0.3c0.1,0.3-0.3,0.1-0.3,0.3c0,0.1,0.1,0.1,0.1,0.2c0,0.1-0.2,0.1-0.1,0.1
		c0,0.1,0.1,0.1,0.2,0.2c0,0.1-0.1,0.1,0,0.2c0,0.1,0,0.1,0.1,0.2c-0.2,0,0,0.2-0.2,0.2c0.1,0.2,0.3,0.2,0.3,0.4
		c0,0.2-0.2,0.4,0,0.7c0,0.1,0.1,0.3,0.2,0.4c-0.2,0-0.2,0.1-0.2,0.3l0.5,0.8c0,0.1-0.1,0.1-0.1,0.2c0,0,0.1,0,0.1,0
		c0,0.1-0.1,0-0.1,0.1c0.1,0.1,0.4,0.4,0.5,0.5c0,0.2,0.1,0.3,0.1,0.5c0.1,0.3,0.4,1.2,0.7,1.2c0.7,0,0.1-0.7,0.6-0.7
		c0-0.1,0.1-0.2,0.1-0.4l-0.1,0c0.2,0,0.1-0.2,0.3-0.2h0.1c0-0.1-0.1-0.5,0-0.5h0.1c0.1,0,0-0.3,0-0.3c0.2,0,0.3-0.2,0.4-0.3
		c-0.1,0-0.1,0-0.1-0.1c0-0.3,0.3-0.5,0.2-0.6l0,0c-0.1-0.1,0,0,0-0.1V341c0-0.1,0.3-0.4,0.3-0.4c0.1,0,0.1,0.1,0.2,0.1
		c0-0.1,0.4-0.8,0.4-0.8c0.3,0,0.1-0.3,0.4-0.3c0,0,0,0,0-0.1c-0.1-0.3,0.1-0.5,0.5-0.6v-0.1c-0.1-0.5,0.7-0.5,0.7-0.8l-0.1-0.2
		c-0.1-0.6,0.7-0.6,0.6-0.9c0,0-0.1,0-0.1-0.1c0.5-0.1,0.8-1.2,1.2-1.3c0-0.6,0.7-0.6,0.5-1.2c0.1-0.1,0.5-0.1,0.4-0.5l0-0.1
		c0.1,0,0.4,0,0.4-0.1c-0.1-0.3,0.1,0,0.4-0.4c0.1-0.1,0.4-0.3,0.4-0.4c0,0,0,0,0.1,0c0,0,0.1,0,0.1,0c0.2-0.3,1.2-0.7,1.8-0.4
		c0.4,0.3,0.5,1.3,0.7,1.3c0.6,0.5,0.9,0.8,1.4,1.3c0.4,0,0.6,0.6,0.4,0.7c-0.1,0,0.3,0.2,0.1,0.3c0,0-0.1,0-0.1,0.2
		c-0.2,0-1,0.5-1.2,0C355.1,335.5,354.2,335.4,354.1,334.9z"/>
	<path class="st1" d="M381.8,335.4c0,0-0.1-0.1-0.2-0.1c-0.1,0-0.1,0.1-0.4,0c-0.3,0-0.5-0.3-1-0.2c-0.1,0-0.2,0-0.3,0
		c0-0.1-0.1-0.2-0.3-0.3c0,0-0.7,0.1-1.3-0.1c-0.1,0-0.2,0-0.3-0.1c-0.5-0.1-0.8-0.4-1.3-0.4c-0.1,0.3,0.1-0.1,0.1,0.6
		c0,0.1-0.1,0.2-0.1,0.3c0,0.2,0.4,0.6,0.4,0.8c0,0-0.1,0.2-0.1,0.4c0,0.3,0.4,0.5,0.4,0.7c0,0.4-0.2,0.7-0.6,0.9
		c0,0.3,0.3,0.2,0.3,0.5c0,0.2-0.1,0.9-0.4,0.9v0.2c0,0.4-0.4,0.6-0.4,1h-0.1c-0.2,0-0.2,0.1-0.3,0.1c0,0.1,0.1,0.1,0.1,0.2
		c0,0.6-0.6,1.1-1,1.3c-0.2,0.7-0.3,0.9-0.6,1.2v0.1c0,0.4-0.8,0.7-0.8,0.8c0,0,0,0,0,0c0,0-0.4,0.2-0.4,0.2c0,0.1-0.1,0.3-0.1,0.3
		c0,0.2-0.6,0.5-0.6,0.6c-0.1,0.1-0.7,0.4-1,0.4h-0.1c-0.1,0-1.3,0.6-1.6,0.6c-0.2,0-0.3-0.1-0.6-0.1c0,0-0.3,0-0.3,0
		c-0.1,0-0.3-0.3-0.3-0.3h-0.1c0,0,0,0,0,0V346c0,0,0,0,0,0h-0.1c-0.1,0,0-0.2-0.1-0.3c0,0-0.2,0-0.2-0.1c-0.1-0.1-0.2-0.7-0.2-0.6
		c0,0-0.1-0.1-0.1-0.2c0-1,0.4-2.1,0.4-2.4c0-0.8,0.4-1,0.4-1.8v-0.1c0.3-0.1,0.2-0.6,0.4-0.6c0-0.6,0.4-1.3,0.6-1.3h0.1
		c0-0.3,0.1-0.3,0.1-0.7v-0.1c0.6-0.1,1.2-2,1.8-2h0.1c0,0,0-0.1,0-0.1c0-0.1,0.4-0.1,0.4-0.3c0-0.2-0.1-0.2-0.2-0.2
		c-0.1,0-0.3,0.3-0.4,0.3H371c-0.3,0-0.6,0.2-0.7,0.2c-0.2,0-0.1,0.2-0.2,0.2c-0.3,0-0.5,0.1-0.8,0.1c-0.2,0-0.1,0.1-0.3,0.1v-0.1
		c-0.2,0-0.3,0.1-0.4,0.1c-0.2,0-0.4,0.2-0.5,0.2c-0.2,0-0.4,0.1-0.7,0.1c-0.2,0-0.5,0-0.6,0c-0.2,0-0.4,0.2-0.6,0.2
		c-0.2,0-0.3,0-0.7,0c-0.4,0-0.5,0-0.5,0c0,0,0-0.1-0.1-0.1c0,0-0.1,0.1-0.1,0.1c-0.3,0-0.6-0.4-0.9-0.4c0,0-0.3-0.1-0.3,0.1
		c0,0,0,0.1,0,0.1c0,0.3,0,0.6-0.1,1c-0.3,1.6-1,2.7-1.2,3.5v0.3c-0.2,0.3-0.3,0.4-0.6,0.6v0.1c-0.1,0.5-0.6,0.7-0.6,1.1
		c0,0.1,0,0.1,0,0.3c-1.2,0.8-0.9,1.2-2.5,1.9c-0.3,0.1-0.5,0.2-0.7,0.1h-0.1c-0.2,0.2-0.4,0.2-0.6,0.1c-0.4,0-0.6-0.5-1-0.6h-0.1
		c0-0.3-0.3-0.3-0.4-0.4c-0.3-0.6-0.5-1-0.6-1c0,0,0.1-0.1,0.1-0.1c-0.1-0.3-0.2-0.7-0.5-0.9l0.1-1c0-0.2,0.2-0.4,0.2-0.7
		c0-0.3-0.2-0.4-0.2-0.7h0.1c0,0,0.1,0,0.1,0V340c0,0,0.1-0.1,0.1-0.1c0,0,0-0.1,0-0.2v-0.1c0-0.1,0-0.3-0.1-0.3
		c0.1-0.3,0.1-1.2,0.4-0.9h0.1c0.3-0.3-0.2-0.8,0-1.2l0,0c0.2-0.2-0.1-0.2,0.1-0.4c0.2-0.9,1.1-1.3,1.1-1.5c0.1-0.3,0.7-0.9,0.7-1
		c0.1-0.2,0.1-0.4,0.3-0.5c0.1-0.1,0.3-0.1,0.4-0.3c0,0,0-0.4,0.1-0.3h0.2c0.1,0,0.1-0.2,0.1-0.3c0,0,0,0.1,0.1,0.1
		c0.1,0,0.2-0.3,0.4-0.2c0,0,0.1,0,0.3,0.1c0.1,0,0.1-0.2,0.3-0.1h0.1l-0.1,0.2c0,0.1,0,0.1,0.1,0.1s0.4-0.1,0.3-0.2
		c0.1,0,0.2,0.2,0.3,0.3c0,0,0.1,0,0.1,0h0c0,0,0,0,0,0.1c0,0,0,0,0,0c0,0,0.1,0,0.1,0c0.1,0,0,0,0.1,0c0,0,0.1,0,0.2,0
		c0,0,0.1,0.2,0.3,0.3c0-0.3,0-0.7,0-0.9c0.1-0.3,0.1-0.5,0.5-0.7c0.1,0.1,0.2,0.1,0.4,0.1c0.2,0,0.2,0,0.4,0c0.2,0,0.5,0,0.6,0.1
		c0.1,0.1,0.2,0.1,0.3,0.1c0,0,0,0.1,0.1,0.1l0.1,0c0,0,0-0.1,0-0.1c0,0,0,0,0,0c0,0,0,0.1,0,0.1c0.3,0.1,0.2,0.2,0.4,0.3
		c0.1,0.1,0.2,0.2,0.3,0.2h0c0,0,0,0.1,0,0.1c0,0.2-0.2,0.1-0.3,0.3c0,0.1,0.1,0.1,0.1,0.2c0,0.1-0.1,0.3-0.1,0.4c0,0.4,0.5,0.9,1,1
		c0.1,0,0.4,0,0.6,0c0.2,0,0.4,0.1,0.6,0.1c0.3,0,0.6,0,0.7,0c0.1,0,0.1,0.1,0.1,0.1c0.2,0,0.3-0.1,0.4-0.1h0.7
		c0.2,0,0.4-0.3,0.6-0.3c0.2,0,0.3-0.1,0.5-0.1c0.1,0,0.3-0.1,0.4-0.1c0.3,0,0.9-0.3,1.3-0.3c0,0,0.3-0.2,0.3-0.2h0.3
		c0.1-0.1,0.6-0.2,0.8-0.4c0.1,0.2,0.7-0.3,0.7-0.3c0.1,0,0.2,0,0.3,0c0.1,0,0.1-0.1,0.1-0.1l0,0c0,0,0.1,0,0.2-0.1
		c0.2,0.1,0.4,0.3,0.7,0.3h0.1c0.2,0,0.3,0.3,0.6,0.4c0.1,0,0.1-0.1,0.1-0.2s0-0.3,0-0.3h-0.1c0-0.2-0.3-0.3-0.3-0.3
		c-0.1,0-0.2-0.1-0.4-0.1c-0.1-0.1-1.4-0.4-1.4-0.8h-0.1c-0.2,0-0.5-0.4-0.6-0.6c-0.2-0.4-0.1-0.8,0-1.2h0.1c0,0,0-0.1,0-0.2
		c0.1-0.1,0.2-0.2,0.3-0.2c0.2,0,0.1-0.1,0.3-0.2c0.4-0.1,0.6,0,0.7,0.1c0.1,0,0.3,0.1,0.4,0.1c0.1,0.1,0.1,0.1,0.3,0.1
		c0.1,0.2,0.4,0.3,0.3,0.6c0.7,0.3,0.6,0.5,1.1,1c0,0.1,0.1,0.3,0.2,0.5h0.1c0,0,0,0.1,0.1,0.1c0.3,0.1,0.9,0.1,1.2,0.3
		c0.1,0,0.1,0.2,0.3,0.3c0.1,0.1,0.3-0.1,0.4,0c0,0,0,0.1,0,0.1c0.1,0,0.2,0,0.3-0.1c0.1,0.1,0.2,0.3,0.4,0.3
		c0.3,0.2,1.1,0.4,1.6,0.4c0.2,0,0.9,0.1,0.9,0.1c0.1,0.1,0.2,0,0.4,0.1c0,0,0.1,0,0.1,0.1c0.1,0,0.2-0.1,0.3-0.1c0,0,0.1,0,0.1,0
		l0.3,0c0.2,0.2,0.4-0.3,1.2,0c0.3,0.2,0.8,0,0.8,0s0,0.1,0.1,0.1h0.1c0.4,0,0.6-0.1,0.8-0.1c0.1,0,0.1-0.1,0.1,0
		c0.3,0,0.6-0.3,1.2-0.5c0,0,0,0,0,0.1h0c0.1,0,0.3,0.3,0.4,0.2c0,0.5,0,1.4-0.6,1.5c-0.1,0-0.3,0.1-0.6,0.1c-0.2,0-0.1,0.1-0.2,0.1
		l0,0c0,0,0-0.1-0.2-0.1c-0.1,0-0.3,0.1-0.5,0c-0.1,0-0.1-0.1-0.1-0.1c-0.1-0.1-0.1,0.1-0.3,0.1c0,0-0.1,0-0.1,0l0,0v0.1
		c0,0-0.1,0-0.1,0c0,0-0.7,0.1-1.1-0.1c-0.1,0-0.1,0-0.2,0c-0.3,0-1,0.1-1.1,0.2C382.2,335.3,381.9,335.5,381.8,335.4z M361.6,334.2
		c-0.2,0.8-0.3,1-1.2,1c-0.1,0.4-0.6,0.3-0.9,0.5c-0.2,0.1-0.3,0.5-0.5,0.5c0,0,0,0,0,0.1c0,0.3-0.2,0.4-0.3,0.6c0,0,0,0,0,0.1
		c0,0.1-0.2,0-0.2,0.2l-0.1,0.3v0.1c-0.4,0.1-0.3,0.7-0.7,0.8c0,0.1,0,0.2,0,0.2c-0.1,0.3-0.2,0.4-0.4,0.4c-0.2,1.1-0.5,0.5-0.5,0.8
		v0.1c-0.1,0-0.1,0.2-0.1,0.3c0,0.1-0.1,0.2-0.1,0.4c0,0.1-0.1,0.2-0.1,0.3c0.1,0,0.1,1.3,0.1,1.3c0,0,0,0.1,0,0.1v0c0,0,0,0,0.1,0
		c0,0,0,0,0,0c0,0,0,0.1,0,0.1c0,0,0.1,0,0.1,0c0,0,0,0.1,0,0.1c-0.1,0.5,0.5,1,0.6,1c0,0,0,0,0,0c0,0,0.1,0,0.1,0
		c0,0.1,0,0.2,0.1,0.3c1.4,0.2,2.1-1.2,2.5-1.5c0.1-0.1,0.2-0.2,0.3-0.3c0.1-0.1,0.1-0.3,0.1-0.4c0.1-0.1,0.3-0.1,0.3-0.3v0
		c0.1-0.1,0.1-0.2,0.1-0.2c0-0.1,0-0.2,0-0.4c0-0.1,0.3-0.6,0.3-0.7c0.3-0.8,0.5-1.6,0.6-1.8c0-0.1,0-0.1,0-0.2
		c0-0.2,0.1-0.3,0.1-0.4c0-0.2,0-0.4,0.1-0.6c0-0.1,0.1-0.2,0.1-0.3c0-0.3-0.1-0.6,0-0.9c0-0.1,0-0.2,0-0.2c-0.2-0.5,0-0.9-0.1-1.3
		c0,0-0.2-0.1-0.2-0.1c0-0.1,0-0.1,0-0.1c0-0.3-0.4-0.7-0.4-0.7h0c0,0.1,0,0.2,0,0.3C361.4,334,361.6,334,361.6,334.2z M373.5,336.5
		c-0.4,0.6-1.1,1.3-1.7,1.5c0,0.7-0.3,0.3-0.6,0.7l0,0c0,0.1,0,0.2,0,0.2c0,0.1-0.5,0-0.5,0.3c0,0.3,0.1,0.3,0.1,0.4
		c0,0.4-0.4,0.4-0.5,0.7c0,0.1,0,0.3,0,0.3c0,0.1-0.1,0.4-0.3,0.4c-0.2,0,0,0.5-0.2,0.5c0,0-0.1,0-0.2,0v0.3c0,0.4-0.1,0.8-0.1,1
		c0,0.1,0.1,0.1,0.1,0.3c0,0.1,0,0.3-0.1,0.4c0.6,0,0.3,0.7,1,0.7c0.3,0,0.3-0.1,0.4-0.3c0.1-0.1,1,0,1.1-0.1
		c0.1-0.3,0.8-0.7,0.8-0.7v-0.1c0.2-0.3,0.6-0.7,0.6-0.7v-0.1c0-0.1,0.7-0.4,0.9-0.7c0.1-0.4-0.1-0.7,0.3-0.9c0.1-0.5,0.6-0.9,0.6-1
		v-0.1c0-0.1,0.1-0.3,0.1-0.4c0.1-0.1,0-0.6,0.2-0.7c0,0,0-0.1,0-0.1c0-0.4,0.3-0.6,0.4-1c0,0,0-0.2,0-0.2c0-0.1,0-0.1,0-0.3v-0.1
		c0.1-0.2-0.1-0.5-0.1-0.7c0-0.3-0.2-0.6-0.7-0.6C374.6,335.9,374.1,336.5,373.5,336.5z"/>
	<path class="st1" d="M386.7,338.8c0-0.2-0.1-0.2,0.1-0.3c0.2-0.1,0.7-0.7,0.9-0.8c0.1-0.2-0.1-0.4,0.3-0.4c0.1-0.2,0.6-0.5,1-0.6
		c0-0.3,0.4-0.7,0.8-0.7c0.3-0.4,0.9-0.6,1.1-1c0.4-0.1,0.6-0.4,0.9-0.5c0-0.1,0.1-0.1,0.2-0.2c0.1-0.1,0.4-0.3,0.5-0.5
		c0.1,0,0.1-0.1,0.1-0.1c0.2-0.1,0.4-0.3,0.6-0.4l0.5-0.2l0.7-0.4c0,0,0.1,0,0.1,0c0.1,0,0.2-0.1,0.3-0.3c0.1,0,0.3,0.1,0.4,0
		c0.1,0,0.1-0.2,0.1-0.2c0.1,0,0.3,0,0.3,0c0.2-0.1,0.4,0.4,0.6,0.3c0.2-0.1,0.2,0.2,0.4,0.3c0,0,0.1,0,0.2,0v0h0.1c0,0,0,0.1,0,0.1
		c0.2,0.2,0.3,0.6,0.7,0.6c-0.2,0.1,0,0.3,0.1,0.5c0,0.1,0,0.4,0.1,0.5c0.1,0.2-0.1,0.3-0.1,0.4c-0.1,0.3,0,0.7-0.1,0.9
		c-0.1,0.1-0.3,0.2-0.4,0.4c-0.6,0-0.6,0-1.1,0c0-0.1-0.3-0.1-0.4-0.1c0,0,0-0.1,0-0.1c-0.1-0.1-0.2-0.3-0.3-0.3
		c0-0.5-0.2-0.7-0.4-0.9c-0.4,0-0.5-0.3-0.6,0c-0.4,0-0.5,0.2-0.6,0.4c-0.4,0-0.6,0.2-0.7,0.4h-0.5c-0.2,0.1,0.1,0.2,0,0.4
		c-0.3,0-0.5,0.3-0.7,0.2c-0.1,0,0,0.3-0.1,0.3c-0.3,0.1-0.5,0.4-0.7,0.6c-0.1,0.1-0.3,0.2-0.4,0.1c-0.1,0.3-0.4,0-0.4,0.3
		c-0.3,0.1-0.4,0.3-0.6,0.4c0,0.3-0.7,0.4-0.6,0.7c-0.3,0-0.7,0.6-0.9,0.7c-0.1,0.1-0.6,0.5-0.6,0.6c0,0-0.1,0-0.1,0.1
		c-0.2,0.2-0.4,0.5-0.5,0.6l-0.4,0.4c-0.1,0.1-0.2,0.3-0.4,0.5c0,0,0,0.1-0.2,0.1c0,0.2-0.1,0.3-0.1,0.4v0c0,0-0.1,0.3-0.1,0.4
		c-0.3,0.3-0.2,0.4-0.2,0.8c-0.1,0.1-0.1,0.3-0.3,0.3c0,0.6-0.3,0.8-0.3,1.3c-0.1,0.1-0.1,0-0.4,0c0,0.1-0.2,0.1-0.3,0.1
		c0,0.1,0,0.1-0.2,0.1c0,0,0-0.1-0.1-0.1c0,0.1-0.1,0.2-0.2,0.3c-0.3-0.2-0.6-0.4-0.8-0.8c0,0-0.1,0-0.1-0.1c0-0.1,0-0.2-0.1-0.2
		l0.1-0.5c0,0,0.1-0.1,0.2-0.1c0,0,0-0.1,0-0.1c0.1-0.1,0-0.3,0.1-0.4c0.1-0.1,0.1-0.4,0.4-0.7c0-0.3,0-0.4,0-0.6l0.2-0.5
		c0,0,0.1,0,0.1-0.1V341c0,0,0.1,0,0.1-0.1c0-0.1,0-0.2,0-0.2c0,0,0.1,0,0.1-0.1c0-0.2,0-0.3,0-0.4c0-0.1,0.1-0.2,0.2-0.4
		c0-0.1,0-0.3,0.1-0.4c0-0.1,0-0.2,0.1-0.3c0,0,0.3-0.2,0.3-0.3c0-0.2,0.3-0.5,0.4-0.7c-0.1-0.3,0.1-0.5-0.1-0.8
		c0.2,0,0.1-0.3,0.2-0.3c0-0.4,0.2-0.8,0.3-1.2c0-0.2,0-0.4,0.1-0.6c0,0,0-0.1,0-0.2c0.1,0-0.1,0,0-0.2l0.1-0.4v-0.1
		c0-0.1,0.1-0.2,0.1-0.3c0.1-0.2,0-0.4,0.1-0.6c-0.1-0.3-0.1-0.4,0.1-0.6c0-0.2,0.1-0.3-0.2-0.5l-0.1-0.2c0,0-0.1-0.3-0.1-0.3
		c0.1,0,0-0.1,0.1-0.1c0.2-0.1,0.1-0.2,0.4-0.3c0,0,0.1,0,0.1,0v-0.1c0.3-0.1,0.4-0.1,0.8,0c0.1,0,0.2,0,0.3,0.1c0,0,0,0.1,0.1,0.2
		c0,0,0.1,0,0.1,0c0,0,0,0.1,0.2,0.1c0.3,0,0.1,0.3,0.5,0.3c0,0.1,0,0.2,0,0.3c0,0.1,0.1,0.1,0.1,0.4c0,0-0.1,0-0.1,0
		c0.1,0.1,0,0.1,0,0.3c0,0,0.1,0,0.1,0.1c0,0-0.1,0.1-0.1,0.2c0,0.1,0,0.2-0.1,0.3c0,0.1-0.1,0.2-0.3,0.3c0,0.4,0,0.4-0.1,0.7
		c0,0,0,0.2,0,0.2c-0.2,0.1,0,0,0,0.3l-0.1,0v0.3c0.1,0.1-0.1,0.1-0.2,0.1c0,0.4-0.4,1.1-0.6,1.6c0,0.1-0.4,1.2-0.3,1.2
		C386.6,338.1,386.1,339.5,386.7,338.8z"/>
	<path class="st1" d="M422.2,343.3c0,0.2,0,0.2,0.1,0.4c0,0.1,0.1,0.1,0.1,0.1c-0.1,0.1,0.1,0.4,0.2,0.5c0.1,0,0.6,0.1,0.7,0.2
		c0.1,0,0.2-0.3,0.3-0.3c0,0,0.1,0.1,0.2,0.1c0.1-0.1,0.3-0.2,0.5-0.3l0.2,0c0.1-0.1,0.1-0.2,0.4-0.3c0.1,0,0.1,0,0.2-0.1
		c0.2-0.1,0.2-0.2,0.3-0.2c0.1,0,0.2,0,0.2,0c0.1-0.1,0.2-0.2,0.4-0.2c0.1-0.1,0.2-0.1,0.3-0.2l0.2-0.1c0.2,0.1,0.3,0,0.6,0
		c0.1-0.1,0.1-0.2,0.3-0.3c0.1,0,0.2-0.1,0.2-0.1l0.2,0.1c0,0,0-0.1,0.1-0.2c0.1,0,0.3-0.1,0.5,0c0.1-0.2,0.3-0.1,0.3-0.3
		c0.1,0,0.2-0.1,0.2-0.1c0,0,0-0.1,0-0.1v-1c0-0.6,0.2-1,0.4-1.7c0,0-0.1-0.1-0.1-0.2c0-0.1,0.3-0.4,0.3-0.7c0-0.2,0-0.7,0.1-0.7
		h0.2c0-0.1,0-0.1,0-0.1c0,0,0.1-0.1,0.1-0.4v-0.1c0.4,0,0.7-1,0.7-1.2c0.6-0.1,0.7-0.9,1-0.9c0,0,0.1,0,0.2,0c0-1,1.3-1.8,2.1-2.5
		c0.1-0.1,0.6-0.7,1.9-1.2c0,0,0.1,0.1,0.2,0.1c0.1,0,0.1-0.1,0.2-0.1c0,0,0.1,0.1,0.3,0.1c0,0,0.2-0.1,0.6-0.1c0.6,0,1.8,1.5,1.8,2
		c0.1,0.1,0.4,0.2,0.6,0.4c0,0.1,0,0.1,0,0.1v1c0,0.1-0.1,0.3-0.2,0.3h-0.1v0.1c0,0.3-0.1,0.4-0.1,0.7H439c-0.7,0-0.2,0.3-0.5,0.8
		h-0.1c0,0-1.1,1-1.1,1.1v0.1c-0.7,0-0.9,0.6-1.2,1c0,0.1-0.4,0.5-0.6,0.5h-0.1c-0.2,0-1.2,1-1.2,1c-0.2,0.2-1,0.9-1.2,0.9h-0.2
		c-0.1,0,0,0.1-0.1,0.1h-0.1v0.1c-0.1,0-0.4,0-0.5,0.1c-0.2,0.1-0.7,0.7-0.7,0.7c0,0.3-0.1,0.6-0.1,0.8c0,0.1,0.2,0,0.1,0
		c0.1,0.3,0.7,0.7,0.7,0.7c0.1,0,0.4,0.1,0.7,0c0.3,0,0.5,0,0.6,0c0.7-0.1,1.4-0.4,1.6-0.4c0.1,0,0.1,0,0.1,0.2
		c0.1,0,0.2-0.3,0.3-0.3h0.2c0,0,0-0.1,0-0.1l0,0c0,0,0.1,0,0.1,0c0,0,0,0,0-0.1c0.7-0.1,1.1-0.4,1.5-0.4h0.1c0,0,0.7-0.4,1-0.5
		c0.3-0.2,0.2-0.6,0.9-0.6c0.4-0.3,0.9-0.3,1.2-0.9c0,0,0.1,0,0.1,0c0.1,0,0.2-0.1,0.3-0.1h0.1c0,0,0,0,0,0v-0.1
		c0.1,0,0.6-0.4,0.7-0.4h0.1c0.2,0,1.1-1,1-1h0.2c0,0,0,0,0-0.1s0,0,0.1,0h0.1c0.1,0,1.3-1.2,1.3-1.2h0.1c0,0,0,0,0,0v-0.2h0.1
		c0,0,0.6-0.4,0.7-0.9c0.6,0,1-0.9,1-0.8c0.1,0,0.2,0.1,0.3,0.1c0.1,0,0.3-0.1,0.4-0.1c0,0.1,0.1,0.1,0.1,0.1c0.3,0.1-0.9,1-0.4,1
		c0,0-0.1,0.4-0.1,0.3c0,0-0.4,0.4-0.4,0.4c-1,0.3-0.2,0.4-0.6,0.4c-0.1,0.1-0.3,0.7-0.6,0.7h-0.1c0,0-0.7,0.4-0.7,0.5
		c0,0.1,0,0.1,0,0.1c0,0.2-0.3,0.3-0.4,0.4c-0.3,0.2-0.6,0.5-0.6,0.5c-0.3,0-0.5,0.4-0.6,0.7c-0.4,0-0.4,0.3-0.8,0.5
		c-0.1,0-0.1,0-0.1,0c-0.4,0-0.3,0.6-0.6,0.6c-0.2,0-0.4,0.3-0.6,0.4c-0.5,0-1.4,0.7-1.4,0.7c-0.5,0.1-0.3,0-0.7,0.4h-0.1
		c-0.2,0-0.4,0.4-0.6,0.4h-0.1v0.1h-0.2c-0.1,0,0,0.1-0.1,0.1l-0.1,0l0,0c0,0.1,0,0.1,0,0.1h-0.2v0.1H437c0,0-0.6,0.1-0.6,0.2
		c0,0,0,0.1,0,0.1c-0.1,0-0.1,0-0.2,0c-0.3,0-0.4,0.2-0.6,0.3h-0.2v0.1h-0.1c-0.1,0-0.1,0-0.4,0h-0.1c-0.2,0-0.3,0.3-0.6,0.3
		c0,0-0.1,0-0.1,0c-0.1,0-0.4,0.1-0.6,0.1c-0.1,0-0.2,0-0.3-0.1c-0.1,0.2-0.4,0.2-0.5,0.3c-0.3-0.1-0.9-0.1-1.2-0.2v0
		c0-0.1-0.1-0.1-0.2-0.1c-0.1,0-0.2,0-0.2,0.1v0c-0.3-0.1-0.3-0.3-0.6-0.4c-0.4-0.1-0.5-0.6-0.8-0.6c-0.3,0-0.2-0.6-0.3-0.9
		c-0.3,0.1-0.6,0.2-0.7,0.4c-0.3-0.1-0.3,0.2-0.5,0c-0.6,0.3-1,0.8-1.6,0.9c0,0.2-0.3,0.1-0.4,0.4c-0.2,0-0.4,0.1-0.6,0.1
		c-0.2,0-0.4,0.2-0.6,0.3c-0.1,0-0.3,0.1-0.3,0.1c-0.1,0.1-0.3,0-0.3,0.2c0,0-0.2,0.1-0.2,0.1c0-0.1-0.1-0.1-0.1-0.1
		c-0.4-0.1-0.9,0.3-0.9,0.3c-0.1,0-0.1-0.1-0.2-0.2c-0.1,0.1-0.1,0.2-0.3,0.1l-0.4-0.1c-0.1,0-0.3,0-0.5,0c-0.1-0.1-1-0.4-1-0.4
		c0-0.1,0.1-0.1,0.1-0.1l0-0.1c0,0-0.6-0.1-0.4-0.3v-0.1c0-0.1,0,0,0-0.1v-0.1c0,0-0.2-0.3-0.1-0.4c0-0.2,0-0.4,0.1-0.5
		c-0.1-0.3-0.3-0.5-0.3-0.8c0-0.1,0.1-0.1,0.1-0.2c0,0-0.1,0-0.1-0.1c0-0.1,0.1-0.2,0.1-0.4c0-0.1,0-0.1,0-0.2c0-0.3,0.3-0.6,0.3-1
		c0-0.1,0-0.3,0-0.4c0.1-0.3,0.2-1.1,0.2-1.2c0,0,0-0.1,0-0.1c0-0.2-0.1-0.2-0.1-0.3c0.1,0,0.2-0.9,0.4-1.1v-0.2c0-0.1,0-0.3,0-0.6
		c0-0.2,0.2-0.4,0.2-0.6c0,0-0.1-0.1-0.1-0.4v-0.4c0-0.2,0-0.3-0.1-0.5c-0.6,0-0.8,0.4-0.8,0.4c0,0-0.7,0.7-0.7,0.7
		c-0.2,0-0.2,0.1-0.3,0.1c0,0-0.1,0-0.1,0c-0.1,0.3-0.6,1-0.8,1c0,0-0.1,0-0.1,0c0,0.3,0,0.3,0,0.4c0,0.1,0,0.1,0,0.2h-0.1
		c-0.3,0-0.2,0.3-0.4,0.3c0,0-0.1,0-0.1,0c0,0,0,0.1,0,0.1v0.1c0,0.3-0.3,0.1-0.4,0.2c-0.4,0.4-0.5,1-0.9,1c0,0-0.1,0-0.1,0
		c0,0.9-0.3,0.7-0.7,1.1c0,0.1,0,0.1,0,0.1c0,0.1-0.1,0.2-0.1,0.3v0.1c-0.4,0.2-0.6,0.7-1,0.8v0.7c0,0.3-0.3,0.1-0.3,0.3
		s0.1,0.2,0.1,0.3c0,0.2-0.4,0.5-0.6,0.7v0.2c0,0.3-0.4,0.9-0.6,0.9c-0.4,0-0.6-0.1-0.8-0.1c-0.7,0-0.4,0.7-1.1,0.7
		c-0.4,0-0.8-0.7-0.8-0.7c0-0.1,0-0.1-0.1-0.2v-0.4c0-0.3,0.2-0.3,0.2-0.6v-0.4c0-0.2,0.1-0.2,0.1-0.3c0-0.1-0.1-0.1-0.1-0.1
		c0-0.4,0.1-0.7,0.1-1V342c0,0,0.3-0.8,0.4-0.8c0-0.1,0-0.2,0-0.4c0-0.4,0.3-0.5,0.3-0.9c0.1-0.3,0-0.7,0.1-1c0,0,0.1-0.1,0.1-0.2
		c0.2-0.5,0.1-1.7,0.6-2.1c0-0.1,0-0.1,0-0.2c0-1,0.4-1.5,0.5-1.6c0-0.1,0-0.1,0-0.2c0-0.3,0.1-1,0.4-2.1v-0.1
		c0-0.1,0.2-0.1,0.2-0.2c0.1-0.2,0.1-0.4,0.2-0.6c0,0,0-0.1,0-0.3c0-0.1,0.1-0.1,0.1-0.4v-0.2c0.2-0.1,0.1-0.6,0.4-0.6
		c-0.1-0.1-0.1-0.2-0.1-0.4c0.1,0,0.3,0,0.3-0.1c0-0.1-0.1,0-0.1,0c0-0.1,0.2-0.4,0.2-0.6c0,0-0.1,0-0.1,0s0.1,0,0.1,0
		c0-0.1,0.1-0.5,0.1-0.6c0-0.1,0-0.1,0-0.2c0-0.2,0.2-0.1,0.2-0.3v-0.2c0-0.1,0.1,0,0.1-0.1c0-0.1,0-0.1,0-0.2
		c0-0.1,0.1-0.1,0.2-0.1c0.1-0.3,0.3-0.8,0.3-1.1v-0.2c0-0.2,0.1-0.1,0.1-0.3c0,0-0.1,0-0.1-0.1c0,0,0.1-0.1,0.1-0.1s0-0.1,0-0.1
		c0-0.1,0.1-0.1,0.1-0.2c0-0.1,0-0.1,0-0.2c0-0.3,0.3-0.4,0.3-1.3c0-0.1,0-0.2,0-0.3c0,0,0.7-0.4,0.9-0.5c0.5,0.3,1.1,0.3,1.3,0.9
		c0.2,0.1,0.4,0.1,0.6,0.3c0,0.2-0.2,0.3-0.2,0.6c0,0,0,0.2,0,0.3c0,0.2-0.4,0.4-0.4,0.6v0.1c0,1-0.3,1.2-0.3,1.3
		c-0.1,0.2-0.3,0.1-0.3,0.4c0,0.3-0.3,0.3-0.3,0.7c0,0,0,0.1,0,0.1c-0.2,0-0.1,0.4-0.4,0.4v0.1c0,0.5-0.1,0.8-0.7,0.8
		c0,0-0.1,0-0.2,0c-0.1,0.1,0,0.4-0.2,0.4l0,0c0,0.1,0,0.3,0.1,0.3c-0.4,0.4-0.2,0.9-0.7,1.4c0,0.2,0,0.4,0,0.6
		c0,0.1-0.2,1.2-0.4,1.2v0.1c0,0.4-0.3,1-0.4,1.1c-0.1,1,0,1.5-0.6,3v0.2c0,0.2-0.1,0.1-0.1,0.4v0.3c0,0.3-0.2,0.8-0.4,0.9
		c0,0.9-0.1,1-0.1,1.7c0,0.3-0.3,0.3-0.4,0.6c0.1,0.3,0,1,0.4,1c0.2,0,0.1-0.3,0.3-0.4c0-0.3,1-0.9,1-1.3c0-0.1,0.4-0.3,0.4-0.4
		v-0.1c0-0.1,0.3-0.1,0.3-0.2v-0.1c0-0.1,0.3-0.4,0.5-0.4v-0.1c0-0.4,0.7-0.8,0.9-0.8c0.1-0.1,0.4-0.7,0.4-0.8
		c0.1-0.5,1.7-1.9,2-2.1c0.3-0.2,0.4-0.4,0.7-0.8c0.2-0.2,1.6-1.2,1.6-1.6v-0.1c0.1,0,0.1,0,0.2,0c0.2,0,0.3-0.3,0.5-0.3
		c0.1,0,0.2,0.1,0.3,0.1c0.1,0,0.1-0.1,0.3-0.1c0.1,0,0.1,0.1,0.1,0.1c0.5,0.1,0.7,0.4,0.7,0.5v0.3c0,0.1,0,0.3-0.1,0.3
		c0,0.2,0.6,0.4,0.5,0.4c0.1,0,0.2-0.2,0.2-0.2c0,0,0,0,0,0.1v0.1c0,0.2,0,0.4,0.2,0.5c-0.1,0.2-0.2,0.3-0.3,0.4
		c0.1,0,0.1,0.1,0.1,0.3v0.3c0,0.2,0,0.3,0.1,0.3c0,0.1-0.2,0.1-0.2,0.3c0.1,0.1,0.1,0.2,0.1,0.4v0.4c0,0.3-0.2,0.4-0.4,0.5
		c0.1,0.1,0.1,0.2,0.1,0.3c0,0.2-0.1,0.4-0.1,0.5c0,0.1,0.1,0.2,0.2,0.3c0,0.2-0.3,0.2-0.5,0.2c0,0.1,0,0.2,0,0.2
		c0,0.4-0.2,0.6-0.2,0.9c0,0.1,0,0.2,0.1,0.3c-0.2,0.1-0.3,0.4-0.3,0.6c0,0.4,0.2,0.8,0.3,1.1c-0.1,0,0,0.3-0.1,0.4
		C421.9,343.2,422.2,343.3,422.2,343.3z M436.4,333c-0.1,0.1,0,0.3-0.1,0.4c-0.1,0-0.2,0-0.3,0.1c-0.2,0.1-0.2,0.4-0.4,0.4
		c-0.2,0-0.2-0.2-0.4-0.2c-0.3,0-0.7,0.9-1.1,1.1c-0.4,0-0.4,0.3-0.8,0.3c-0.1,0.1-0.3,0.5-0.3,0.6c0,0.2,0,0.3,0,0.4
		c0,0.3-0.3,0.1-0.3,0.3v0.2c0,0.1-0.3,0.3-0.4,0.4c-0.1,0-0.1-0.1-0.2-0.1c-0.3,0-0.4,1-0.4,1.2c0,0.1-0.3,0.6-0.3,0.8
		c-0.1,0.4-0.2,0.7-0.2,1.3c0.1,0,0.2,0,0.3,0c0.3,0,0.6-0.2,0.9-0.4c0,0,0,0,0-0.1v0c0.4-0.3,0.8-0.7,1-0.9
		c0.8-0.6,1.6-1.4,1.7-1.5c0.2-0.2,0.6-0.6,0.9-0.6h0.2c0.2-0.9,1.3-1.1,1.3-1.5c0-0.4,0.4-0.4,0.4-0.6c0-0.1-0.1-0.2-0.1-0.3
		c0-0.2,0.1-0.3,0.1-0.4c0-0.3-0.5-0.5-0.9-0.6c0,0.1-0.1-0.4-0.1-0.3c0,0-0.1,0-0.1,0C436.6,333.3,436.6,332.9,436.4,333z"/>
	<path class="st1" d="M451.6,327.2v0.1c0,0.3-0.1,0.8-0.4,0.8c0,0,0,0.1,0,0.1c0,0.1-0.1,0.3-0.2,0.4v0.2c0,0.3-0.3,0.3-0.3,0.7
		c0,0.1,0,0.1,0.1,0.1c0.2,0,0.3-0.2,0.4-0.2c0.2,0,0.2,0.2,0.4,0.2c0.3,0,0.5-0.3,0.7-0.4c0.9,0,1.9-0.1,2.7-0.3
		c1.1-0.4,1.3-0.1,2.4-0.6h0.1c0.1,0,0.3,0,0.4,0c0.1,0,0.2-0.1,0.4-0.1c0,0,0.1,0,0.1,0c0.1,0,0.1-0.1,0.3-0.1
		c0.2,0,0.6,0.2,0.9,0.2h0.1v0.1c0,0.2,0.2,0.3,0.2,0.5c0,0.4-0.6,0.4-1.2,0.8c-0.1,0-0.1,0.1-0.1,0.1c0,0,0-0.1-0.2-0.1
		c-0.1,0-0.3,0.2-0.4,0.2c-0.1,0-0.3-0.1-0.4-0.1c-0.5,0-1.1,0.5-1.8,0.4c-0.3,0.4-1.6,0.1-1.9,0.4c-0.5,0.5-2.1,0.7-2.2,0.7
		c-0.1,0-0.1,0-0.2,0c-0.1,0-0.3,0-0.4,0c-0.1,0.1,0,0.1-0.1,0.1c-0.1,0-0.1,0-0.1-0.1v0c-0.3,0.1-0.4,0.4-0.7,0.4
		c-0.1,0-0.1,0-0.1,0v0.1c0,0.3-0.6,1.6-0.9,1.7v0.7c-0.4,0.4-0.5,2.2-0.9,2.2c0,0.1,0,0.2,0,0.3c0,0.5-0.6,1-0.6,1.9
		c0,0.3-0.2,0.5-0.2,0.9c0,0,0,0.1,0,0.3c0,0,0,0.1-0.1,0.2c0,0.1-0.1,0.2-0.1,0.3l-0.1,0.6c-0.1,0.3,0,0.4-0.1,0.6
		c-0.1,0.4,0.1,0.4,0.1,1c0,0.3-0.1,0.5-0.1,0.7c0.1,0.9,0.3,1.3,0.7,1.4c0.7,0.5,1.3,0,1.9,0c0,0,0.5-0.2,0.5-0.2
		c0.5,0.1,0.7-0.7,1.1-0.9c0.4,0,0.6-0.2,0.9-0.4c0.3,0.1,0.6,0.3,0.3,0.6c-0.4,0.7-0.7,0.9-1.3,1.2c-0.3,0.4-0.4,0.5-0.9,0.9h-0.1
		c-0.1,0,0,0.1,0,0.1h-0.1v0.1h-0.1v0.1c0,0,0,0,0,0s-0.1,0-0.1,0c-0.1,0.1-0.1,0.1-0.3,0.1h-0.1c-0.1,0.1-0.9,0.3-1.2,0.3
		c-0.1,0-0.6-0.1-0.7-0.2c-0.5-0.1-1.5-0.4-1.2-1.2h-0.1c-0.5-0.1-0.3-1.3-0.6-1.6c0,0,0-0.1,0-0.1c0.1-0.3-0.1-0.4,0-0.8
		c0-0.1,0.1-0.1,0.1-0.1c0-0.7-0.2-0.7,0-1.6c0,0,0,0,0-0.1c0-0.1,0.1-0.3,0.1-0.5c0-0.1,0.3-0.6,0.2-0.9c-0.1-0.4,0.4-1.1,0.4-1.2
		c0-0.1,0.1-0.8,0.1-0.9c0-0.1,0.2-0.1,0.2-0.2c0-0.1-0.1-0.1-0.1-0.1c0-0.1,0.4-1.3,0.7-1.3c0-0.3,0-1.3,0.4-1.4V334
		c0-0.9,0.6-1.1,0.6-1.9c0-0.2-0.1-0.3-0.3-0.3c-0.3,0-0.6,0.1-0.7,0.1h-0.4c-0.2,0-0.4,0-0.4,0.2c-0.6-0.1-1.1-0.2-1.6-0.2
		c-0.2,0-0.4,0-0.6,0.1c-0.1-0.5-1.9,0.1-2-0.5c-0.8,0-0.8-0.1-1-0.4H441c-0.3,0-0.6-0.1-0.7-0.2c0.1-0.8,0-1.6,0.8-1.6
		c0.3,0,0.4,0.1,0.6,0.3c0.7,0.2,1.6,0.2,1.8,0.5c0.1,0,0.2,0,0.3,0c0.3,0,0.7,0.1,1.1,0.1c0.3,0,0.9-0.1,1.2-0.1
		c0,0.1,0.1,0.2,0.2,0.2c0.2,0,0.5-0.1,0.7-0.1c0.1,0,0.1,0,0.2,0.1c0.6-0.1,1-0.1,1.7-0.2c0.5-0.4,0.5-1.4,0.9-1.7
		c0-0.1,0-0.1,0-0.1c0-0.7,0.5-1.2,0.5-1.2v-0.1l0,0c0,0,0,0,0-0.1v-0.1c0.1-0.4,0.7-1.9,0.7-1.8v-0.1c0.1-0.1,0.1-0.1,0.3-0.1v-0.1
		c0-0.3,0.2-0.5,0.2-0.8v-0.1c0.3-0.1,0.5-1.2,0.5-1.2c0-0.1,0-0.2,0.1-0.4c0,0,0,0,0-0.1c0-0.4,0.3-1.2,0.3-1.9
		c0.3-0.1,0.9-0.3,1-0.4c0.4,0,0.4,0.4,0.9,0.4c0,0,0.1,0,0.1,0c0.1,0.1,0.6,0.4,0.6,0.9c0,0.3-0.1,0.5-0.2,0.7
		c0,0.1,0.1,0.3,0.1,0.3c0,0.5-0.3,0.8-0.3,0.9v0c0,0.3-0.4,0.6-0.4,0.7v0.1c-0.6,0.1-0.9,1-1.2,1.7
		C452,325.5,452.2,327.2,451.6,327.2z"/>
	<path class="st1" d="M466.6,336.8c0.1-0.3,0-1.5,0.3-1.7c0,0,0,0,0-0.1c0,0-0.1,0-0.1-0.4c0-0.3,0.3-1.6,0.6-2.6
		c0-0.1,0.1-0.2,0.1-0.4c0,0,0-0.1-0.1-0.1c0.1-0.1,0.1-0.4,0.3-0.4c0-0.1-0.1-0.1-0.1-0.2c0,0,0.1-1,0.4-1.2c0-0.1-0.1-0.1-0.1-0.2
		c0-0.4,0.3-1.1,0.4-1.2c0.6-1.4,0.3,0,0.6-1.7c0.2-0.8,0.9-1.7,0.9-2.2c0-0.4,0.7-1.1,0.7-1.2c0-0.3,0.1-0.5,0.3-0.6
		c0,0,0-0.1,0-0.1c0-1,1.6-3,1.5-3c0-0.3,0.5-0.9,0.5-1c0-0.3,0.5-1.1,1-1.3c0-0.4,0-1.4,0.6-1.4c0-0.6,0.7-0.6,1.2-0.9
		c0.4,0.3,0.9,0.5,0.9,0.6c0,0.3,0.6,0.6,0.6,0.7c0,0.2,0,0.4,0,0.6c0,0.1,0,0.3,0.1,0.3c-0.2,0.5-1,1-1,1.5c0,0.1,0,0.2,0.1,0.4
		c-0.6,0.8-0.8,1-0.8,1.4c0,0,0,0.1,0.1,0.2c-0.6,0.2-0.4,1-0.6,1.2c0,0.1,0,0.1,0,0.1c0,0.2,0.1,0.3,0.1,0.5c-0.4,0,0.1,1.5-1.1,2
		c0,0.1,0,0.2,0,0.3c0,0.6-0.7,1.4-0.7,1.7c0,0.2,0.1,0.2,0.1,0.4c-0.2,0.2-0.7,1.5-0.7,1.4c0,0.4-0.8,1.5-0.8,1.5c0,0-0.1,0-0.1,0
		c0,0.7-0.5,0.9-0.5,1.7c0,0-0.7,0.8-0.7,1.3c-0.3,0-0.8,0-0.8,0.2c0,0.2,0.3,0.1,0.3,0.3c0,0.8-0.6,1.3-0.6,1.3
		c-0.1,0.2-0.6,1.2-0.6,2c0,0.3-0.5,0.4-0.7,0.7c0,0,0,0.1,0,0.1c0,0.1,0,0.2,0,0.3c0,0.3,0.1,0.6,0.3,0.9c-0.1,0.2-0.1,0.4-0.1,0.6
		c0,1.1,0.4,2.9,0.5,2.9c1.1,1.7,1.7,1.5,1.6,1.5c0.1,0,0.2-0.1,0.4-0.1c0.1,0,0.3,0.3,0.9,0.3c0.6,0,0.7-0.3,1.4-0.3
		c0.3,0,0.3-0.2,0.6-0.2c0.1,0,0.3,0,0.4,0.1c0.2,0,0.8-0.5,0.8-0.5c0.1-0.2,2-1.1,1.8-1.1l0.2-0.1v-0.6v-0.5c0-0.6,0.2-1,0.4-1.7
		c0,0-0.1-0.1-0.1-0.2c0-0.1,0.3-0.4,0.3-0.7c0-0.2,0-0.7,0.1-0.7h0.2c0-0.1,0-0.1,0-0.1c0,0,0.1-0.1,0.1-0.4v-0.1
		c0.4,0,0.7-1,0.7-1.2c0.6-0.1,0.7-0.9,1-0.9c0,0,0.1,0,0.2,0c0-1,1.3-1.8,2.1-2.5c0.1-0.1,0.6-0.7,1.9-1.2c0,0,0.1,0.1,0.2,0.1
		c0.1,0,0.1-0.1,0.2-0.1c0,0,0.1,0.1,0.3,0.1c0,0,0.2-0.1,0.6-0.1c0.6,0,1.8,1.5,1.8,2c0.1,0.1,0.4,0.2,0.6,0.4c0,0.1,0,0.1,0,0.1v1
		c0,0.1-0.1,0.3-0.2,0.3h-0.1v0.1c0,0.3-0.1,0.4-0.1,0.7h-0.1c-0.7,0-0.2,0.3-0.5,0.8h-0.1c0,0-1.1,1-1.1,1.1v0.1
		c-0.7,0-0.9,0.6-1.2,1c0,0.1-0.4,0.5-0.6,0.5h-0.1c-0.2,0-1.2,1-1.2,1c-0.2,0.2-1,0.9-1.2,0.9h-0.2c-0.1,0,0,0.1-0.1,0.1h-0.1v0.1
		c-0.1,0-0.4,0-0.5,0.1c-0.2,0.1-0.7,0.7-0.7,0.7c0,0.3-0.1,0.6-0.1,0.8c0,0.1,0.2,0,0.1,0c0.1,0.3,0.7,0.7,0.7,0.7
		c0.1,0,0.4,0.1,0.7,0c0.3,0,0.5,0,0.6,0c0.7-0.1,1.4-0.4,1.6-0.4c0.1,0,0.1,0,0.1,0.2c0.1,0,0.2-0.3,0.3-0.3h0.2c0,0,0-0.1,0-0.1
		l0,0c0,0,0.1,0,0.1,0s0,0,0-0.1c0.7-0.1,1.1-0.4,1.5-0.4h0.1c0,0,0.7-0.4,1-0.5c0.3-0.2,0.2-0.6,0.9-0.6c0.4-0.3,0.9-0.3,1.2-0.9
		c0,0,0.1,0,0.1,0c0.1,0,0.2-0.1,0.3-0.1h0.1c0,0,0,0,0,0v-0.1c0.1,0,0.6-0.4,0.7-0.4h0.1c0.2,0,1.1-1,1-1h0.2c0,0,0,0,0-0.1
		s0,0,0.1,0h0.1h0c0.1,0,1.3-1.2,1.3-1.2h0.1c0,0,0,0,0,0v-0.2h0.1c0,0,0.6-0.4,0.7-0.9c0.6,0,1-0.9,1-0.8c0.1,0,0.2,0.1,0.3,0.1
		c0.1,0,0.3-0.1,0.4-0.1c0,0.1,0.1,0.1,0.1,0.1c0.3,0.1-0.9,1-0.4,1c0,0-0.1,0.4-0.1,0.3c0,0-0.4,0.4-0.4,0.4
		c-1,0.3-0.2,0.4-0.6,0.4c-0.1,0.1-0.3,0.7-0.6,0.7h-0.1c0,0-0.7,0.4-0.7,0.5c0,0.1,0,0.1,0,0.1c0,0.2-0.3,0.3-0.4,0.4
		c-0.3,0.2-0.6,0.5-0.6,0.5c-0.3,0-0.5,0.4-0.6,0.7c-0.4,0-0.4,0.3-0.8,0.5c-0.1,0-0.1,0-0.1,0c-0.4,0-0.3,0.6-0.6,0.6
		c-0.2,0-0.4,0.3-0.6,0.4c-0.5,0-1.4,0.7-1.4,0.7c-0.5,0.1-0.3,0-0.7,0.4h-0.1c-0.2,0-0.4,0.4-0.6,0.4h-0.1v0.1h-0.2
		c-0.1,0,0,0.1-0.1,0.1l-0.1,0l0,0c0,0.1,0,0.1,0,0.1h-0.2v0.1h-0.1c0,0-0.6,0.1-0.6,0.2c0,0,0,0.1,0,0.1c-0.1,0-0.1,0-0.2,0
		c-0.3,0-0.4,0.2-0.6,0.3h-0.2v0.1h-0.1c-0.1,0-0.1,0-0.4,0h-0.1c-0.2,0-0.3,0.3-0.6,0.3c0,0-0.1,0-0.1,0c-0.1,0-0.4,0.1-0.6,0.1
		c-0.1,0-0.2,0-0.3-0.1c-0.1,0.2-0.4,0.2-0.5,0.3c-0.3-0.1-0.9-0.1-1.2-0.2v0c0-0.1-0.1-0.1-0.2-0.1c-0.1,0-0.2,0-0.2,0.1v0
		c-0.3-0.1-0.3-0.3-0.6-0.4c-0.4-0.1-0.5-0.6-0.8-0.6c-0.3,0-0.2-0.8-0.4-0.9c-0.1-0.1-0.2,0-0.2-0.3h-0.1c-0.3,0.4-0.5,0.9-1.2,0.9
		c0,0.9-1.2,0.5-1.2,0.9c-0.4,0-1.1,0.6-1.4,0.7c-0.6,0-1.2,0.1-1.9,0.1c-0.5,0-1.8-0.1-1.8-0.6c-0.1,0-0.1,0-0.1,0
		c-0.8,0-1.7-1.4-2.2-1.9c-0.1-0.3-0.1-1.3-0.4-1.3c0,0-0.1-0.9-0.2-0.9c0-0.1,0.1-0.2,0.1-0.3c0-0.1-0.3-0.6-0.2-0.7
		c0.1-0.1,0-0.7-0.2-0.8c0,0,0.1-0.6,0-0.6C466.2,338.4,466.5,336.8,466.6,336.8z M468.6,328.9c-0.3,0-0.5,0.4-0.6,0.5
		c0,0.1,0.2,0.1,0.2,0.2s-0.2,1-0.2,1.2c0,0.3,0,0.4,0.2,0.4l0.7-1.5c0.4-0.5,0.4-1.2,0.5-1.8c-0.1,0-0.3-0.1-0.5-0.1
		C468.9,328,468.7,328.4,468.6,328.9z M484.3,333c-0.1,0.1,0,0.3-0.1,0.4c-0.1,0-0.2,0-0.3,0.1c-0.2,0.1-0.2,0.4-0.4,0.4
		c-0.2,0-0.2-0.2-0.4-0.2c-0.3,0-0.7,0.9-1.1,1.1c-0.4,0-0.4,0.3-0.8,0.3c-0.1,0.1-0.3,0.5-0.3,0.6c0,0.2,0,0.3,0,0.4
		c0,0.3-0.3,0.1-0.3,0.3v0.2c0,0.1-0.3,0.3-0.4,0.4c-0.1,0-0.1-0.1-0.2-0.1c-0.3,0-0.4,1-0.4,1.2c0,0.1-0.3,0.6-0.3,0.8
		c-0.1,0.4-0.2,0.7-0.2,1.3c0.1,0,0.2,0,0.3,0c0.6,0,1.6-1.2,1.9-1.3c0.8-0.6,1.6-1.4,1.7-1.5c0.2-0.2,0.6-0.6,0.9-0.6h0.2
		c0.2-0.9,1.3-1.1,1.3-1.5c0-0.4,0.4-0.4,0.4-0.6c0-0.1-0.1-0.2-0.1-0.3c0-0.2,0.1-0.3,0.1-0.4c0-0.3-0.5-0.5-0.9-0.6
		c0,0.1-0.1-0.4-0.1-0.3c0,0-0.1,0-0.1,0C484.5,333.3,484.5,332.9,484.3,333z M491.2,338.7L491.2,338.7L491.2,338.7z"/>
	<path class="st1" d="M508,334.9c-0.3-0.1-0.6-0.2-0.8-0.2c-0.8,0-0.6,0.7-1.1,0.7c0,0.1,0,0.3-0.2,0.4c0,0.1-0.3,0-0.4,0.3h-0.1
		c-0.5,0-0.2,0.3-0.3,0.6c-0.2,0.1-0.4,0.2-0.3,0.5c-0.3,0.1-0.6,0.3-0.6,0.6v0.1c0,0-0.1,0-0.1,0c-0.5,0-0.3,0.6-0.3,0.6
		c-0.1,0-0.3,0-0.3,0.3c0,0,0,0.1,0.1,0.1c0,0.1-0.1,0.1-0.2,0.1h-0.1c0.1,0.4-0.2,0.3-0.3,0.7h-0.1c-0.1,0-0.4,0.2-0.4,0.2
		c0.1,0.4-0.4,1-0.4,1.2c-0.1,0-0.3,0.2-0.3,0.3l0,0.1c-0.1,0.1-0.2,0.2-0.3,0.2v0.1c0,0.2-0.1,0.2-0.1,0.4c0,0,0.1,0.1,0.1,0.1
		c-0.1,0.1-0.3,0.1-0.3,0.4c0.1,0.3,0,0.2,0.1,0.4c0,0.2-0.7,1-1.1,1.3c0,0.1,0,0.1,0,0.1c0.1,0.3-0.3,1.2-0.6,1.2h-0.2
		c-0.2,0-0.4-0.1-0.6-0.1c-0.2,0-0.1,0.1-0.2,0.3c-0.1,0-0.2,0-0.3,0c-0.2,0-0.3,0-0.5,0c-0.3-0.3-0.6-0.4-1-0.5
		c-0.2-0.4-0.7-0.7-1-1l-0.1-0.2c-0.1-0.3-0.3-0.6-0.4-0.9c0-0.3,0-0.6-0.2-1c0,0-0.1-0.3-0.2-0.3c0-0.1,0.1-0.2,0.1-0.3
		c0-0.4-0.2-0.8-0.3-1.3c0,0-0.1-0.7,0-0.7c-0.1-0.1-0.1-0.2-0.1-0.3c-0.1-0.2,0-0.5-0.1-0.8l-0.1-0.3c0,0,0.1,0,0.1,0
		c0-0.1-0.1-0.1-0.1-0.1h0c0-0.3,0.2-0.2,0-0.6l0-0.3c-0.1-0.3,0.1-0.4,0.1-0.6c0,0-0.2-0.2-0.2-0.3c-0.1-0.1,0.1-0.4,0.1-0.6
		c-0.1-0.1-0.2-0.1-0.2-0.2c0,0,0,0,0-0.1c0-0.2-0.1-0.4-0.2-0.6c-0.4-1.3,0.4-1.7,0.3-1.7c0-0.1-0.1-0.1-0.1-0.1
		c-0.1-0.3,0.1-0.6,0.1-0.8L494,332c0-0.1,0.2-0.1,0.1-0.2c-0.1,0-0.2-0.1-0.3-0.2c0-0.2,0.4-0.4,0.4-0.5h0c0,0,0,0.1,0,0.1
		c0.2,0,0.3,0,0.5,0c0.5,0,0.7,0.3,0.9,0.3c0.2,0.1,0.5,0.1,0.7,0.2c0.1,0.1,0.3,0.3,0.5,0.3v0.1c0.1,0.1,0.1,0.1,0.1,0.2
		c0,0.1,0,0.1-0.1,0.1c0.1,0.2,0.4,0.2,0.4,0.3c0,0-0.1,0-0.1,0.1c0,0,0.1,0,0.2,0.1c0.1,0.3-0.2,0.3,0,0.7
		c-0.2,0.2-0.4,0.1-0.5,0.3l0,0.2c0.2,0.4-0.1,0.6,0,1c-0.1,0.1-0.4,0.1-0.3,0.4c0,0.1,0,0.1,0,0.1c-0.5,0-0.2,0.6-0.9,0.7
		c0.1,0.4,0.6,0.9,0.2,0.9l0.1,0.1c0,0.1,0.1,0.2,0.1,0.3c0.1,0.3-0.3,0.1-0.3,0.3c0,0.1,0.1,0.1,0.1,0.2c0,0.1-0.2,0.1-0.1,0.1
		c0,0.1,0.1,0.1,0.2,0.2c0,0.1-0.1,0.1,0,0.2c0,0.1,0,0.1,0.1,0.2c-0.2,0,0,0.2-0.2,0.2c0.1,0.2,0.3,0.2,0.3,0.4
		c0,0.2-0.2,0.4,0,0.7c0,0.1,0.1,0.3,0.2,0.4c-0.2,0-0.2,0.1-0.2,0.3l0.5,0.8c0,0.1-0.1,0.1-0.1,0.2c0,0,0.1,0,0.1,0
		c0,0.1-0.1,0-0.1,0.1c0.1,0.1,0.4,0.4,0.5,0.5c0,0.2,0.1,0.3,0.1,0.5c0.1,0.3,0.4,1.2,0.7,1.2c0.7,0,0.1-0.7,0.6-0.7
		c0-0.1,0.1-0.2,0.1-0.4l-0.1,0c0.2,0,0.1-0.2,0.3-0.2h0.1c0-0.1-0.1-0.5,0-0.5h0.1c0.1,0,0-0.3,0-0.3c0.2,0,0.3-0.2,0.4-0.3
		c-0.1,0-0.1,0-0.1-0.1c0-0.3,0.3-0.5,0.2-0.6l0,0c-0.1-0.1,0,0,0-0.1V341c0-0.1,0.3-0.4,0.3-0.4c0.1,0,0.1,0.1,0.2,0.1
		c0-0.1,0.4-0.8,0.4-0.8c0.3,0,0.1-0.3,0.4-0.3c0,0,0,0,0-0.1c-0.1-0.3,0.1-0.5,0.5-0.6v-0.1c-0.1-0.5,0.7-0.5,0.7-0.8l-0.1-0.2
		c-0.1-0.6,0.7-0.6,0.6-0.9c0,0-0.1,0-0.1-0.1c0.5-0.1,0.8-1.2,1.2-1.3c0-0.6,0.7-0.6,0.5-1.2c0.1-0.1,0.5-0.1,0.4-0.5l0-0.1
		c0.1,0,0.4,0,0.4-0.1c-0.1-0.3,0.1,0,0.4-0.4c0.1-0.1,0.4-0.3,0.4-0.4c0,0,0,0,0.1,0c0,0,0.1,0,0.1,0c0.2-0.3,1.2-0.7,1.8-0.4
		c0.4,0.3,0.5,1.3,0.7,1.3c0.6,0.5,0.9,0.8,1.4,1.3c0.4,0,0.6,0.6,0.4,0.7c-0.1,0,0.3,0.2,0.1,0.3c0,0-0.1,0-0.1,0.2
		c-0.2,0-1,0.5-1.2,0C509,335.5,508.1,335.4,508,334.9z"/>
	<path class="st1" d="M509.8,341.3v-0.5c0-0.6,0.2-1,0.4-1.7c0,0-0.1-0.1-0.1-0.2c0-0.1,0.3-0.4,0.3-0.7c0-0.2,0-0.7,0.1-0.7h0.2
		c0-0.1,0-0.1,0-0.1c0,0,0.1-0.1,0.1-0.4v-0.1c0.4,0,0.7-1,0.7-1.2c0.6-0.1,0.7-0.9,1-0.9c0,0,0.1,0,0.2,0c0-1,1.3-1.8,2.1-2.5
		c0.1-0.1,0.6-0.7,1.9-1.2c0,0,0.1,0.1,0.2,0.1c0.1,0,0.1-0.1,0.2-0.1c0,0,0.1,0.1,0.3,0.1c0,0,0.2-0.1,0.6-0.1c0.6,0,1.8,1.5,1.8,2
		c0.1,0.1,0.4,0.2,0.6,0.4c0,0.1,0,0.1,0,0.1v1c0,0.1-0.1,0.3-0.2,0.3h-0.1v0.1c0,0.3-0.1,0.4-0.1,0.7h-0.1c-0.7,0-0.2,0.3-0.5,0.8
		h-0.1c0,0-1.1,1-1.1,1.1v0.1c-0.7,0-0.9,0.6-1.2,1c0,0.1-0.4,0.5-0.6,0.5h-0.1c-0.2,0-1.2,1-1.2,1c-0.2,0.2-1,0.9-1.2,0.9h-0.2
		c-0.1,0,0,0.1-0.1,0.1h-0.1v0.1c-0.1,0-0.4,0-0.5,0.1c-0.2,0.1-0.7,0.7-0.7,0.7c0,0.3-0.1,0.6-0.1,0.8c0,0.1,0.2,0,0.1,0
		c0.1,0.3,0.7,0.7,0.7,0.7c0.1,0,0.4,0.1,0.7,0c0.3,0,0.5,0,0.6,0c0.7-0.1,1.4-0.4,1.6-0.4c0.1,0,0.1,0,0.1,0.2
		c0.1,0,0.2-0.3,0.3-0.3h0.2c0,0,0-0.1,0-0.1l0,0c0,0,0.1,0,0.1,0c0,0,0,0,0-0.1c0.7-0.1,1.1-0.4,1.5-0.4h0.1c0,0,0.7-0.4,1-0.5
		c0.3-0.2,0.2-0.6,0.9-0.6c0.4-0.3,0.9-0.3,1.2-0.9c0,0,0.1,0,0.1,0c0.1,0,0.2-0.1,0.3-0.1h0.1c0,0,0,0,0,0v-0.1
		c0.1,0,0.6-0.4,0.7-0.4h0.1c0.2,0,1.1-1,1-1h0.2c0,0,0,0,0-0.1s0,0,0.1,0h0.1h0c0.1,0,1.3-1.2,1.3-1.2h0.1c0,0,0,0,0,0v-0.2h0.1
		c0,0,0.6-0.4,0.7-0.9c0.6,0,1-0.9,1-0.8c0.1,0,0.2,0.1,0.3,0.1c0.1,0,0.3-0.1,0.4-0.1c0,0.1,0.1,0.1,0.1,0.1c0.3,0.1-0.9,1-0.4,1
		c0,0-0.1,0.4-0.1,0.3c0,0-0.4,0.4-0.4,0.4c-1,0.3-0.2,0.4-0.6,0.4c-0.1,0.1-0.3,0.7-0.6,0.7h-0.1c0,0-0.7,0.4-0.7,0.5
		c0,0.1,0,0.1,0,0.1c0,0.2-0.3,0.3-0.4,0.4c-0.3,0.2-0.6,0.5-0.6,0.5c-0.3,0-0.5,0.4-0.6,0.7c-0.4,0-0.4,0.3-0.8,0.5
		c-0.1,0-0.1,0-0.1,0c-0.4,0-0.3,0.6-0.6,0.6c-0.2,0-0.4,0.3-0.6,0.4c-0.5,0-1.4,0.7-1.4,0.7c-0.5,0.1-0.3,0-0.7,0.4h-0.1
		c-0.2,0-0.4,0.4-0.6,0.4h-0.1v0.1h-0.2c-0.1,0,0,0.1-0.1,0.1l-0.1,0l0,0c0,0.1,0,0.1,0,0.1h-0.2v0.1h-0.1c0,0-0.6,0.1-0.6,0.2
		c0,0,0,0.1,0,0.1c-0.1,0-0.1,0-0.2,0c-0.3,0-0.4,0.2-0.6,0.3h-0.2v0.1h-0.1c-0.1,0-0.1,0-0.4,0h-0.1c-0.2,0-0.3,0.3-0.6,0.3
		c0,0-0.1,0-0.1,0c-0.1,0-0.4,0.1-0.6,0.1c-0.1,0-0.2,0-0.3-0.1c-0.1,0.2-0.4,0.2-0.5,0.3c-0.3-0.1-0.9-0.1-1.2-0.2v0
		c0-0.1-0.1-0.1-0.2-0.1s-0.2,0-0.2,0.1v0c-0.3-0.1-0.3-0.3-0.6-0.4c-0.4-0.1-0.5-0.6-0.8-0.6c-0.3,0-0.2-0.8-0.4-0.9
		c-0.1-0.1-0.3,0-0.2-0.3C510.1,342.6,509.8,342.3,509.8,341.3z M517.3,333c-0.1,0.1,0,0.3-0.1,0.4c-0.1,0-0.2,0-0.3,0.1
		c-0.2,0.1-0.2,0.4-0.4,0.4c-0.2,0-0.2-0.2-0.4-0.2c-0.3,0-0.7,0.9-1.1,1.1c-0.4,0-0.4,0.3-0.8,0.3c-0.1,0.1-0.3,0.5-0.3,0.6
		c0,0.2,0,0.3,0,0.4c0,0.3-0.3,0.1-0.3,0.3v0.2c0,0.1-0.3,0.3-0.4,0.4c-0.1,0-0.1-0.1-0.2-0.1c-0.3,0-0.4,1-0.4,1.2
		c0,0.1-0.3,0.6-0.3,0.8c-0.1,0.4-0.2,0.7-0.2,1.3c0.1,0,0.2,0,0.3,0c0.6,0,1.6-1.2,1.9-1.3c0.8-0.6,1.6-1.4,1.7-1.5
		c0.2-0.2,0.6-0.6,0.9-0.6h0.2c0.2-0.9,1.3-1.1,1.3-1.5c0-0.4,0.4-0.4,0.4-0.6c0-0.1-0.1-0.2-0.1-0.3c0-0.2,0.1-0.3,0.1-0.4
		c0-0.3-0.5-0.5-0.9-0.6c0,0.1-0.1-0.4-0.1-0.3c0,0-0.1,0-0.1,0C517.5,333.3,517.5,332.9,517.3,333z M524.2,338.7L524.2,338.7
		L524.2,338.7z"/>
	<path class="st1" d="M538.6,342.3c0,0.4,0.3,0.6,0.5,1.4c0,0,0.4,0.3,0.8,0.3c0.9,0,0.8-0.2,1.5-0.2c0,0,0.5-0.2,0.6-0.2
		c0.6,0.1,0.8-0.6,1.2-0.8c0.4,0,0.7-0.2,1.1-0.4c0.3,0.1,0.3,0.4,0.4,0.6c-0.6,0.3-1,0.7-1.8,1c-0.7,0.1-0.5,0.5-1,0.8h-0.1
		c-0.1,0,0,0.1-0.1,0.1h-0.1v0.1h-0.2v0.1c0,0,0,0,0,0c0,0-0.1,0-0.1,0c-0.1,0.1-0.1,0.1-0.3,0.1h-0.1c-0.1,0.1-1.2,0.3-1.5,0.3
		c-0.1,0-0.7-0.1-0.9-0.2c-0.1,0-0.1-0.3-0.2-0.3c-0.1,0-0.2,0-0.3,0c-0.1,0-0.3-0.5-0.8-1.3c0-0.4-0.4-1.9-0.4-2.2
		c0-0.4,0.2-0.4,0.3-0.7c0.2-0.7,0-0.7,0.3-1.6v-0.5c0-0.4,0.1-0.6,0.2-1c0-0.2-0.1-0.2-0.1-0.3c0-0.1,0.2-0.1,0.3-0.3
		c0-0.1-0.1-0.2-0.1-0.4c0,0,0.2-0.3,0.2-0.7c0-0.4,0-0.8-0.1-1c0-0.3-0.1-0.6-0.6-0.5c0,0-0.1-0.1-0.1-0.1c-0.5,0-1,0.9-1.6,0.9
		c0,0.2-0.2,0.2-0.2,0.4c0,0.1,0,0.1,0,0.3c0,0.3-0.8,0.8-1.1,1c0,0.1,0,0.1,0,0.2c0,0.3-0.4,0.3-0.4,0.6c0,0,0,0,0,0.1
		c-0.7,0.1-0.8,1.1-1.2,1.2c-0.1,1.1-1.3,1.6-1.4,2c-0.1,0.1-0.6,0.8-0.8,0.8h-0.1c0.1,0.1,0,0.2,0,0.3c0,0.3-0.3,0.4-0.4,0.8
		c0,0,0,0.1,0,0.2h0c-0.2,0-0.4,0.4-0.4,0.3c0,0.1,0,0.2,0,0.3L529,344c0,0,0,0,0,0c0,0,0,0,0,0.1v0.1h-0.1c0,0,0,0,0,0v0.1l0,0
		h-0.1c0,0-0.5,0.6-0.5,0.6H528c-0.1,0,0,0,0,0.1c0,0,0,0-0.1,0c-0.1,0,0,0.1-0.1,0.1c-0.2,0.1-0.4,0-0.6,0.1
		c-0.3,0.1-0.6,0.3-0.8,0.5c-0.4-0.3-0.5,0-0.8-0.6c-0.1-0.1-0.4-0.1-0.4-0.2c0-0.1,0.1-0.1,0.1-0.2c0-0.1-0.1-0.2-0.1-0.3
		c0-0.3,0.1-0.3,0.1-0.4c0-0.1-0.1-0.2-0.1-0.3c0,0,0.1,0,0.1-0.1c0-0.1,0,0,0-0.1c0-0.1,0-0.2,0-0.3c0-0.1-0.1-0.2-0.1-0.4
		c0.2-0.3,0.3-1,0.3-1.1c0-0.1,0-0.3,0-0.5c0-0.3,0.3-0.7,0.5-1.2h0v-0.1c0-0.1,0.1-0.1,0.2-0.2c0.1-0.4,0.1-0.9,0.3-1.3
		c0.1-0.1,0.1,0,0.2-0.1c0-0.1,0-0.4,0.2-0.4c-0.1-0.3,0-0.8,0-1.2l0.1-0.1c0-0.2,0.1-0.2,0.1-0.2c0.3-0.1,0.8-1.7,0.8-1.7
		c0-0.2,0.4-1.1,0.5-1.3c0.2-1,1.2-1.6,1-1.5c0.1-0.1,0.3-0.1,0.5-0.1c0.4,0,0.7,0.1,1.1,0.1c0,0.3,0.1,0.3,0.2,0.4v0.1
		c0,0.1,0,0.3,0,0.4c0,0.5-0.6,0.7-0.6,1c0,0.1,0,0.3,0,0.4c0,0-0.3,0.7-0.5,1.3v0.1c0,0.1-0.1,0.1-0.1,0.2c0,0.1,0,0.2,0,0.3
		c-0.3,0.1-0.4,0.6-0.6,1c-0.3,0.1-0.4,0.9-0.4,1.4c0,0,0,0.1,0,0.1c-0.1,0.1-0.4,0.1-0.4,0.3c0,0.1,0.1,0.2,0.1,0.3
		c0,0.3-0.3,0.5-0.4,0.8c-0.2,0.5,0,1.2-0.4,1.5v0.1c0,0.1,0,0.1-0.1,0.1c-0.1,0-0.1-0.1-0.2-0.1c-0.3,0-0.3,0.3-0.3,0.4
		c0,0.2,0,0.4,0.2,0.6c0.3,0,1.5-1.5,1.9-2.5h0c0.3,0,0.2-0.2,0.4-0.2v-0.1c0-0.3,0.5-0.5,0.5-0.7c0,0,0-0.1,0-0.1h0.1v-0.1
		c0-0.2,0.6-0.6,0.6-0.7h0.1c1.3-1.5,2.3-2.4,2.3-2.4c0.1-0.1,0.2-0.2,0.3-0.3c0.2-0.4,0.4-1,0.8-1c0,0,0,0,0.1,0
		c0.2,0,0.1-0.3,0.2-0.3c0.9-0.2,1.1-1.3,1.9-1.6l0.8-0.6c0.4,0,0.7-0.3,1.1-0.3c0,0.5,0.3,0.4,0.7,0.6c0.1,0.3,0.2,0.9,0.2,1.3v0.1
		c0.2,0.1,0.1,0.6,0.4,0.6c0,0.2-0.1,0.2-0.1,0.4c0,0.2,0.2,0.3,0.1,0.5c0,0.5-0.4,0.8-0.4,1.5c0,0.1,0.1,0.2,0.1,0.3
		c0,0.2-0.3,0.3-0.3,0.6c0,0.1,0.1,0.2,0.1,0.3c0,0.2-0.1,0.3-0.1,0.4c0,0.1,0,0.2,0,0.3c0,0.3-0.2,0.7-0.5,0.9
		c0,0.3,0.1,0.4,0.1,0.6c0,0.4-0.3,0.4-0.3,0.7c0,0.2,0.1,0.1,0.1,0.3c0,0-0.1,0.1-0.1,0.2c0,0.1,0.1,0.2,0.1,0.3c0,0.2,0,0.3,0,0.6
		V342.3z"/>
</g>
</svg>
