<?xml version="1.0" encoding="utf-8"?>
<!-- Generator: Adobe Illustrator 25.2.0, SVG Export Plug-In . SVG Version: 6.00 Build 0)  -->
<svg version="1.1" id="Laag_1" xmlns="http://www.w3.org/2000/svg" xmlns:xlink="http://www.w3.org/1999/xlink" x="0px" y="0px"
	 viewBox="0 0 181.4 45.4" style="enable-background:new 0 0 181.4 45.4;" xml:space="preserve">
<style type="text/css">
	.st0{fill:#002169;}
</style>
<g>
	<g>
		<g>
			<path class="st0" d="M34.9,41.6c-5,0-7.6-2.5-7.6-7.4c0-4.7,2.9-7.7,7.5-7.7c2.3,0,3.1,0.4,3.8,0.7l0.3,0.1l0,3.2l-1,0
				c-0.5-1.3-1.2-2.5-3.2-2.5c-3.4,0-5.3,2.1-5.3,6c0,3.8,2.1,5.9,5.9,5.9c1.8,0,2.7-0.6,3.3-0.8l0.5,1.2
				C39,40.4,37.4,41.6,34.9,41.6z"/>
			<path class="st0" d="M16.8,18.6h-11c-0.1-0.3-0.1-0.7-0.1-1L7,17.2c0.5-0.1,0.8-0.6,0.8-1.2l0.1-3.1V6.5c0-0.5-0.2-1.1-0.6-1.3
				L6,4.8C6,4.6,6,4.2,6,4h5.4c0.1,0.3,0.1,0.6,0.1,0.9l-1,0.2C10,5.2,9.8,5.3,9.8,5.9v7l0.1,4.2l4-0.1c1.3,0,2.1-1,2.5-2l0.9,0.1
				L16.8,18.6z"/>
			<path class="st0" d="M22.7,0v22.7h22.7V0H22.7z M40.4,5.2c-0.3,0.1-0.6,0.2-0.6,0.8v7c0,4.3-3.2,5.7-5.7,5.7
				c-2.8,0-5.7-1-5.7-5.2V6.4c0-0.5-0.2-0.9-0.6-1.1l-1.3-0.4c0-0.2,0-0.6,0.1-0.8h5.5c0.1,0.3,0.1,0.7,0,0.9L31,5.2
				c-0.4,0.1-0.5,0.3-0.5,0.7v7.6c0,2.9,2,3.9,3.8,3.9c2.2,0,3.8-1.1,3.8-4.4V6.5c0-0.7-0.2-1.1-1.1-1.4L36,4.9c0-0.2,0-0.6,0-0.8
				h5.4c0.1,0.3,0.1,0.6,0.1,0.9L40.4,5.2z"/>
			<path class="st0" d="M0,22.7v22.7h22.7V22.7H0z M19.5,41.1h-4.8c0-0.3-0.1-0.6-0.1-0.9l0.8-0.3c0.6-0.2,0.7-0.7,0.7-1.4
				c0-0.2,0-0.5-0.1-0.8l-0.2-6.7l-0.1-1.1h-0.1l-4,8.5l-1.3,0l-3.5-8.7H6.7l0,1l-0.7,8c-0.1,0.4,0,0.6,0.2,0.6L8,40.2
				c0,0.2,0,0.7-0.1,0.9H3.1C3,40.8,3,40.5,3,40.2l0.7-0.4c0.5-0.3,0.9-0.9,1-1.6l0.9-9c0.1-0.5-0.2-1-0.5-1.1l-1.2-0.4
				c0-0.2,0-0.6,0.1-0.8h3.7l3.5,9h0.2l4.1-9h3.5c0.1,0.3,0.1,0.5,0.1,0.8L18,28.1c-0.5,0.2-0.8,0.7-0.7,1.6l0.7,9.1
				c0.1,0.4,0.4,0.9,0.7,1l0.8,0.4C19.5,40.4,19.5,40.9,19.5,41.1z"/>
		</g>
		<g>
			<g>
				<path class="st0" d="M121.4,36.5c-3.4,0-5.1-1.7-5.1-4.9c0-3.1,2-5.1,5-5.1c1.5,0,2.1,0.2,2.5,0.5l0.2,0.1l0,2.1l-0.7,0
					c-0.3-0.9-0.8-1.7-2.1-1.7c-2.3,0-3.5,1.4-3.5,4c0,2.6,1.4,4,3.9,4c1.2,0,1.8-0.4,2.2-0.5l0.3,0.8
					C124.2,35.7,123.1,36.5,121.4,36.5z"/>
				<path class="st0" d="M92.1,36.4h-3.9c0-0.2-0.1-0.4,0-0.6l0.9-0.3c0.2-0.1,0.4-0.5,0.4-0.7l0-2.1v-2.9H88V29
					c0.5-0.1,1.5-0.3,2.1-0.3c0.4,0,0.6,0.1,0.6,0.5v3.4l0,2.5c0,0.2,0.1,0.3,0.2,0.3l1.2,0.2C92.1,35.8,92.1,36.2,92.1,36.4z"/>
				<circle class="st0" cx="90" cy="26.4" r="0.8"/>
				<path class="st0" d="M70.3,35.4c-0.2-0.1-0.5-0.4-0.5-0.7l-0.9-6.3c-0.1-0.6,0.2-1,0.5-1.1l0.7-0.2c0-0.2,0-0.3-0.1-0.5h-2.6
					l-2.7,6.8h-0.1l-2.5-6.8h-2.7c0,0.2-0.1,0.4-0.1,0.6l0.9,0.3c0.3,0.1,0.5,0.5,0.4,0.8l-1,6.2c-0.1,0.4-0.3,0.9-0.7,1.1l-0.5,0.2
					c0,0.2,0,0.4,0.1,0.6H62c0.1-0.2,0.1-0.5,0.1-0.7l-1.3-0.4c-0.2,0-0.2-0.2-0.2-0.4l0.9-5.6l0-0.7h0.1l2.6,7l0.9-0.3l2.6-6.6h0.1
					l0,0.7l0.6,4.6c0,0.2,0,0.4,0,0.5c0,0.5-0.1,0.9-0.5,1l-0.6,0.2c0,0.2,0,0.4,0.1,0.6h3.6c0-0.2,0.1-0.5,0.1-0.6L70.3,35.4z"/>
			</g>
			<path class="st0" d="M74.4,17.9l0.9-0.3c0.2-0.1,0.4-0.5,0.4-0.7l0-2.1v-2.9h-1.4v-0.7c0.5-0.1,1.4-0.3,2.1-0.3
				c0.4,0,0.6,0.1,0.6,0.5v3.4l0,2.5c0,0.2,0.1,0.3,0.2,0.3l1.2,0.2c0,0.1,0,0.6-0.1,0.7h-3.9C74.4,18.3,74.4,18.1,74.4,17.9z"/>
			<path class="st0" d="M129.1,17.9l0.9-0.3c0.2-0.1,0.4-0.5,0.4-0.7l0-2.1v-2.9h-1.4v-0.7c0.5-0.1,1.4-0.3,2.1-0.3
				c0.4,0,0.6,0.1,0.6,0.5v3.4l0,2.5c0,0.2,0.1,0.3,0.2,0.3l1.2,0.2c0,0.1,0,0.6-0.1,0.7h-3.9C129.2,18.3,129.1,18.1,129.1,17.9z"/>
			<path class="st0" d="M161.8,17.9l0.9-0.3c0.2-0.1,0.4-0.5,0.4-0.7l0-2.1v-2.9h-1.4v-0.7c0.5-0.1,1.4-0.3,2.1-0.3
				c0.4,0,0.6,0.1,0.6,0.5v3.4l0,2.5c0,0.2,0.1,0.3,0.2,0.3l1.2,0.2c0,0.1,0,0.6-0.1,0.7h-3.9C161.8,18.3,161.8,18.1,161.8,17.9z"/>
			<circle class="st0" cx="76.3" cy="8.7" r="1"/>
			<circle class="st0" cx="131.1" cy="8.7" r="1"/>
			<circle class="st0" cx="163.7" cy="8.7" r="1"/>
		</g>
	</g>
	<path class="st0" d="M65.8,18.5h-7c0-0.1,0-0.2,0-0.3s0-0.2,0-0.3v-0.1l0.9-0.2c0.2,0,0.3-0.1,0.4-0.3s0.1-0.3,0.1-0.5l0-2v-4.3
		c0-0.2,0-0.3-0.1-0.5c-0.1-0.2-0.2-0.3-0.3-0.3L59,9.4c0-0.1,0-0.2,0-0.3s0-0.2,0-0.3h3.6c0,0.1,0,0.2,0,0.3c0,0.1,0,0.2,0,0.3v0.1
		L62,9.6c-0.2,0-0.3,0.1-0.4,0.1c-0.1,0.1-0.1,0.2-0.1,0.4v4.7l0.1,2.8l2.3-0.1c0.5-0.1,0.9-0.2,1.1-0.5c0.3-0.3,0.5-0.6,0.6-0.9
		l0.6,0.1L65.8,18.5z"/>
	<path class="st0" d="M68.1,14.9c0,0.6,0.1,1.1,0.3,1.5c0.1,0.4,0.3,0.6,0.6,0.8s0.5,0.3,0.8,0.4c0.3,0.1,0.7,0.1,1,0.1
		c0.3,0,0.6,0,0.9-0.1s0.7-0.1,0.9-0.2l0.2,0.7c-0.1,0.1-0.3,0.2-0.5,0.2c-0.2,0.1-0.4,0.1-0.6,0.2c-0.2,0-0.4,0.1-0.7,0.1
		c-0.2,0-0.5,0-0.7,0c-0.6,0-1.1-0.1-1.6-0.2c-0.5-0.1-0.8-0.3-1.1-0.6c-0.3-0.3-0.5-0.7-0.7-1.1s-0.2-1.1-0.2-1.9
		c0-0.6,0.1-1.1,0.2-1.6c0.2-0.5,0.4-0.9,0.7-1.3c0.3-0.4,0.7-0.7,1.1-0.9c0.4-0.2,0.9-0.3,1.4-0.3c0.5,0,1,0.1,1.3,0.3
		c0.4,0.2,0.7,0.4,0.9,0.7c0.2,0.3,0.4,0.7,0.5,1.1c0.1,0.4,0.2,1,0.2,1.5v0.4H68.1z M71.4,12.3c-0.2-0.4-0.6-0.6-1.2-0.6
		c-0.3,0-0.5,0.1-0.7,0.2s-0.4,0.3-0.6,0.5s-0.3,0.5-0.5,0.8c-0.1,0.3-0.2,0.6-0.2,1h3.6C71.7,13.3,71.6,12.7,71.4,12.3z"/>
	<path class="st0" d="M86.8,18.2c-0.2,0.1-0.3,0.1-0.5,0.2c-0.2,0.1-0.4,0.1-0.6,0.2c-0.2,0-0.4,0.1-0.6,0.1c-0.2,0-0.3,0-0.4-0.1
		c-0.1-0.1-0.2-0.2-0.2-0.3s-0.1-0.2-0.1-0.4c0-0.1,0-0.3,0-0.4c-0.1,0.1-0.2,0.2-0.4,0.3c-0.1,0.1-0.3,0.3-0.5,0.4
		s-0.4,0.2-0.6,0.3s-0.4,0.1-0.7,0.1c-0.4,0-0.7,0-1.1-0.1c-0.4-0.1-0.7-0.3-1-0.5c-0.3-0.3-0.5-0.6-0.7-1.1
		c-0.2-0.5-0.3-1.1-0.3-1.8c0-0.6,0.1-1.2,0.3-1.7c0.2-0.5,0.4-0.9,0.8-1.3c0.3-0.4,0.7-0.6,1.1-0.8c0.4-0.2,0.9-0.3,1.4-0.3
		c0.3,0,0.6,0,0.9,0c0.2,0,0.4,0.1,0.7,0.1V9h-1.4V8.3c0.1,0,0.3-0.1,0.4-0.1s0.3-0.1,0.5-0.1s0.4-0.1,0.6-0.1s0.4,0,0.5,0
		c0.2,0,0.3,0,0.4,0.1c0.1,0.1,0.1,0.2,0.1,0.4v6.3l0.1,2.7h1.4l0.1,0.5C87.1,18.1,87,18.2,86.8,18.2z M84.5,12
		c-0.2,0-0.4-0.1-0.6-0.1c-0.2,0-0.6-0.1-0.9-0.1c-0.5,0-0.8,0.1-1.1,0.3c-0.3,0.2-0.5,0.4-0.7,0.7c-0.2,0.3-0.3,0.6-0.3,1
		c-0.1,0.4-0.1,0.8-0.1,1.3c0,0.5,0,0.8,0.1,1.1c0.1,0.3,0.2,0.5,0.4,0.7s0.4,0.3,0.6,0.4c0.3,0.1,0.5,0.1,0.9,0.1
		c0.2,0,0.4,0,0.5-0.1c0.2,0,0.3-0.1,0.4-0.2c0.1-0.1,0.3-0.1,0.4-0.2s0.2-0.1,0.3-0.2l0.1-2.1V12z"/>
	<path class="st0" d="M89.3,14.9c0,0.6,0.1,1.1,0.3,1.5c0.1,0.4,0.3,0.6,0.6,0.8c0.2,0.2,0.5,0.3,0.8,0.4c0.3,0.1,0.7,0.1,1,0.1
		c0.3,0,0.6,0,0.9-0.1c0.4,0,0.7-0.1,0.9-0.2l0.2,0.7c-0.1,0.1-0.3,0.2-0.5,0.2c-0.2,0.1-0.4,0.1-0.6,0.2c-0.2,0-0.4,0.1-0.7,0.1
		c-0.2,0-0.5,0-0.7,0c-0.6,0-1.1-0.1-1.6-0.2c-0.5-0.1-0.8-0.3-1.1-0.6c-0.3-0.3-0.5-0.7-0.7-1.1S88,15.7,88,14.9
		c0-0.6,0.1-1.1,0.2-1.6c0.2-0.5,0.4-0.9,0.7-1.3c0.3-0.4,0.7-0.7,1.1-0.9c0.4-0.2,0.9-0.3,1.4-0.3c0.5,0,1,0.1,1.3,0.3
		c0.4,0.2,0.7,0.4,0.9,0.7s0.4,0.7,0.5,1.1c0.1,0.4,0.2,1,0.2,1.5v0.4H89.3z M92.5,12.3c-0.2-0.4-0.6-0.6-1.2-0.6
		c-0.3,0-0.5,0.1-0.7,0.2c-0.2,0.1-0.4,0.3-0.6,0.5s-0.3,0.5-0.5,0.8c-0.1,0.3-0.2,0.6-0.2,1h3.6C92.9,13.3,92.8,12.7,92.5,12.3z"/>
	<path class="st0" d="M104.3,18c0,0.1,0,0.2,0,0.3s0,0.2,0,0.3h-3.3c0-0.1,0-0.2,0-0.3s0-0.2,0-0.3v-0.2l0.4-0.3
		c0.1-0.1,0.3-0.2,0.3-0.4c0.1-0.1,0.1-0.3,0.1-0.4l0-2.1v-1.2c0-0.3,0-0.6,0-0.8s-0.1-0.4-0.2-0.5c-0.1-0.1-0.3-0.2-0.5-0.3
		c-0.2-0.1-0.5-0.1-0.8-0.1c-0.2,0-0.4,0-0.7,0.1c-0.2,0-0.4,0.1-0.7,0.2c-0.2,0.1-0.4,0.1-0.6,0.2s-0.3,0.1-0.4,0.2v2.2l0,2.5
		c0,0.1,0,0.2,0,0.2s0.1,0.1,0.2,0.1l1.2,0.2V18c0,0.1,0,0.2,0,0.3s0,0.2,0,0.3h-3.7c0-0.2,0-0.3,0-0.5v-0.1l0.6-0.3
		c0.2-0.1,0.3-0.2,0.4-0.4s0.1-0.3,0.1-0.4l0-2.1v-2.9h-1.4v-0.7c0.1,0,0.3-0.1,0.4-0.1s0.4-0.1,0.5-0.1c0.2,0,0.4-0.1,0.6-0.1
		s0.4,0,0.5,0c0.2,0,0.3,0,0.4,0.1c0.1,0.1,0.1,0.2,0.1,0.4v0.4c0.1-0.1,0.3-0.2,0.5-0.3c0.2-0.1,0.4-0.2,0.6-0.3
		c0.2-0.1,0.5-0.2,0.8-0.2s0.6-0.1,0.9-0.1c0.5,0,0.9,0.1,1.2,0.2c0.3,0.1,0.5,0.3,0.7,0.5c0.2,0.2,0.3,0.5,0.3,0.8
		c0,0.3,0.1,0.7,0.1,1v1.4l0.1,2.6c0,0.1,0,0.1,0,0.2s0.1,0,0.2,0.1l1.1,0.2V18z"/>
	<path class="st0" d="M117.8,9.6c-0.1,0-0.2,0.1-0.3,0.1c-0.1,0.1-0.1,0.2-0.1,0.4v4.7c0,0.7-0.1,1.3-0.4,1.8
		c-0.2,0.5-0.5,0.9-0.9,1.2c-0.4,0.3-0.8,0.5-1.2,0.7c-0.5,0.1-0.9,0.2-1.3,0.2c-0.5,0-0.9-0.1-1.4-0.2c-0.5-0.1-0.9-0.3-1.2-0.5
		c-0.4-0.3-0.7-0.6-0.9-1.1c-0.2-0.5-0.3-1-0.3-1.7v-4.9c0-0.2,0-0.3-0.1-0.4c-0.1-0.1-0.2-0.2-0.3-0.3l-0.9-0.3c0-0.1,0-0.2,0-0.3
		c0-0.1,0-0.2,0-0.3h3.7c0,0.1,0,0.3,0,0.4c0,0,0,0.1,0,0.1c0,0,0,0.1,0,0.1l-0.8,0.2c-0.1,0-0.2,0.1-0.3,0.1
		c-0.1,0.1-0.1,0.2-0.1,0.3v5.1c0,0.5,0.1,0.9,0.2,1.2c0.2,0.3,0.3,0.6,0.6,0.8c0.2,0.2,0.5,0.4,0.8,0.4s0.6,0.1,0.9,0.1
		c0.4,0,0.7-0.1,1-0.2c0.3-0.1,0.6-0.3,0.8-0.5c0.2-0.2,0.4-0.5,0.5-0.9c0.1-0.4,0.2-0.8,0.2-1.4v-4.3c0-0.2,0-0.3-0.1-0.5
		c-0.1-0.2-0.3-0.3-0.6-0.4l-0.6-0.2c0,0,0-0.1,0-0.1c0-0.1,0-0.1,0-0.2c0-0.1,0-0.2,0-0.2h3.6c0,0.1,0,0.2,0,0.3c0,0.1,0,0.2,0,0.3
		L117.8,9.6z"/>
	<path class="st0" d="M128.2,18c0,0.1,0,0.2,0,0.3s0,0.2,0,0.3h-3.3c0-0.1,0-0.2,0-0.3s0-0.2,0-0.3v-0.2l0.4-0.3
		c0.1-0.1,0.3-0.2,0.3-0.4c0.1-0.1,0.1-0.3,0.1-0.4l0-2.1v-1.2c0-0.3,0-0.6,0-0.8s-0.1-0.4-0.2-0.5c-0.1-0.1-0.3-0.2-0.5-0.3
		c-0.2-0.1-0.5-0.1-0.8-0.1c-0.2,0-0.4,0-0.7,0.1c-0.2,0-0.4,0.1-0.7,0.2c-0.2,0.1-0.4,0.1-0.6,0.2s-0.3,0.1-0.4,0.2v2.2l0,2.5
		c0,0.1,0,0.2,0,0.2s0.1,0.1,0.2,0.1l1.2,0.2V18c0,0.1,0,0.2,0,0.3s0,0.2,0,0.3h-3.7c0-0.2,0-0.3,0-0.5v-0.1l0.6-0.3
		c0.2-0.1,0.3-0.2,0.4-0.4s0.1-0.3,0.1-0.4l0-2.1v-2.9h-1.4v-0.7c0.1,0,0.3-0.1,0.4-0.1s0.4-0.1,0.5-0.1c0.2,0,0.4-0.1,0.6-0.1
		s0.4,0,0.5,0c0.2,0,0.3,0,0.4,0.1c0.1,0.1,0.1,0.2,0.1,0.4v0.4c0.1-0.1,0.3-0.2,0.5-0.3c0.2-0.1,0.4-0.2,0.6-0.3
		c0.2-0.1,0.5-0.2,0.8-0.2s0.6-0.1,0.9-0.1c0.5,0,0.9,0.1,1.2,0.2c0.3,0.1,0.5,0.3,0.7,0.5c0.2,0.2,0.3,0.5,0.3,0.8
		c0,0.3,0.1,0.7,0.1,1v1.4l0.1,2.6c0,0.1,0,0.1,0,0.2s0.1,0,0.2,0.1l1.1,0.2V18z"/>
	<path class="st0" d="M140.9,11.3c0,0.1,0,0.2,0,0.3c-0.1,0-0.1,0.1-0.2,0.1c-0.1,0.1-0.1,0.1-0.2,0.2c-0.1,0.1-0.1,0.2-0.2,0.3
		s-0.2,0.3-0.2,0.5l-2.3,5.9l-1,0.3l-2.3-6.3c-0.1-0.2-0.2-0.3-0.3-0.5c-0.1-0.2-0.3-0.3-0.5-0.4c0-0.1,0-0.1,0-0.2s0-0.1,0-0.2
		c0-0.1,0-0.2,0.1-0.3h3c0,0.1,0,0.2,0,0.4c0,0.2,0,0.3,0,0.3h-1l1.8,5.4l1.7-4.4c0,0,0-0.1,0-0.1c0-0.1,0-0.1,0-0.1
		c0-0.2,0-0.3-0.1-0.4s-0.1-0.2-0.2-0.2l-0.4-0.2c0,0,0-0.1,0-0.2c0-0.1,0-0.1,0-0.2c0-0.1,0-0.2,0-0.3h2.5
		C140.9,11.1,140.9,11.2,140.9,11.3z"/>
	<path class="st0" d="M142.8,14.9c0,0.6,0.1,1.1,0.3,1.5c0.1,0.4,0.3,0.6,0.6,0.8c0.2,0.2,0.5,0.3,0.8,0.4c0.3,0.1,0.7,0.1,1,0.1
		c0.3,0,0.6,0,0.9-0.1c0.4,0,0.7-0.1,0.9-0.2l0.2,0.7c-0.1,0.1-0.3,0.2-0.5,0.2c-0.2,0.1-0.4,0.1-0.6,0.2c-0.2,0-0.4,0.1-0.7,0.1
		c-0.2,0-0.5,0-0.7,0c-0.6,0-1.1-0.1-1.6-0.2c-0.5-0.1-0.8-0.3-1.1-0.6c-0.3-0.3-0.5-0.7-0.7-1.1s-0.2-1.1-0.2-1.9
		c0-0.6,0.1-1.1,0.2-1.6c0.2-0.5,0.4-0.9,0.7-1.3c0.3-0.4,0.7-0.7,1.1-0.9c0.4-0.2,0.9-0.3,1.4-0.3c0.5,0,1,0.1,1.3,0.3
		c0.4,0.2,0.7,0.4,0.9,0.7s0.4,0.7,0.5,1.1c0.1,0.4,0.2,1,0.2,1.5v0.4H142.8z M146,12.3c-0.2-0.4-0.6-0.6-1.2-0.6
		c-0.3,0-0.5,0.1-0.7,0.2c-0.2,0.1-0.4,0.3-0.6,0.5s-0.3,0.5-0.5,0.8c-0.1,0.3-0.2,0.6-0.2,1h3.6C146.4,13.3,146.2,12.7,146,12.3z"
		/>
	<path class="st0" d="M154.2,12.3c-0.1,0-0.2-0.1-0.3-0.1c-0.1,0-0.3,0-0.5,0c-0.5,0-0.9,0.1-1.2,0.2c-0.3,0.1-0.6,0.3-0.7,0.4v2.1
		l0.1,2.5c0,0.1,0,0.2,0,0.2c0,0.1,0.1,0.1,0.2,0.1l1.4,0.2V18c0,0.1,0,0.2,0,0.3s0,0.2,0,0.3h-3.9c0-0.1,0-0.2,0-0.3
		c0-0.1,0-0.2,0-0.3v-0.1l0.6-0.3c0.1-0.1,0.2-0.2,0.3-0.4c0.1-0.2,0.1-0.4,0.2-0.7l0-1.8v-2.9h-1.4v-0.7c0.1,0,0.3-0.1,0.4-0.1
		c0.2,0,0.3-0.1,0.5-0.1c0.2,0,0.4-0.1,0.6-0.1c0.2,0,0.4,0,0.5,0c0.2,0,0.3,0,0.4,0.1c0.1,0.1,0.1,0.2,0.1,0.4V12
		c0.1-0.2,0.2-0.3,0.3-0.4c0.1-0.1,0.3-0.3,0.5-0.4c0.2-0.1,0.4-0.2,0.6-0.2s0.5-0.1,0.7-0.1c0.2,0,0.4,0,0.6,0
		c0.2,0,0.3,0.1,0.3,0.1L154.2,12.3z"/>
	<path class="st0" d="M160.5,16.5c0,0.4-0.1,0.8-0.2,1.1c-0.2,0.3-0.4,0.5-0.7,0.7s-0.6,0.3-0.9,0.4c-0.3,0.1-0.7,0.1-1,0.1
		c-0.5,0-1,0-1.4-0.1c-0.4-0.1-0.7-0.2-1-0.4l0.1-2.2l0.6,0c0,0.2,0,0.5,0.1,0.7c0.1,0.2,0.2,0.4,0.4,0.6c0.2,0.2,0.3,0.3,0.6,0.4
		c0.2,0.1,0.5,0.2,0.7,0.2c0.2,0,0.4,0,0.6-0.1c0.2,0,0.4-0.1,0.5-0.2c0.1-0.1,0.3-0.2,0.4-0.4c0.1-0.2,0.1-0.3,0.1-0.6
		c0-0.2-0.1-0.4-0.3-0.6c-0.2-0.1-0.4-0.3-0.7-0.4c-0.3-0.1-0.6-0.3-0.9-0.4c-0.3-0.1-0.7-0.3-0.9-0.5s-0.5-0.4-0.7-0.7
		s-0.3-0.7-0.3-1.1c0-0.4,0.1-0.7,0.2-1c0.1-0.3,0.3-0.5,0.6-0.7c0.2-0.2,0.5-0.3,0.8-0.4s0.7-0.1,1-0.1c0.4,0,0.7,0,1.1,0.1
		c0.4,0.1,0.8,0.2,1.1,0.4l-0.2,1.8l-0.5-0.1c-0.1-0.4-0.3-0.7-0.6-1c-0.3-0.3-0.7-0.4-1.1-0.4c-0.4,0-0.7,0.1-1,0.3
		s-0.4,0.5-0.4,0.8c0,0.2,0.1,0.4,0.3,0.6c0.2,0.2,0.4,0.3,0.7,0.4c0.3,0.1,0.6,0.3,1,0.4c0.3,0.1,0.7,0.3,1,0.5
		c0.3,0.2,0.5,0.4,0.7,0.7C160.4,15.7,160.5,16.1,160.5,16.5z"/>
	<path class="st0" d="M171.4,18.5c-0.1,0-0.2,0.1-0.3,0.1c-0.1,0-0.3,0-0.4,0.1c-0.1,0-0.3,0-0.4,0c-0.5,0-0.9,0-1.2-0.1
		c-0.3,0-0.6-0.1-0.9-0.3c-0.2-0.1-0.4-0.4-0.5-0.7c-0.1-0.3-0.2-0.7-0.2-1.2l0-4.6h-1.1v-0.5l2.2-2h0.2V11h2.5v0.9h-2.5v2.9l0,1.7
		c0,0.3,0,0.5,0.1,0.7c0,0.2,0.1,0.3,0.2,0.4c0.1,0.1,0.2,0.1,0.4,0.2c0.2,0,0.4,0,0.7,0c0.3,0,0.5,0,0.7,0c0.2,0,0.3-0.1,0.5-0.1
		l0.2,0.9C171.6,18.5,171.5,18.5,171.4,18.5z"/>
	<path class="st0" d="M179.6,11.4c0,0.1,0,0.2,0,0.3c-0.1,0-0.1,0.1-0.2,0.1c-0.1,0-0.1,0.1-0.2,0.1c-0.1,0.1-0.1,0.2-0.2,0.3
		c-0.1,0.1-0.2,0.3-0.2,0.5l-2.8,7c-0.2,0.5-0.4,0.9-0.7,1.2c-0.3,0.4-0.6,0.7-1,0.9l-0.8-1c0.1-0.1,0.2-0.2,0.4-0.3
		s0.3-0.2,0.4-0.4s0.3-0.3,0.4-0.4c0.1-0.2,0.2-0.3,0.3-0.4l0.4-0.8l-2.4-6.1c-0.1-0.1-0.2-0.3-0.3-0.4c-0.2-0.2-0.3-0.3-0.6-0.4
		v-0.3c0-0.1,0-0.2,0.1-0.3h3c0,0.1,0,0.3,0,0.4c0,0.1,0,0.2,0,0.3H174l2,5.3l1.7-4.3c0-0.1,0.1-0.2,0.1-0.3c0-0.1,0-0.3-0.1-0.4
		c-0.1-0.1-0.2-0.2-0.3-0.3l-0.3-0.1v-0.4c0-0.1,0-0.1,0-0.2h2.6C179.6,11.1,179.6,11.2,179.6,11.4z"/>
	<path class="st0" d="M73.2,32.7c0,0.6,0.1,1.1,0.3,1.5c0.1,0.4,0.3,0.6,0.6,0.8c0.2,0.2,0.5,0.3,0.8,0.4c0.3,0.1,0.7,0.1,1,0.1
		c0.3,0,0.6,0,0.9-0.1c0.4,0,0.7-0.1,0.9-0.2L78,36c-0.1,0.1-0.3,0.2-0.5,0.2c-0.2,0.1-0.4,0.1-0.6,0.2c-0.2,0-0.4,0.1-0.7,0.1
		s-0.5,0-0.7,0c-0.6,0-1.1-0.1-1.6-0.2c-0.5-0.1-0.8-0.3-1.1-0.6c-0.3-0.3-0.5-0.7-0.7-1.1c-0.2-0.5-0.2-1.1-0.2-1.9
		c0-0.6,0.1-1.1,0.2-1.6c0.2-0.5,0.4-0.9,0.7-1.3c0.3-0.4,0.7-0.7,1.1-0.9c0.4-0.2,0.9-0.3,1.4-0.3c0.5,0,1,0.1,1.3,0.3
		c0.4,0.2,0.7,0.4,0.9,0.7s0.4,0.7,0.5,1.1c0.1,0.4,0.2,1,0.2,1.5v0.4H73.2z M76.4,30.1c-0.2-0.4-0.6-0.6-1.2-0.6
		c-0.3,0-0.5,0.1-0.7,0.2c-0.2,0.1-0.4,0.3-0.6,0.5s-0.3,0.5-0.5,0.8c-0.1,0.3-0.2,0.6-0.2,1h3.6C76.8,31.1,76.6,30.5,76.4,30.1z"/>
	<path class="st0" d="M86.8,36.1c-0.2,0.1-0.3,0.1-0.5,0.2s-0.4,0.1-0.6,0.2c-0.2,0-0.4,0.1-0.6,0.1c-0.2,0-0.3,0-0.4-0.1
		c-0.1-0.1-0.2-0.2-0.2-0.3s-0.1-0.2-0.1-0.4c0-0.1,0-0.3,0-0.4c-0.1,0.1-0.2,0.2-0.4,0.3c-0.1,0.1-0.3,0.3-0.5,0.4
		s-0.4,0.2-0.6,0.3s-0.4,0.1-0.7,0.1c-0.4,0-0.7,0-1.1-0.1c-0.4-0.1-0.7-0.3-1-0.5c-0.3-0.3-0.5-0.6-0.7-1.1
		c-0.2-0.5-0.3-1.1-0.3-1.8c0-0.6,0.1-1.2,0.3-1.7c0.2-0.5,0.4-0.9,0.8-1.3c0.3-0.4,0.7-0.6,1.1-0.8c0.4-0.2,0.9-0.3,1.4-0.3
		c0.3,0,0.6,0,0.9,0c0.2,0,0.4,0.1,0.7,0.1v-2.1H83v-0.6c0.1,0,0.3-0.1,0.4-0.1S83.8,26,84,26s0.4-0.1,0.6-0.1c0.2,0,0.4,0,0.5,0
		c0.2,0,0.3,0,0.4,0.1c0.1,0.1,0.1,0.2,0.1,0.4v6.3l0.1,2.7h1.4l0.1,0.5C87.1,35.9,87,36,86.8,36.1z M84.5,29.9
		c-0.2,0-0.4-0.1-0.6-0.1c-0.2,0-0.6-0.1-0.9-0.1c-0.5,0-0.8,0.1-1.1,0.3c-0.3,0.2-0.5,0.4-0.7,0.7c-0.2,0.3-0.3,0.6-0.3,1
		c-0.1,0.4-0.1,0.8-0.1,1.3c0,0.5,0,0.8,0.1,1.1c0.1,0.3,0.2,0.5,0.4,0.7s0.4,0.3,0.6,0.4c0.3,0.1,0.5,0.1,0.9,0.1
		c0.2,0,0.4,0,0.5-0.1c0.2,0,0.3-0.1,0.4-0.2c0.1-0.1,0.3-0.1,0.4-0.2s0.2-0.1,0.3-0.2l0.1-2.1V29.9z"/>
	<path class="st0" d="M98.9,29.6c0,0.3-0.1,0.5-0.2,0.7s-0.3,0.3-0.5,0.5c-0.1-0.1-0.2-0.2-0.3-0.3c-0.1-0.1-0.3-0.2-0.4-0.4
		s-0.3-0.2-0.5-0.3s-0.4-0.1-0.5-0.1c-0.4,0-0.7,0.1-1,0.2c-0.3,0.1-0.5,0.3-0.7,0.5c-0.2,0.2-0.3,0.5-0.4,0.9
		c-0.1,0.4-0.1,0.8-0.1,1.4c0,0.4,0,0.8,0.1,1.2c0.1,0.4,0.2,0.7,0.4,0.9s0.4,0.5,0.8,0.6c0.3,0.1,0.8,0.2,1.3,0.2
		c0.1,0,0.3,0,0.5,0c0.2,0,0.3,0,0.5-0.1c0.2,0,0.3-0.1,0.4-0.1c0.1,0,0.2-0.1,0.3-0.1l0.2,0.7c-0.1,0-0.2,0.1-0.3,0.2
		c-0.1,0.1-0.3,0.1-0.5,0.2s-0.4,0.1-0.7,0.2c-0.3,0-0.5,0.1-0.8,0.1c-0.7,0-1.2-0.1-1.7-0.2c-0.5-0.1-0.8-0.4-1.1-0.7
		c-0.3-0.3-0.5-0.7-0.6-1.2c-0.1-0.5-0.2-1.1-0.2-1.8c0-0.5,0.1-1,0.2-1.4c0.2-0.5,0.4-0.9,0.7-1.2c0.3-0.4,0.7-0.7,1.1-0.9
		c0.4-0.2,0.9-0.3,1.5-0.3c0.2,0,0.4,0,0.6,0c0.3,0,0.5,0.1,0.7,0.1c0.2,0.1,0.4,0.1,0.6,0.3C98.8,29.2,98.9,29.4,98.9,29.6z"/>
	<path class="st0" d="M106.9,36.1c-0.2,0.1-0.3,0.1-0.5,0.2c-0.2,0.1-0.4,0.1-0.6,0.1c-0.2,0-0.3,0.1-0.5,0.1c-0.2,0-0.4,0-0.6-0.1
		c-0.1-0.1-0.2-0.2-0.3-0.3s-0.1-0.2-0.1-0.4c0-0.1,0-0.3,0-0.4c-0.1,0.1-0.2,0.2-0.3,0.3c-0.2,0.1-0.3,0.3-0.6,0.4
		c-0.2,0.1-0.5,0.3-0.8,0.4c-0.3,0.1-0.6,0.2-0.9,0.2c-0.2,0-0.5,0-0.7-0.1s-0.4-0.2-0.6-0.3c-0.2-0.1-0.3-0.3-0.4-0.6
		s-0.1-0.5-0.1-0.8c0-0.4,0.1-0.7,0.2-1c0.2-0.3,0.4-0.5,0.6-0.7c0.2-0.2,0.5-0.3,0.8-0.5s0.6-0.2,0.9-0.3c0.2,0,0.4-0.1,0.6-0.1
		c0.2,0,0.4-0.1,0.6-0.1c0.1,0,0.2,0,0.3,0c0.1,0,0.2,0,0.3,0v-1.1c0-0.3,0-0.5-0.1-0.7c-0.1-0.2-0.2-0.3-0.3-0.4
		c-0.2-0.1-0.3-0.2-0.6-0.2s-0.5-0.1-0.9-0.1c-0.3,0-0.6,0-0.9,0.1c-0.3,0.1-0.6,0.1-0.9,0.2l-0.2-0.8c0.4-0.2,0.8-0.3,1.2-0.3
		s0.8-0.1,1.2-0.1c0.3,0,0.6,0,0.9,0s0.6,0.1,0.9,0.2s0.5,0.3,0.7,0.6c0.2,0.3,0.3,0.7,0.3,1.1v1.9l0.1,2.7h1.5l0.1,0.6
		C107.1,36,107,36,106.9,36.1z M104.3,32.9c-0.1,0-0.2,0-0.3,0c-0.1,0-0.2,0-0.3,0c-0.2,0-0.4,0.1-0.6,0.1c-0.2,0-0.4,0.1-0.6,0.1
		c-0.9,0.2-1.4,0.7-1.4,1.4c0,0.2,0.1,0.4,0.2,0.6c0.1,0.2,0.4,0.3,0.8,0.3c0.2,0,0.4,0,0.7-0.1c0.2-0.1,0.5-0.2,0.7-0.2
		c0.1,0,0.3-0.1,0.4-0.2c0.1-0.1,0.2-0.1,0.4-0.2V32.9z"/>
	<path class="st0" d="M111.9,35.8c0,0.1,0,0.2,0,0.3c0,0.1,0,0.2,0,0.2h-3.9c0-0.2,0-0.3,0-0.5v-0.1l0.7-0.3
		c0.2-0.1,0.3-0.2,0.4-0.3c0.1-0.1,0.1-0.3,0.1-0.5l0.1-2.1v-5.8h-1.4v-0.7c0.1,0,0.3-0.1,0.5-0.1c0.2,0,0.4-0.1,0.5-0.1
		c0.2,0,0.4-0.1,0.6-0.1s0.4,0,0.5,0c0.4,0,0.5,0.2,0.5,0.5v6.2l0.1,2.6c0,0.1,0,0.2,0,0.2c0,0,0.1,0,0.1,0.1l1.3,0.2V35.8z"/>
	<path class="st0" d="M126.7,32.7c0,0.6,0.1,1.1,0.3,1.5c0.1,0.4,0.3,0.6,0.6,0.8c0.2,0.2,0.5,0.3,0.8,0.4c0.3,0.1,0.7,0.1,1,0.1
		c0.3,0,0.6,0,0.9-0.1c0.4,0,0.7-0.1,0.9-0.2l0.2,0.7c-0.1,0.1-0.3,0.2-0.5,0.2c-0.2,0.1-0.4,0.1-0.6,0.2c-0.2,0-0.4,0.1-0.7,0.1
		s-0.5,0-0.7,0c-0.6,0-1.1-0.1-1.6-0.2c-0.5-0.1-0.8-0.3-1.1-0.6c-0.3-0.3-0.5-0.7-0.7-1.1c-0.2-0.5-0.2-1.1-0.2-1.9
		c0-0.6,0.1-1.1,0.2-1.6c0.2-0.5,0.4-0.9,0.7-1.3c0.3-0.4,0.7-0.7,1.1-0.9c0.4-0.2,0.9-0.3,1.4-0.3c0.5,0,1,0.1,1.3,0.3
		c0.4,0.2,0.7,0.4,0.9,0.7s0.4,0.7,0.5,1.1c0.1,0.4,0.2,1,0.2,1.5v0.4H126.7z M130,30.1c-0.2-0.4-0.6-0.6-1.2-0.6
		c-0.3,0-0.5,0.1-0.7,0.2c-0.2,0.1-0.4,0.3-0.6,0.5s-0.3,0.5-0.5,0.8c-0.1,0.3-0.2,0.6-0.2,1h3.6C130.3,31.1,130.2,30.5,130,30.1z"
		/>
	<path class="st0" d="M141.7,35.8c0,0.1,0,0.2,0,0.3c0,0.1,0,0.2,0,0.3h-3.3c0-0.1,0-0.2,0-0.3c0-0.1,0-0.2,0-0.3v-0.2l0.4-0.3
		c0.1-0.1,0.3-0.2,0.3-0.4c0.1-0.1,0.1-0.3,0.1-0.4l0-2.1v-1.2c0-0.3,0-0.6,0-0.8s-0.1-0.4-0.2-0.5c-0.1-0.1-0.3-0.2-0.5-0.3
		c-0.2-0.1-0.5-0.1-0.8-0.1c-0.2,0-0.4,0-0.7,0.1c-0.2,0-0.4,0.1-0.7,0.2c-0.2,0.1-0.4,0.1-0.6,0.2s-0.3,0.1-0.4,0.2v2.2l0,2.5
		c0,0.1,0,0.2,0,0.2c0,0,0.1,0.1,0.2,0.1l1.2,0.2v0.1c0,0.1,0,0.2,0,0.3c0,0.1,0,0.2,0,0.3H133c0-0.2,0-0.3,0-0.5v-0.1l0.6-0.3
		c0.2-0.1,0.3-0.2,0.4-0.4s0.1-0.3,0.1-0.4l0-2.1v-2.9h-1.4v-0.7c0.1,0,0.3-0.1,0.4-0.1s0.4-0.1,0.5-0.1c0.2,0,0.4-0.1,0.6-0.1
		s0.4,0,0.5,0c0.2,0,0.3,0,0.4,0.1c0.1,0.1,0.1,0.2,0.1,0.4v0.4c0.1-0.1,0.3-0.2,0.5-0.3c0.2-0.1,0.4-0.2,0.6-0.3
		c0.2-0.1,0.5-0.2,0.8-0.2s0.6-0.1,0.9-0.1c0.5,0,0.9,0.1,1.2,0.2c0.3,0.1,0.5,0.3,0.7,0.5c0.2,0.2,0.3,0.5,0.3,0.8
		c0,0.3,0.1,0.7,0.1,1v1.4l0.1,2.6c0,0.1,0,0.1,0,0.2s0.1,0,0.2,0.1l1.1,0.2V35.8z"/>
	<path class="st0" d="M147.5,36.4c-0.1,0-0.2,0.1-0.3,0.1c-0.1,0-0.3,0-0.4,0.1c-0.1,0-0.3,0-0.4,0c-0.5,0-0.9,0-1.2-0.1
		c-0.3,0-0.6-0.1-0.9-0.3c-0.2-0.1-0.4-0.4-0.5-0.7c-0.1-0.3-0.2-0.7-0.2-1.2l0-4.6h-1.1v-0.5l2.2-2h0.2v1.5h2.5v0.9h-2.5v2.9l0,1.7
		c0,0.3,0,0.5,0.1,0.7c0,0.2,0.1,0.3,0.2,0.4s0.2,0.1,0.4,0.2c0.2,0,0.4,0,0.7,0c0.3,0,0.5,0,0.7,0c0.2,0,0.3-0.1,0.5-0.1l0.2,0.9
		C147.6,36.3,147.6,36.4,147.5,36.4z"/>
	<path class="st0" d="M149.7,32.7c0,0.6,0.1,1.1,0.3,1.5c0.1,0.4,0.3,0.6,0.6,0.8c0.2,0.2,0.5,0.3,0.8,0.4c0.3,0.1,0.7,0.1,1,0.1
		c0.3,0,0.6,0,0.9-0.1c0.4,0,0.7-0.1,0.9-0.2l0.2,0.7c-0.1,0.1-0.3,0.2-0.5,0.2c-0.2,0.1-0.4,0.1-0.6,0.2c-0.2,0-0.4,0.1-0.7,0.1
		s-0.5,0-0.7,0c-0.6,0-1.1-0.1-1.6-0.2c-0.5-0.1-0.8-0.3-1.1-0.6c-0.3-0.3-0.5-0.7-0.7-1.1c-0.2-0.5-0.2-1.1-0.2-1.9
		c0-0.6,0.1-1.1,0.2-1.6c0.2-0.5,0.4-0.9,0.7-1.3c0.3-0.4,0.7-0.7,1.1-0.9c0.4-0.2,0.9-0.3,1.4-0.3c0.5,0,1,0.1,1.3,0.3
		c0.4,0.2,0.7,0.4,0.9,0.7s0.4,0.7,0.5,1.1c0.1,0.4,0.2,1,0.2,1.5v0.4H149.7z M153,30.1c-0.2-0.4-0.6-0.6-1.2-0.6
		c-0.3,0-0.5,0.1-0.7,0.2c-0.2,0.1-0.4,0.3-0.6,0.5s-0.3,0.5-0.5,0.8c-0.1,0.3-0.2,0.6-0.2,1h3.6C153.3,31.1,153.2,30.5,153,30.1z"
		/>
	<path class="st0" d="M161.2,30.1c-0.1,0-0.2-0.1-0.3-0.1c-0.1,0-0.3,0-0.5,0c-0.5,0-0.9,0.1-1.2,0.2c-0.3,0.1-0.6,0.3-0.7,0.4v2.1
		l0.1,2.5c0,0.1,0,0.2,0,0.2c0,0.1,0.1,0.1,0.2,0.1l1.4,0.2v0.1c0,0.1,0,0.2,0,0.3c0,0.1,0,0.2,0,0.3H156c0-0.1,0-0.2,0-0.3
		c0-0.1,0-0.2,0-0.3v-0.1l0.6-0.3c0.1-0.1,0.2-0.2,0.3-0.4c0.1-0.2,0.1-0.4,0.2-0.7l0-1.8v-2.9h-1.4v-0.7c0.1,0,0.3-0.1,0.4-0.1
		c0.2,0,0.3-0.1,0.5-0.1c0.2,0,0.4-0.1,0.6-0.1c0.2,0,0.4,0,0.5,0c0.2,0,0.3,0,0.4,0.1c0.1,0.1,0.1,0.2,0.1,0.4v0.6
		c0.1-0.2,0.2-0.3,0.3-0.4c0.1-0.1,0.3-0.3,0.5-0.4c0.2-0.1,0.4-0.2,0.6-0.2s0.5-0.1,0.7-0.1c0.2,0,0.4,0,0.6,0
		c0.2,0,0.3,0.1,0.3,0.1L161.2,30.1z"/>
</g>
</svg>
