<?xml version="1.0" encoding="utf-8"?>
<!-- Generator: Adobe Illustrator 25.2.0, SVG Export Plug-In . SVG Version: 6.00 Build 0)  -->
<svg version="1.1" xmlns="http://www.w3.org/2000/svg" xmlns:xlink="http://www.w3.org/1999/xlink" x="0px" y="0px"
	 viewBox="0 0 255.1 70.9" style="enable-background:new 0 0 255.1 70.9;" xml:space="preserve">
<style type="text/css">
	.st0{opacity:0.2;}
	.st1{fill:#0046AD;}
	.st2{fill:#00A1DE;}
</style>
<g id="Laag_1">
	<g>
		<g>
			<g>
				<g class="st0">
					<g>
						<defs>
							<rect id="SVGID_1_" y="0" width="255.1" height="70.9"/>
						</defs>
						<clipPath id="SVGID_2_">
							<use xlink:href="#SVGID_1_"  style="overflow:visible;"/>
						</clipPath>
					</g>
				</g>
			</g>
		</g>
		<g>
			<g>
				<path class="st1" d="M34.7,36.4c0.7-0.2,1.2-0.5,1.7-0.9c0.7-0.7,1.1-1.8,1.1-3c0-1.2-0.4-2.3-1.2-3c-0.7-0.7-1.8-1.1-3-1.1
					h-3.7c-0.7,0-1.4,0.6-1.4,1.3v11.8c0,0.6,0.5,1.1,1.1,1.1c0.6,0,1.1-0.5,1.1-1.1v-4.9h1.7l3.3,5.5c0.2,0.3,0.5,0.5,0.9,0.5
					c0.6,0,1.1-0.5,1.1-1.1c0-0.2-0.1-0.4-0.2-0.6L34.7,36.4z M35.3,32.5c0,1.6-1,1.9-1.9,1.9h-2.8v-3.9h2.8
					C34.5,30.5,35.3,31.3,35.3,32.5"/>
				<path class="st1" d="M43.8,32c-1.2,0-2.2,0.4-2.9,1.1c-0.7,0.7-1.1,1.7-1.1,2.9v2.5c0,1.2,0.4,2.2,1.1,2.9
					c0.7,0.7,1.7,1.1,2.9,1.1c1.1,0,2.1-0.2,3-0.7c0.4-0.2,0.6-0.5,0.6-0.9c0-0.5-0.5-1-1-1c-0.2,0-0.3,0.1-0.4,0.1
					c-0.8,0.3-1.5,0.5-2.1,0.5c-0.7,0-1.1-0.2-1.5-0.6c-0.2-0.3-0.4-0.9-0.4-1.6h4.5c0.7,0,1.3-0.6,1.3-1.4V36
					c0-1.2-0.4-2.2-1.1-2.9C46,32.4,44.9,32,43.8,32 M43.8,34c1.2,0,1.9,0.7,1.9,2.3h-3.7C41.9,34.7,42.5,34,43.8,34"/>
				<path class="st1" d="M51.9,28.1c-0.7,0-1.2,0.5-1.2,1.2c0,0.7,0.5,1.2,1.2,1.2s1.2-0.5,1.2-1.2C53.1,28.7,52.6,28.1,51.9,28.1"
					/>
				<path class="st1" d="M51.9,32c-0.6,0-1.1,0.5-1.1,1.1v8.4c0,0.6,0.5,1.1,1.1,1.1c0.6,0,1.1-0.5,1.1-1.1v-8.4
					C53,32.5,52.5,32,51.9,32"/>
				<path class="st1" d="M60.4,32c-1.1,0-2.1,0.2-3.1,0.5c-0.6,0.2-0.9,0.7-0.9,1.3v7.7c0,0.6,0.5,1.1,1.1,1.1
					c0.6,0,1.1-0.5,1.1-1.1v-7.2c0.6-0.2,1.3-0.2,1.9-0.2c1.2,0,1.9,0.7,1.9,1.8v5.6c0,0.6,0.5,1.1,1.1,1.1c0.6,0,1.1-0.5,1.1-1.1
					V36c0-1.2-0.4-2.2-1.1-2.9C62.6,32.4,61.6,32,60.4,32"/>
				<path class="st1" d="M68.8,32c-0.6,0-1.1,0.5-1.1,1.1v8.4c0,0.6,0.5,1.1,1.1,1.1c0.6,0,1.1-0.5,1.1-1.1v-8.4
					C69.9,32.5,69.4,32,68.8,32"/>
				<path class="st1" d="M68.8,28.1c-0.7,0-1.2,0.5-1.2,1.2c0,0.7,0.5,1.2,1.2,1.2c0.7,0,1.2-0.5,1.2-1.2
					C70,28.7,69.5,28.1,68.8,28.1"/>
				<path class="st1" d="M76.9,32c-1.2,0-2.2,0.4-2.9,1.1c-0.7,0.7-1.1,1.7-1.1,2.9v2.5c0,1.2,0.4,2.2,1.1,2.9
					c0.7,0.7,1.7,1.1,2.9,1.1c1.1,0,2.1-0.2,3-0.7c0.4-0.2,0.5-0.5,0.5-0.9c0-0.5-0.5-1-1-1c-0.2,0-0.3,0.1-0.4,0.1
					c-0.8,0.3-1.5,0.5-2.1,0.5c-0.6,0-1.1-0.2-1.5-0.6c-0.2-0.3-0.4-0.9-0.4-1.6h4.5c0.7,0,1.4-0.6,1.4-1.4V36
					c0-1.2-0.4-2.2-1.1-2.9C79.1,32.4,78.1,32,76.9,32 M76.9,34c1.2,0,1.9,0.7,1.9,2.3h-3.7C75.1,34.7,75.7,34,76.9,34"/>
				<path class="st1" d="M88.4,32.1c-0.6-0.1-1-0.2-1.5-0.2c-1.7,0-3,1.3-3,3v6.5c0,0.6,0.5,1.1,1.1,1.1c0.6,0,1.1-0.5,1.1-1.1v-6.6
					c0-0.5,0.4-0.8,0.8-0.8c0.3,0,0.6,0.1,1,0.2c0.2,0,0.2,0,0.4,0c0.6,0,1-0.4,1-1C89.2,32.7,88.9,32.2,88.4,32.1"/>
				<path class="st1" d="M102.9,28.1c-0.6,0-1.1,0.5-1.1,1.1v3.2c-0.6-0.3-1.3-0.5-1.9-0.5c-1.2,0-2.2,0.4-2.9,1.1
					c-0.7,0.7-1.1,1.7-1.1,2.9v2.5c0,1.2,0.4,2.2,1.1,2.9c0.7,0.7,1.7,1.1,2.9,1.1c1,0,2.1-0.2,3.1-0.5c0.6-0.2,0.9-0.7,0.9-1.3
					V29.2C104,28.6,103.5,28.1,102.9,28.1 M98.1,35.8c0-1.2,0.7-1.8,1.9-1.8c0.7,0,1.4,0.2,1.9,0.7v5.6c-0.6,0.2-1.2,0.2-1.9,0.2
					c-1.2,0-1.9-0.7-1.9-1.8V35.8z"/>
				<path class="st1" d="M110.9,32c-1.2,0-2.2,0.4-2.9,1.1c-0.7,0.7-1.1,1.7-1.1,2.9v2.5c0,1.2,0.4,2.2,1.1,2.9
					c0.7,0.7,1.7,1.1,2.9,1.1c1.1,0,2.1-0.2,3-0.7c0.4-0.2,0.5-0.5,0.5-0.9c0-0.5-0.5-1-1-1c-0.2,0-0.3,0.1-0.4,0.1
					c-0.8,0.3-1.5,0.5-2.1,0.5c-0.6,0-1.1-0.2-1.5-0.6c-0.2-0.3-0.4-0.9-0.4-1.6h4.5c0.7,0,1.4-0.6,1.4-1.4V36
					c0-1.2-0.4-2.2-1.1-2.9C113.1,32.4,112.1,32,110.9,32 M110.9,34c1.2,0,1.9,0.7,1.9,2.3H109C109.1,34.7,109.7,34,110.9,34"/>
				<path class="st1" d="M130.3,34.4h-2.7c-0.6,0-1.1,0.5-1.1,1.1c0,0.6,0.5,1.1,1.1,1.1h1.9v3.5c-0.7,0.2-1.4,0.3-2.1,0.3
					c-1.9,0-2.9-1.1-2.9-3v-4.2c0-1.9,1.1-3,2.9-3c0.8,0,1.7,0.3,2.2,0.6c0.2,0.1,0.4,0.2,0.6,0.2c0.6,0,1.1-0.4,1.1-1
					c0-0.4-0.2-0.8-0.5-1c-0.9-0.5-2.2-0.9-3.3-0.9c-3.1,0-5.2,2.1-5.2,5.2v4c0,3.1,2.1,5.2,5.2,5.2c1.2,0,2.6-0.3,3.6-0.7
					c0.5-0.2,0.8-0.7,0.8-1.2v-4.8C131.7,35,131.1,34.4,130.3,34.4"/>
				<path class="st1" d="M139.2,32.1c-0.6-0.1-1-0.2-1.5-0.2c-1.7,0-3,1.3-3,3v6.5c0,0.6,0.5,1.1,1.1,1.1c0.6,0,1.1-0.5,1.1-1.1
					v-6.6c0-0.5,0.4-0.8,0.8-0.8c0.3,0,0.6,0.1,1,0.2c0.2,0,0.2,0,0.4,0c0.6,0,1-0.4,1-1C140,32.7,139.7,32.2,139.2,32.1"/>
				<path class="st1" d="M146,32c-1.5,0-2.4,0.2-3.5,0.8c-0.3,0.2-0.5,0.6-0.5,1c0,0.5,0.5,1,1,1c0.2,0,0.4-0.1,0.6-0.2
					c0.7-0.4,1.2-0.5,2.1-0.5c0.9,0,1.6,0.6,1.6,1.4V36h-2c-1.2,0-2.2,0.3-2.9,0.9c-0.7,0.6-1.1,1.4-1.1,2.3c0,1,0.4,1.8,1.1,2.4
					c0.7,0.6,1.7,0.9,2.9,0.9c1.1,0,2.3-0.2,3.2-0.5c0.6-0.2,0.9-0.7,0.9-1.3v-5.3C149.5,33.8,148.4,32,146,32 M145.3,38h2v2.2
					c-0.6,0.2-1.3,0.2-2,0.2c-1.4,0-1.8-0.7-1.8-1.3C143.6,38.7,143.9,38,145.3,38"/>
				<path class="st1" d="M156.7,32c-1.5,0-2.4,0.2-3.5,0.8c-0.3,0.2-0.5,0.5-0.5,1c0,0.5,0.5,1,1,1c0.2,0,0.4-0.1,0.6-0.2
					c0.7-0.4,1.2-0.5,2.1-0.5c0.9,0,1.6,0.6,1.6,1.4V36h-2c-1.2,0-2.2,0.3-2.9,0.9c-0.7,0.6-1.1,1.4-1.1,2.3c0,1,0.4,1.8,1.1,2.4
					c0.7,0.6,1.7,0.9,2.9,0.9c1.1,0,2.2-0.2,3.2-0.5c0.6-0.2,0.9-0.7,0.9-1.3v-5.3C160.2,33.8,159.1,32,156.7,32 M156,38h2v2.2
					c-0.6,0.2-1.3,0.2-2,0.2c-1.5,0-1.8-0.7-1.8-1.3C154.3,38.7,154.6,38,156,38"/>
				<path class="st1" d="M167.4,32.2h-1.9V31c0-0.4,0.4-0.8,0.8-0.8c0.4,0,0.6,0,0.8,0.1c0.1,0,0.2,0,0.3,0c0.6,0,1.1-0.4,1.1-1
					c0-0.5-0.4-1-0.9-1.1c-0.4-0.1-0.8-0.1-1.2-0.1c-1.7,0-3,1.4-3,3v10.3c0,0.6,0.5,1.1,1.1,1.1c0.6,0,1.1-0.5,1.1-1.1v-7.2h1.9
					c0.6,0,1.1-0.4,1.1-1C168.4,32.6,168,32.2,167.4,32.2"/>
				<path class="st1" d="M224.9,37.2l-0.7,0.5c0.2,0.3,0.3,0.6,0.3,0.9c-0.2,0.9-2.2,1.9-7.3,1.9c-2.8,0-6.1-0.3-9.5-1
					c-7.2-1.3-13.5-3.8-14.9-6c-0.2-0.3-0.3-0.6-0.2-0.9c0.2-0.9,2.2-1.9,7.3-1.9c2.8,0,6.1,0.3,9.5,1c1.2,0.2,2.4,0.5,3.5,0.8
					l0.2-0.8c-2.2-0.6-4.5-1.1-7-1.6c-4.1-0.7-8.2-1.1-11.7-1.1c-3.5,0-9.5,0.4-10,3.1c-0.1,0.6,0.1,1.1,0.5,1.7
					c2,2.8,9.9,5.9,19.2,7.5c4.1,0.7,8.2,1.1,11.7,1.1l0,0c3.5,0,9.5-0.4,10-3.1C225.9,38.7,225.6,38,224.9,37.2"/>
			</g>
			<g>
				<path class="st2" d="M226.6,22.2c-0.5-0.8-1.5-1.2-3.1-1.2c-4.2,0-11.9,3.1-19.6,7.8c-1.6,1-3.2,2.1-4.8,3.2l-0.5,0.3l0.8,0.7
					l0.3-0.2c0.5-0.3,0.9-0.6,1.4-1c6.2-4,12.4-6.7,15.5-6.7c0.6,0,1.3,0.1,1.6,0.5c0.5,0.7-0.2,2.7-3.5,6c-2.3,2.3-5.5,4.8-9,7.1
					c-6.2,4-12.4,6.7-15.5,6.7c-0.6,0-1.3-0.1-1.6-0.5c-0.3-0.5-0.1-1.3,0.5-2.3l0.1-0.2l-0.5-1l-0.4,0.7c-1.1,1.8-1.4,3.2-0.8,4.2
					c0.5,0.8,1.5,1.2,3.1,1.2c4.2,0,11.9-3.1,19.6-7.8c4.8-3,9.2-6.3,12.2-9.3C226.1,26.6,227.6,23.8,226.6,22.2"/>
			</g>
		</g>
	</g>
</g>
<g id="kleur">
</g>
</svg>
