<?xml version="1.0" encoding="utf-8"?>
<!-- Generator: Adobe Illustrator 25.2.0, SVG Export Plug-In . SVG Version: 6.00 Build 0)  -->
<svg version="1.1" id="Layer_1" xmlns="http://www.w3.org/2000/svg" xmlns:xlink="http://www.w3.org/1999/xlink" x="0px" y="0px"
	 viewBox="0 0 218.3 109.1" style="enable-background:new 0 0 218.3 109.1;" xml:space="preserve">
<style type="text/css">
	.st0{fill:#0050A4;}
	.st1{fill:#F58220;}
	.st2{fill:#06B473;}
	.st3{fill:#FDB913;}
	.st4{fill:#EE255D;}
	.st5{fill:#587ABC;}
	.st6{fill:none;}
</style>
<g>
	<path class="st0" d="M24.9,82.9h1c0.1,1.1,0.9,1.7,2.2,1.7c1,0,1.7-0.4,1.7-1.3c0-1-0.9-1.2-2.2-1.5c-1.3-0.3-2.5-0.7-2.5-2.1
		c0-1.2,1-2,2.6-2c1.8,0,2.6,0.9,2.8,2.2h-1c-0.1-0.9-0.8-1.4-1.8-1.4c-1,0-1.6,0.4-1.6,1.1c0,0.8,0.8,1,1.9,1.3
		c1.4,0.3,2.7,0.7,2.7,2.3c0,1.4-1.2,2.2-2.8,2.2C26,85.4,25,84.3,24.9,82.9z"/>
	<path class="st0" d="M32.8,87.1h-0.9v-7.2h0.9v0.8h0c0.4-0.6,0.9-1,1.7-1c1.4,0,2.3,1.1,2.3,2.8c0,1.7-0.9,2.8-2.3,2.8
		c-0.7,0-1.3-0.3-1.7-0.9h0c0,0.2,0,0.5,0,0.9V87.1z M35.8,82.6c0-1.2-0.5-2.1-1.5-2.1c-1.1,0-1.7,0.9-1.7,2.1c0,1.1,0.5,2,1.6,2
		C35.3,84.6,35.8,83.8,35.8,82.6z"/>
	<path class="st0" d="M40,85.4c-1.6,0-2.6-1.3-2.6-2.8c0-1.6,1-2.8,2.6-2.8c0.8,0,1.4,0.3,1.8,0.8c0.4,0.5,0.7,1.3,0.7,2.2h-4.1
		c0.1,1,0.6,1.8,1.7,1.8c0.7,0,1.2-0.4,1.4-0.9h0.9C42.1,84.7,41.3,85.4,40,85.4z M38.4,82.1h3.1c0-1-0.6-1.6-1.5-1.6
		C39,80.5,38.5,81.2,38.4,82.1z"/>
	<path class="st0" d="M43.1,82.6c0-1.6,1-2.8,2.6-2.8c1.3,0,2.1,0.7,2.3,1.9h-0.9c-0.1-0.7-0.6-1.1-1.4-1.1c-1.1,0-1.7,0.9-1.7,2.1
		c0,1.2,0.6,2.1,1.7,2.1c0.8,0,1.3-0.5,1.4-1.3H48c-0.1,1.3-1,2-2.3,2C44.1,85.4,43.1,84.1,43.1,82.6z"/>
	<path class="st0" d="M49.9,78.4c0,0.3-0.2,0.6-0.6,0.6c-0.3,0-0.6-0.2-0.6-0.6c0-0.3,0.2-0.6,0.6-0.6
		C49.6,77.8,49.9,78.1,49.9,78.4z M48.9,79.9h0.9v5.4h-0.9V79.9z"/>
	<path class="st0" d="M50.8,83.8c0-1.2,0.9-1.5,2.3-1.7c0.8-0.1,1.3-0.2,1.3-0.8c0-0.6-0.4-0.9-1.1-0.9c-0.8,0-1.3,0.4-1.3,1H51
		c0-0.9,0.7-1.7,2.2-1.7c0.5,0,1,0.1,1.3,0.3c0.4,0.3,0.7,0.7,0.7,1.5V84c0,0.4,0.1,0.7,0.6,0.6h0v0.6c-0.1,0-0.3,0.1-0.5,0.1
		c-0.6,0-0.8-0.3-0.9-0.8h0c-0.3,0.5-0.9,0.9-1.8,0.9C51.6,85.4,50.8,84.9,50.8,83.8z M54.4,83.3v-0.9c-0.3,0.2-0.7,0.3-1.2,0.4
		c-0.9,0.1-1.5,0.3-1.5,1c0,0.7,0.5,0.9,1.1,0.9C53.9,84.7,54.4,83.9,54.4,83.3z"/>
	<path class="st0" d="M56.5,77.8h0.9v7.4h-0.9V77.8z"/>
	<path class="st0" d="M59.7,78.4c0,0.3-0.2,0.6-0.6,0.6c-0.3,0-0.6-0.2-0.6-0.6c0-0.3,0.2-0.6,0.6-0.6
		C59.4,77.8,59.7,78.1,59.7,78.4z M58.7,79.9h0.9v5.4h-0.9V79.9z"/>
	<path class="st0" d="M60.4,83.6h0.9c0.1,0.8,0.7,1,1.5,1c0.8,0,1.2-0.4,1.2-0.8c0-0.6-0.4-0.7-1.4-0.9c-1-0.2-2-0.4-2-1.6
		c0-0.9,0.7-1.5,2-1.5c1.3,0,2,0.6,2.1,1.6h-0.9c-0.1-0.5-0.5-0.9-1.2-0.9c-0.7,0-1,0.3-1,0.7c0,0.6,0.5,0.7,1.4,0.8
		c1.1,0.2,2,0.5,2,1.7c0,1.1-0.9,1.6-2.2,1.6C61.4,85.4,60.5,84.7,60.4,83.6z"/>
	<path class="st0" d="M67.5,85.3c-0.7,0-1.2-0.3-1.2-1.1v-3.6h-0.8v-0.7h0.8v-1.7h0.9v1.7h1.1v0.7h-1.1V84c0,0.4,0.2,0.5,0.5,0.5
		c0.2,0,0.4,0,0.5-0.1h0v0.8C68,85.3,67.8,85.3,67.5,85.3z"/>
	<path class="st0" d="M72.8,78.4c0,0.3-0.2,0.6-0.6,0.6s-0.6-0.2-0.6-0.6c0-0.3,0.2-0.6,0.6-0.6S72.8,78.1,72.8,78.4z M71.8,79.9
		h0.9v5.4h-0.9V79.9z"/>
	<path class="st0" d="M74.8,85.3h-0.9v-5.4h0.9v0.8h0c0.4-0.5,0.9-0.9,1.7-0.9c1.1,0,1.8,0.6,1.8,1.7v3.7h-0.9v-3.6
		c0-0.7-0.5-1.1-1.2-1.1c-0.8,0-1.4,0.6-1.4,1.4V85.3z"/>
	<path class="st0" d="M82,85.6h0.9c0.1,0.6,0.6,0.8,1.4,0.8c1,0,1.5-0.4,1.5-1.3v-0.2c0-0.3,0-0.6,0-0.8h0c-0.4,0.5-0.8,0.9-1.6,0.9
		c-1.4,0-2.3-1.1-2.3-2.6c0-1.6,1-2.6,2.3-2.6c0.8,0,1.3,0.3,1.6,0.8h0v-0.7h0.9V85c0,0.7-0.2,1.2-0.6,1.6c-0.4,0.3-1,0.5-1.7,0.5
		C82.9,87.1,82.1,86.6,82,85.6z M85.8,82.4c0-1.1-0.5-1.8-1.6-1.8c-1,0-1.5,0.7-1.5,1.9c0,1.1,0.5,1.9,1.5,1.9
		C85.4,84.3,85.8,83.4,85.8,82.4z"/>
	<path class="st0" d="M90.2,85.4c-1.6,0-2.6-1.3-2.6-2.8c0-1.6,1-2.8,2.6-2.8c0.8,0,1.4,0.3,1.8,0.8c0.4,0.5,0.7,1.3,0.7,2.2h-4.1
		c0.1,1,0.6,1.8,1.7,1.8c0.7,0,1.2-0.4,1.4-0.9h0.9C92.3,84.7,91.5,85.4,90.2,85.4z M88.6,82.1h3.1c0-1-0.6-1.6-1.5-1.6
		C89.2,80.5,88.7,81.2,88.6,82.1z"/>
	<path class="st0" d="M95.9,85.4c-1.6,0-2.6-1.3-2.6-2.8c0-1.6,1-2.8,2.6-2.8c0.8,0,1.4,0.3,1.8,0.8c0.4,0.5,0.7,1.3,0.7,2.2h-4.1
		c0.1,1,0.6,1.8,1.7,1.8c0.7,0,1.2-0.4,1.4-0.9h0.9C98,84.7,97.1,85.4,95.9,85.4z M94.2,82.1h3.1c0-1-0.6-1.6-1.5-1.6
		C94.9,80.5,94.4,81.2,94.2,82.1z"/>
	<path class="st0" d="M98.9,83.6h0.9c0.1,0.8,0.7,1,1.5,1c0.8,0,1.2-0.4,1.2-0.8c0-0.6-0.4-0.7-1.4-0.9c-1-0.2-2-0.4-2-1.6
		c0-0.9,0.7-1.5,2-1.5c1.3,0,2,0.6,2.1,1.6h-0.9c-0.1-0.5-0.5-0.9-1.2-0.9c-0.7,0-1,0.3-1,0.7c0,0.6,0.5,0.7,1.4,0.8
		c1.1,0.2,2,0.5,2,1.7c0,1.1-0.9,1.6-2.2,1.6C99.8,85.4,99,84.7,98.9,83.6z"/>
	<path class="st0" d="M106,85.3c-0.7,0-1.2-0.3-1.2-1.1v-3.6h-0.8v-0.7h0.8v-1.7h0.9v1.7h1.1v0.7h-1.1V84c0,0.4,0.2,0.5,0.5,0.5
		c0.2,0,0.4,0,0.5-0.1h0v0.8C106.5,85.3,106.2,85.3,106,85.3z"/>
	<path class="st0" d="M109.9,85.4c-1.6,0-2.6-1.3-2.6-2.8c0-1.6,1-2.8,2.6-2.8c0.8,0,1.4,0.3,1.8,0.8c0.4,0.5,0.7,1.3,0.7,2.2h-4.1
		c0.1,1,0.6,1.8,1.7,1.8c0.7,0,1.2-0.4,1.4-0.9h0.9C112,84.7,111.2,85.4,109.9,85.4z M108.3,82.1h3.1c0-1-0.6-1.6-1.5-1.6
		C108.9,80.5,108.4,81.2,108.3,82.1z"/>
	<path class="st0" d="M113.3,77.8h0.9v7.4h-0.9V77.8z"/>
	<path class="st0" d="M116.5,78.4c0,0.3-0.2,0.6-0.6,0.6c-0.3,0-0.6-0.2-0.6-0.6c0-0.3,0.2-0.6,0.6-0.6
		C116.2,77.8,116.5,78.1,116.5,78.4z M115.4,79.9h0.9v5.4h-0.9V79.9z"/>
	<path class="st0" d="M116.7,86.9v-0.7h0c0.1,0,0.2,0,0.3,0c0.4,0,0.5-0.1,0.5-0.5v-5.8h0.9v5.8c0,0.5-0.1,0.8-0.4,1
		c-0.2,0.2-0.5,0.2-0.9,0.2C117,87,116.8,86.9,116.7,86.9z M118.6,78.4c0,0.3-0.2,0.6-0.6,0.6s-0.6-0.2-0.6-0.6
		c0-0.3,0.2-0.6,0.6-0.6S118.6,78.1,118.6,78.4z"/>
	<path class="st0" d="M121.4,82.4l-0.8,0.7v2.1h-0.9v-7.4h0.9v3.5c0,0.2,0,0.6,0,0.8l2.3-2.3h1.2l-2,1.9l2.3,3.4h-1.1L121.4,82.4z"
		/>
	<path class="st0" d="M127,85.4c-1.6,0-2.6-1.3-2.6-2.8c0-1.6,1-2.8,2.6-2.8c0.8,0,1.4,0.3,1.8,0.8c0.4,0.5,0.7,1.3,0.7,2.2h-4.1
		c0.1,1,0.6,1.8,1.7,1.8c0.7,0,1.2-0.4,1.4-0.9h0.9C129.1,84.7,128.3,85.4,127,85.4z M125.4,82.1h3.1c0-1-0.6-1.6-1.5-1.6
		C126,80.5,125.5,81.2,125.4,82.1z"/>
	<path class="st0" d="M132.9,85.6h0.9c0.1,0.6,0.6,0.8,1.4,0.8c1,0,1.5-0.4,1.5-1.3v-0.2c0-0.3,0-0.6,0-0.8h0
		c-0.4,0.5-0.8,0.9-1.6,0.9c-1.4,0-2.3-1.1-2.3-2.6c0-1.6,1-2.6,2.3-2.6c0.8,0,1.3,0.3,1.6,0.8h0v-0.7h0.9V85c0,0.7-0.2,1.2-0.6,1.6
		c-0.4,0.3-1,0.5-1.7,0.5C133.8,87.1,133,86.6,132.9,85.6z M136.7,82.4c0-1.1-0.5-1.8-1.6-1.8c-1,0-1.5,0.7-1.5,1.9
		c0,1.1,0.5,1.9,1.5,1.9C136.3,84.3,136.7,83.4,136.7,82.4z"/>
	<path class="st0" d="M141.1,85.4c-1.6,0-2.6-1.3-2.6-2.8c0-1.6,1-2.8,2.6-2.8c0.8,0,1.4,0.3,1.8,0.8c0.4,0.5,0.7,1.3,0.7,2.2h-4.1
		c0.1,1,0.6,1.8,1.7,1.8c0.7,0,1.2-0.4,1.4-0.9h0.9C143.2,84.7,142.3,85.4,141.1,85.4z M139.5,82.1h3.1c0-1-0.6-1.6-1.5-1.6
		C140.1,80.5,139.6,81.2,139.5,82.1z"/>
	<path class="st0" d="M144,84.5l2.4-3.1c0.2-0.3,0.6-0.7,0.6-0.7v0c0,0-0.6,0-1,0h-1.8v-0.8h4v0.6l-2.4,3.2
		c-0.2,0.3-0.7,0.8-0.7,0.8v0c0,0,0.7,0,1.1,0h2.2v0.8H144V84.5z"/>
	<path class="st0" d="M148.8,82.6c0-1.6,1-2.8,2.6-2.8c1.6,0,2.6,1.3,2.6,2.8c0,1.6-1,2.8-2.6,2.8C149.8,85.4,148.8,84.1,148.8,82.6
		z M153.1,82.6c0-1.2-0.6-2.1-1.7-2.1c-1.1,0-1.7,0.9-1.7,2.1c0,1.2,0.6,2.1,1.7,2.1C152.5,84.6,153.1,83.7,153.1,82.6z"/>
	<path class="st0" d="M155.8,85.3h-0.9v-5.4h0.9v0.8h0c0.4-0.5,0.9-0.9,1.7-0.9c1.1,0,1.8,0.6,1.8,1.7v3.7h-0.9v-3.6
		c0-0.7-0.5-1.1-1.2-1.1c-0.8,0-1.4,0.6-1.4,1.4V85.3z"/>
	<path class="st0" d="M160.2,82.6c0-1.8,1-2.8,2.3-2.8c0.8,0,1.4,0.4,1.7,0.9h0c0-0.2,0-0.6,0-1v-1.9h0.9v7.4h-0.9v-0.8h0
		c-0.3,0.6-0.9,0.9-1.7,0.9C161.1,85.4,160.2,84.3,160.2,82.6z M164.3,82.6c0-1.2-0.6-2.1-1.6-2.1c-1,0-1.5,0.9-1.5,2.1
		c0,1.2,0.5,2,1.5,2C163.8,84.6,164.3,83.8,164.3,82.6z"/>
	<path class="st0" d="M167.3,85.3h-0.9v-7.4h0.9v1.9c0,0.3,0,0.6,0,0.9h0c0.4-0.6,0.9-0.9,1.7-0.9c1.1,0,1.8,0.6,1.8,1.7v3.7h-0.9
		v-3.6c0-0.7-0.5-1.1-1.2-1.1c-0.8,0-1.4,0.6-1.4,1.4V85.3z"/>
	<path class="st0" d="M174.3,85.4c-1.6,0-2.6-1.3-2.6-2.8c0-1.6,1-2.8,2.6-2.8c0.8,0,1.4,0.3,1.8,0.8c0.4,0.5,0.7,1.3,0.7,2.2h-4.1
		c0.1,1,0.6,1.8,1.7,1.8c0.7,0,1.2-0.4,1.4-0.9h0.9C176.4,84.7,175.6,85.4,174.3,85.4z M172.7,82.1h3.1c0-1-0.6-1.6-1.5-1.6
		C173.3,80.5,172.8,81.2,172.7,82.1z"/>
	<path class="st0" d="M178.7,78.4c0,0.3-0.2,0.6-0.6,0.6c-0.3,0-0.6-0.2-0.6-0.6c0-0.3,0.2-0.6,0.6-0.6
		C178.4,77.8,178.7,78.1,178.7,78.4z M177.7,79.9h0.9v5.4h-0.9V79.9z"/>
	<path class="st0" d="M179.5,82.6c0-1.8,1-2.8,2.3-2.8c0.8,0,1.4,0.4,1.7,0.9h0c0-0.2,0-0.6,0-1v-1.9h0.9v7.4h-0.9v-0.8h0
		c-0.3,0.6-0.9,0.9-1.7,0.9C180.4,85.4,179.5,84.3,179.5,82.6z M183.6,82.6c0-1.2-0.6-2.1-1.6-2.1c-1,0-1.5,0.9-1.5,2.1
		c0,1.2,0.5,2,1.5,2C183.1,84.6,183.6,83.8,183.6,82.6z"/>
</g>
<path class="st0" d="M92.1,31.5h3.2v1.6h0.1c0.8-1.1,2-1.9,3.7-1.9c3.3,0,5.5,2.7,5.5,6.6c0,4.1-2.2,6.6-5.4,6.6
	c-1.8,0-2.9-0.7-3.6-1.8h0v5.5h-3.3V31.5z M101.2,37.9c0-2.4-0.8-4-2.9-4c-2.1,0-2.9,1.8-2.9,4c0,2.3,1.1,3.8,3,3.8
	C100.1,41.7,101.2,40.3,101.2,37.9"/>
<path class="st0" d="M113.6,42.7L113.6,42.7c-0.7,1-1.6,1.7-3.7,1.7c-2.6,0-4.4-1.3-4.4-3.8c0-2.8,2.3-3.6,5-4c2.1-0.3,3-0.5,3-1.4
	c0-0.9-0.7-1.5-2.1-1.5c-1.6,0-2.3,0.6-2.4,1.8h-3c0.1-2.2,1.7-4.1,5.4-4.1c3.8,0,5.3,1.7,5.3,4.6v6.4c0,1,0.1,1.5,0.4,1.7v0.1H114
	C113.8,43.8,113.7,43.2,113.6,42.7 M113.6,39.6v-1.9c-0.6,0.3-1.5,0.5-2.3,0.7c-1.7,0.4-2.6,0.8-2.6,2c0,1.2,0.8,1.6,2,1.6
	C112.6,42,113.6,40.9,113.6,39.6"/>
<path class="st0" d="M122.1,33.5L122.1,33.5c0.8-1.4,1.7-2.2,3.2-2.2c0.4,0,0.6,0,0.8,0.1v2.9h-0.1c-2.2-0.2-3.7,0.9-3.7,3.6v6.1
	h-3.3V31.5h3.2V33.5z"/>
<path class="st0" d="M130.7,33.2L130.7,33.2c0.9-1.3,2.1-2.1,3.8-2.1c2.6,0,4.3,2,4.3,4.7v8.2h-3.3v-7.7c0-1.3-0.8-2.3-2.2-2.3
	c-1.5,0-2.5,1.2-2.5,2.9v7.1h-3.3V31.5h3.3V33.2z"/>
<path class="st0" d="M148.4,42.7L148.4,42.7c-0.7,1-1.6,1.7-3.7,1.7c-2.6,0-4.4-1.3-4.4-3.8c0-2.8,2.3-3.6,5-4c2.1-0.3,3-0.5,3-1.4
	c0-0.9-0.7-1.5-2.1-1.5c-1.6,0-2.3,0.6-2.4,1.8h-3c0.1-2.2,1.7-4.1,5.4-4.1c3.8,0,5.3,1.7,5.3,4.6v6.4c0,1,0.1,1.5,0.4,1.7v0.1h-3.2
	C148.6,43.8,148.5,43.2,148.4,42.7 M148.4,39.6v-1.9c-0.6,0.3-1.5,0.5-2.3,0.7c-1.7,0.4-2.6,0.8-2.6,2c0,1.2,0.8,1.6,2,1.6
	C147.4,42,148.4,40.9,148.4,39.6"/>
<path class="st0" d="M152.9,40h3.1c0.2,1.4,1.2,2.1,2.7,2.1c1.5,0,2.3-0.6,2.3-1.4c0-1.2-1.6-1.3-3.3-1.7c-2.3-0.4-4.5-1.1-4.5-3.8
	c0-2.7,2.3-4,5.1-4c3.3,0,5.1,1.6,5.4,4.2h-3c-0.1-1.3-1-1.8-2.4-1.8c-1.3,0-2.2,0.5-2.2,1.4c0,1.1,1.7,1.2,3.5,1.5
	c2.1,0.4,4.4,1,4.4,4c0,2.5-2.2,4-5.3,4C155.1,44.4,153.1,42.7,152.9,40"/>
<path class="st0" d="M164.7,40h3.1c0.2,1.4,1.2,2.1,2.7,2.1c1.5,0,2.3-0.6,2.3-1.4c0-1.2-1.6-1.3-3.3-1.7c-2.3-0.4-4.5-1.1-4.5-3.8
	c0-2.7,2.3-4,5.1-4c3.3,0,5.1,1.6,5.4,4.2h-3c-0.1-1.3-1-1.8-2.4-1.8c-1.3,0-2.2,0.5-2.2,1.4c0,1.1,1.7,1.2,3.5,1.5
	c2.1,0.4,4.4,1,4.4,4c0,2.5-2.2,4-5.3,4C167,44.4,164.9,42.7,164.7,40"/>
<path class="st0" d="M179.1,26.4c1,0,1.9,0.8,1.9,1.8c0,1.1-0.8,1.8-1.9,1.8c-1,0-1.9-0.8-1.9-1.8C177.2,27.2,178,26.4,179.1,26.4
	 M177.4,31.5h3.3v12.6h-3.3V31.5z"/>
<path class="st0" d="M190.4,42.7L190.4,42.7c-0.7,1-1.6,1.7-3.7,1.7c-2.6,0-4.4-1.3-4.4-3.8c0-2.8,2.3-3.6,5-4c2.1-0.3,3-0.5,3-1.4
	c0-0.9-0.7-1.5-2.1-1.5c-1.6,0-2.3,0.6-2.4,1.8h-3c0.1-2.2,1.7-4.1,5.4-4.1c3.8,0,5.3,1.7,5.3,4.6v6.4c0,1,0.1,1.5,0.4,1.7v0.1h-3.2
	C190.6,43.8,190.5,43.2,190.4,42.7 M190.4,39.6v-1.9c-0.6,0.3-1.5,0.5-2.3,0.7c-1.7,0.4-2.6,0.8-2.6,2c0,1.2,0.8,1.6,2,1.6
	C189.4,42,190.4,40.9,190.4,39.6"/>
<path class="st0" d="M91.8,65.5h3.3c0.3,0.8,1,1.4,2.5,1.4c1.9,0,2.8-0.9,2.8-2.6v-1.4h-0.1c-0.7,0.8-1.7,1.5-3.3,1.5
	c-2.8,0-5.5-2.2-5.5-6c0-3.7,2.3-6.1,5.4-6.1c1.6,0,2.7,0.6,3.5,1.7h0.1v-1.3h3.2v11.6c0,1.8-0.6,3-1.5,3.8c-1.1,1-2.7,1.4-4.5,1.4
	C94.2,69.4,92.1,67.9,91.8,65.5 M100.5,58.3c0-1.8-1-3.4-3-3.4c-1.7,0-2.8,1.3-2.8,3.4c0,2.1,1.1,3.4,2.8,3.4
	C99.7,61.7,100.5,60.1,100.5,58.3"/>
<path class="st0" d="M109,54.5L109,54.5c0.8-1.4,1.7-2.2,3.2-2.2c0.4,0,0.6,0,0.8,0.1v2.9h-0.1c-2.2-0.2-3.7,0.9-3.7,3.6v6.1h-3.3
	V52.5h3.2V54.5z"/>
<path class="st0" d="M113.4,58.8c0-3.7,2.7-6.6,6.6-6.6c3.9,0,6.6,2.9,6.6,6.6s-2.7,6.6-6.6,6.6C116.1,65.5,113.4,62.6,113.4,58.8
	 M123.2,58.8c0-2.4-1.2-4.1-3.2-4.1c-2.1,0-3.2,1.7-3.2,4.1c0,2.4,1.1,4.1,3.2,4.1C122,62.9,123.2,61.3,123.2,58.8"/>
<path class="st0" d="M127.5,58.8c0-3.7,2.5-6.6,6.2-6.6c4,0,6.2,3.1,6.2,7.6h-9.1c0.2,1.9,1.3,3.1,3.2,3.1c1.3,0,2.1-0.6,2.4-1.5
	h3.3c-0.5,2.2-2.4,4.1-5.7,4.1C129.8,65.5,127.5,62.5,127.5,58.8 M130.8,57.4h5.6c-0.1-1.6-1.2-2.7-2.7-2.7
	C131.9,54.8,131.1,55.8,130.8,57.4"/>
<path class="st0" d="M141.4,52.5h3.2v1.6h0.1c0.8-1.1,2-1.9,3.7-1.9c3.3,0,5.5,2.7,5.5,6.6c0,4.1-2.2,6.6-5.4,6.6
	c-1.8,0-2.9-0.7-3.6-1.8h0v5.5h-3.3V52.5z M150.4,58.9c0-2.4-0.8-4-2.9-4c-2.1,0-2.9,1.8-2.9,4c0,2.3,1.1,3.8,3,3.8
	C149.4,62.7,150.4,61.3,150.4,58.9"/>
<path class="st1" d="M59,55.1c0-1.8-0.1-9.3-0.1-12.2l0,1c0,5.8-3.6,11.2-8.9,14l0,0c1.3,7.1,7.6,13.6,16.5,13.6v-9.3v0
	C62.5,62.1,59,59.2,59,55.1"/>
<path class="st2" d="M58.9,42.9h-9.7v0.5c0,5.1-3.9,7-7.6,7H35v9.4h7.3c2.8,0,5.5-0.7,7.8-1.9c5.3-2.7,8.9-8.1,8.9-14L58.9,42.9z"/>
<path class="st3" d="M83.7,46.3c0-1.1-0.9-2.1-2.1-2.1H68.4c-1.1,0-2.1,0.9-2.1,2.1v5.2c0,1.1,0.9,2.1,2.1,2.1h5.8v1.8
	c0,4-3.6,6.9-7.7,6.9v9.3c10.6,0,17-8.4,17.2-16.9C83.7,54.1,83.7,46.3,83.7,46.3"/>
<path class="st0" d="M35,24.8h-7c-1.6,0-3,1.3-3,3v41.4c0,1.3,1,2.3,2.3,2.3h5.4c1.3,0,2.3-1,2.3-2.3V24.8z"/>
<path class="st4" d="M79.9,30.3c-4.4-4.8-8.9-5.5-13.2-5.5c-4.7,0-8.9,2.1-12,5.2c2.7,2.7,4.3,6.4,4.3,10.3l-0.1,2.6
	c0-5.8,3.9-8.7,7.5-8.7c3.2,0,5,1.3,6.3,2.5c0.4,0.4,0.9,0.6,1.5,0.6c0.5,0,1-0.2,1.3-0.5l4.2-3.6c0.4-0.4,0.7-0.9,0.7-1.4
	C80.4,31.3,80.2,30.7,79.9,30.3"/>
<path class="st5" d="M54.7,30c-3.1-3.1-7.5-5.1-12.4-5.1H35v9.9h6.9c3.7,0,7.3,2.8,7.3,7.5v0.7h9.7l0.1-2.6
	C59,36.3,57.4,32.7,54.7,30"/>
<rect class="st6" width="218.3" height="109.1"/>
</svg>
